<?xml version="1.0" encoding="utf-8" standalone="no"?><!DOCTYPE svg PUBLIC "-//W3C//DTD SVG 1.1//EN" "http://www.w3.org/Graphics/SVG/1.1/DTD/svg11.dtd">
<svg preserveAspectRatio="xMinYMin meet" width="100%" height="100%" viewBox="0 0 698.898 524.173"  version="1.1" xmlns="http://www.w3.org/2000/svg" xmlns:xlink="http://www.w3.org/1999/xlink">
  <desc>Matlab Figure Converted by PLOT2SVG written by Juerg Schwizer</desc>
  <g id="topgroup">
  <rect x="0" y="0" width="698.898" height="524.173" fill="#ffffff" stroke="none" />
  <g id ="ID000000">
  <clipPath id="ID000001">
    <rect x="155.754" y="44.929" width="411.850" height="411.850"/>
  </clipPath>
      <polygon fill="#ffffff" fill-opacity="1.00" stroke="none" stroke-width="0.5pt" stroke-opacity="1.00" stroke-dasharray="none" points="155.754,456.780 567.605,456.780 567.605,44.929 155.754,44.929 "/>
      <polygon fill="#ffffff" fill-opacity="1.00" stroke="none" stroke-width="0.5pt" stroke-opacity="1.00" stroke-dasharray="none" points="155.754,44.929 567.605,44.929 567.605,44.929 155.754,44.929 "/>
      <polygon fill="#ffffff" fill-opacity="1.00" stroke="none" stroke-width="0.5pt" stroke-opacity="1.00" stroke-dasharray="none" points="155.754,456.780 155.754,456.780 155.754,44.929 155.754,44.929 "/>
    <g>
<g id="ID000002" clip-path="url(#ID000001)" >
      <polyline fill="none" stroke="#3f3f3f" stroke-width="1.5pt" stroke-dasharray="none" points="157.127,426.866 162.619,421.241 168.110,415.125 173.601,408.387 179.093,401.188 184.584,393.313 190.075,384.791 195.567,375.648 201.058,365.740 206.549,355.180 212.041,344.262 217.532,332.865 223.023,321.430 228.515,309.505 234.006,297.668 239.497,285.589 244.989,273.524 250.480,262.439 255.971,251.419 261.463,240.779 266.954,230.504 272.445,220.597 277.937,211.213 283.428,202.521 288.919,194.298 294.411,186.716 299.902,179.688 305.393,173.121 310.885,166.965 316.376,161.617 321.867,157.012 327.359,152.997 332.850,149.533 338.341,146.759 343.833,144.612 349.324,142.962 354.815,141.980 360.307,141.530 365.798,141.551 371.289,142.188 376.781,143.354 382.272,144.866 387.763,147.005 393.255,149.524 398.746,152.290 404.237,155.479 409.729,159.058 415.220,163.088 420.711,167.806 426.203,172.810 431.694,178.164 437.185,184.105 442.677,190.714 448.168,197.496 453.659,204.393 459.151,211.457 464.642,218.752 470.133,226.124 475.625,233.716 481.116,241.732 486.607,249.674 492.099,257.589 497.590,265.764 503.081,274.181 508.573,282.479 514.064,291.022 519.556,299.722 525.047,308.495 530.538,317.082 536.030,325.564 541.521,333.878 547.012,341.563 552.504,349.330 557.995,356.453 563.486,363.383 "/>
<g>
</g>
</g>
<g id="ID000003" clip-path="url(#ID000001)" >
      <polyline fill="none" stroke="#3f3f3f" stroke-width="1.5pt" stroke-dasharray="8.0,2.0" points="157.127,438.345 162.619,434.515 168.110,430.087 173.601,424.942 179.093,418.940 184.584,412.269 190.075,404.850 195.567,396.660 201.058,387.992 206.549,378.484 212.041,368.385 217.532,357.672 223.023,346.742 228.515,335.483 234.006,324.113 239.497,312.841 244.989,301.292 250.480,289.680 255.971,278.365 261.463,267.072 266.954,256.181 272.445,245.426 277.937,235.304 283.428,225.611 288.919,216.413 294.411,207.608 299.902,199.360 305.393,191.820 310.885,184.652 316.376,178.100 321.867,172.084 327.359,166.765 332.850,162.043 338.341,157.853 343.833,154.291 349.324,151.625 354.815,149.531 360.307,148.015 365.798,147.034 371.289,146.726 376.781,146.846 382.272,147.517 387.763,148.686 393.255,150.239 398.746,152.488 404.237,155.149 409.729,158.294 415.220,161.961 420.711,165.886 426.203,170.261 431.694,175.097 437.185,180.123 442.677,185.572 448.168,191.385 453.659,197.449 459.151,203.926 464.642,210.928 470.133,218.215 475.625,225.716 481.116,233.527 486.607,241.718 492.099,250.226 497.590,258.961 503.081,267.586 508.573,276.201 514.064,285.079 519.556,293.706 525.047,302.191 530.538,310.690 536.030,319.308 541.521,327.759 547.012,335.578 552.504,343.333 557.995,350.829 563.486,358.196 "/>
<g>
</g>
</g>
<g id="ID000004" clip-path="url(#ID000001)" >
      <polyline fill="none" stroke="#3fbfbf" stroke-width="1.5pt" stroke-dasharray="none" points="157.127,413.688 162.619,406.736 168.110,399.183 173.601,391.090 179.093,382.492 184.584,373.557 190.075,364.292 195.567,354.413 201.058,344.388 206.549,333.980 212.041,323.488 217.532,312.497 223.023,301.309 228.515,289.954 234.006,278.742 239.497,267.315 244.989,256.250 250.480,245.585 255.971,235.345 261.463,225.318 266.954,215.935 272.445,207.177 277.937,199.047 283.428,191.386 288.919,184.057 294.411,177.283 299.902,171.042 305.393,165.247 310.885,160.059 316.376,155.417 321.867,151.291 327.359,147.678 332.850,144.660 338.341,142.088 343.833,140.113 349.324,138.597 354.815,137.677 360.307,137.294 365.798,137.115 371.289,137.492 376.781,138.391 382.272,139.628 387.763,141.373 393.255,143.604 398.746,146.350 404.237,149.261 409.729,152.468 415.220,156.224 420.711,160.246 426.203,164.722 431.694,169.594 437.185,175.053 442.677,180.846 448.168,186.977 453.659,193.428 459.151,200.137 464.642,207.273 470.133,214.654 475.625,222.301 481.116,230.146 486.607,238.585 492.099,247.165 497.590,255.631 503.081,264.544 508.573,273.411 514.064,282.335 519.556,291.343 525.047,300.098 530.538,308.664 536.030,316.901 541.521,325.098 547.012,333.254 552.504,341.168 557.995,349.172 563.486,356.871 "/>
<g>
</g>
</g>
<g id="ID000005" clip-path="url(#ID000001)" >
      <polyline fill="none" stroke="#3fbfbf" stroke-width="1.5pt" stroke-dasharray="8.0,2.0" points="157.127,424.722 162.619,418.208 168.110,410.794 173.601,402.646 179.093,393.726 184.584,384.053 190.075,373.551 195.567,362.457 201.058,350.592 206.549,338.199 212.041,325.432 217.532,312.571 223.023,299.633 228.515,286.589 234.006,273.817 239.497,260.914 244.989,248.614 250.480,236.719 255.971,225.369 261.463,214.441 266.954,204.132 272.445,194.101 277.937,184.655 283.428,175.574 288.919,167.161 294.411,159.397 299.902,152.295 305.393,145.767 310.885,139.592 316.376,133.726 321.867,128.504 327.359,123.969 332.850,119.998 338.341,116.645 343.833,113.862 349.324,111.691 354.815,110.080 360.307,109.012 365.798,108.830 371.289,109.084 376.781,109.839 382.272,111.042 387.763,112.787 393.255,114.951 398.746,117.399 404.237,120.343 409.729,123.744 415.220,127.617 420.711,132.021 426.203,136.803 431.694,142.033 437.185,147.768 442.677,153.631 448.168,160.084 453.659,166.864 459.151,174.203 464.642,182.077 470.133,190.378 475.625,199.085 481.116,207.982 486.607,217.278 492.099,226.679 497.590,236.506 503.081,246.716 508.573,256.763 514.064,267.099 519.556,277.459 525.047,287.652 530.538,297.900 536.030,307.867 541.521,317.449 547.012,326.632 552.504,335.494 557.995,344.067 563.486,352.166 "/>
<g>
</g>
</g>
<g id="ID000006" clip-path="url(#ID000001)" >
      <polyline fill="none" stroke="#000000" stroke-width="0.5pt" stroke-dasharray="none" points="155.754,456.780 155.754,44.929 "/>
<g>
</g>
</g>
<g id="ID000007" clip-path="url(#ID000001)" >
      <polyline fill="none" stroke="#000000" stroke-width="0.5pt" stroke-dasharray="none" points="155.754,539.150 636.246,539.150 "/>
<g>
</g>
</g>
<g id="ID000008" >
  <g transform="translate(361.056,516.061)">
    <g transform="rotate(-0.0)">
      <text x="0.000" y="0.000" font-family="Helvetica" text-anchor="middle" font-size="25pt" fill="#000000" >Time (seconds)</text>
    </g>
  </g>
</g>
<g id="ID000009" >
  <g transform="translate(102.713,251.478)">
    <g transform="rotate(-90.0)">
      <text x="0.000" y="0.000" font-family="Helvetica" text-anchor="middle" font-size="25pt" fill="#000000" >ITC</text>
    </g>
  </g>
</g>
<g id="ID000010" >
  <g transform="translate(361.056,24.337)">
    <g transform="rotate(-0.0)">
      <text x="0.000" y="0.000" font-family="Helvetica" text-anchor="middle" font-size="25pt" fill="#000000" >5Space effect</text>
    </g>
  </g>
</g>
<g id="ID000011" >
</g>
<g id="ID000012" >
</g>
    </g>
    <g>
      <polyline fill="none" stroke="#000000" stroke-width="0.5pt" stroke-dasharray="none" points="293.038,456.780 293.038,451.363 "/>
      <polyline fill="none" stroke="#000000" stroke-width="0.5pt" stroke-dasharray="none" points="430.321,456.780 430.321,451.363 "/>
      <polyline fill="none" stroke="#000000" stroke-width="0.5pt" stroke-dasharray="none" points="155.754,456.780 567.605,456.780 "/>
      <polyline fill="none" stroke="#000000" stroke-width="0.5pt" stroke-dasharray="none" points="293.038,44.929 293.038,50.346 "/>
      <polyline fill="none" stroke="#000000" stroke-width="0.5pt" stroke-dasharray="none" points="430.321,44.929 430.321,50.346 "/>
      <polyline fill="none" stroke="#000000" stroke-width="0.5pt" stroke-dasharray="none" points="155.754,44.929 567.605,44.929 "/>
  <g transform="translate(155.754,494.470)">
    <g transform="rotate(-0.0)">
      <text x="0.000" y="0.000" font-family="Helvetica" text-anchor="middle" font-size="25pt" fill="#000000" >0</text>
    </g>
  </g>
  <g transform="translate(293.038,494.470)">
    <g transform="rotate(-0.0)">
      <text x="0.000" y="0.000" font-family="Helvetica" text-anchor="middle" font-size="25pt" fill="#000000" >0.2</text>
    </g>
  </g>
  <g transform="translate(430.321,494.470)">
    <g transform="rotate(-0.0)">
      <text x="0.000" y="0.000" font-family="Helvetica" text-anchor="middle" font-size="25pt" fill="#000000" >0.4</text>
    </g>
  </g>
  <g transform="translate(567.605,494.470)">
    <g transform="rotate(-0.0)">
      <text x="0.000" y="0.000" font-family="Helvetica" text-anchor="middle" font-size="25pt" fill="#000000" >0.6</text>
    </g>
  </g>
      <polyline fill="none" stroke="#000000" stroke-width="0.5pt" stroke-dasharray="none" points="155.754,374.409 159.873,374.409 "/>
      <polyline fill="none" stroke="#000000" stroke-width="0.5pt" stroke-dasharray="none" points="155.754,292.039 159.873,292.039 "/>
      <polyline fill="none" stroke="#000000" stroke-width="0.5pt" stroke-dasharray="none" points="155.754,209.669 159.873,209.669 "/>
      <polyline fill="none" stroke="#000000" stroke-width="0.5pt" stroke-dasharray="none" points="155.754,127.299 159.873,127.299 "/>
      <polyline fill="none" stroke="#000000" stroke-width="0.5pt" stroke-dasharray="none" points="155.754,456.780 155.754,44.929 "/>
      <polyline fill="none" stroke="#000000" stroke-width="0.5pt" stroke-dasharray="none" points="567.605,374.409 563.486,374.409 "/>
      <polyline fill="none" stroke="#000000" stroke-width="0.5pt" stroke-dasharray="none" points="567.605,292.039 563.486,292.039 "/>
      <polyline fill="none" stroke="#000000" stroke-width="0.5pt" stroke-dasharray="none" points="567.605,209.669 563.486,209.669 "/>
      <polyline fill="none" stroke="#000000" stroke-width="0.5pt" stroke-dasharray="none" points="567.605,127.299 563.486,127.299 "/>
      <polyline fill="none" stroke="#000000" stroke-width="0.5pt" stroke-dasharray="none" points="567.605,456.780 567.605,44.929 "/>
  <g transform="translate(147.517,468.012)">
    <g transform="rotate(-0.0)">
      <text x="0.000" y="0.000" font-family="Helvetica" text-anchor="end" font-size="25pt" fill="#000000" >0.1</text>
    </g>
  </g>
  <g transform="translate(147.517,385.642)">
    <g transform="rotate(-0.0)">
      <text x="0.000" y="0.000" font-family="Helvetica" text-anchor="end" font-size="25pt" fill="#000000" >0.2</text>
    </g>
  </g>
  <g transform="translate(147.517,303.272)">
    <g transform="rotate(-0.0)">
      <text x="0.000" y="0.000" font-family="Helvetica" text-anchor="end" font-size="25pt" fill="#000000" >0.3</text>
    </g>
  </g>
  <g transform="translate(147.517,220.902)">
    <g transform="rotate(-0.0)">
      <text x="0.000" y="0.000" font-family="Helvetica" text-anchor="end" font-size="25pt" fill="#000000" >0.4</text>
    </g>
  </g>
  <g transform="translate(147.517,138.531)">
    <g transform="rotate(-0.0)">
      <text x="0.000" y="0.000" font-family="Helvetica" text-anchor="end" font-size="25pt" fill="#000000" >0.5</text>
    </g>
  </g>
  <g transform="translate(147.517,56.161)">
    <g transform="rotate(-0.0)">
      <text x="0.000" y="0.000" font-family="Helvetica" text-anchor="end" font-size="25pt" fill="#000000" >0.6</text>
    </g>
  </g>
      <polyline fill="none" stroke="#000000" stroke-width="0.5pt" stroke-dasharray="none" points="155.754,456.780 155.754,452.661 "/>
      <polyline fill="none" stroke="#000000" stroke-width="0.5pt" stroke-dasharray="none" points="155.754,456.780 155.754,456.780 "/>
    </g>
  </g>
  <g id ="ID000013">
  <clipPath id="ID000014">
    <rect x="444.831" y="51.803" width="117.398" height="136.670"/>
  </clipPath>
      <polygon fill="#ffffff" fill-opacity="1.00" stroke="none" stroke-width="0.5pt" stroke-opacity="1.00" stroke-dasharray="none" points="444.831,188.473 562.228,188.473 562.228,51.803 444.831,51.803 "/>
      <polygon fill="#ffffff" fill-opacity="1.00" stroke="none" stroke-width="0.5pt" stroke-opacity="1.00" stroke-dasharray="none" points="444.831,51.803 562.228,51.803 562.228,51.803 444.831,51.803 "/>
      <polygon fill="#ffffff" fill-opacity="1.00" stroke="none" stroke-width="0.5pt" stroke-opacity="1.00" stroke-dasharray="none" points="444.831,188.473 444.831,188.473 444.831,51.803 444.831,51.803 "/>
    <g>
<g id="ID000015" >
  <g transform="translate(494.163,82.470)">
    <g transform="rotate(-0.0)">
      <text x="0.000" y="0.000" font-family="Helvetica" text-anchor="start" font-size="25pt" fill="#000000" >S-T-</text>
    </g>
  </g>
</g>
<g id="ID000016" clip-path="url(#ID000014)" >
      <polyline fill="none" stroke="#3f3f3f" stroke-width="1.5pt" stroke-dasharray="none" points="452.331,70.528 489.831,70.528 "/>
<g>
</g>
</g>
<g id="ID000017" clip-path="url(#ID000014)" >
<g>
</g>
</g>
<g id="ID000018" >
  <g transform="translate(494.163,116.324)">
    <g transform="rotate(-0.0)">
      <text x="0.000" y="0.000" font-family="Helvetica" text-anchor="start" font-size="25pt" fill="#000000" >S+T-</text>
    </g>
  </g>
</g>
<g id="ID000019" clip-path="url(#ID000014)" >
      <polyline fill="none" stroke="#3f3f3f" stroke-width="1.5pt" stroke-dasharray="8.0,2.0" points="452.331,103.601 489.831,103.601 "/>
<g>
</g>
</g>
<g id="ID000020" clip-path="url(#ID000014)" >
<g>
</g>
</g>
<g id="ID000021" >
  <g transform="translate(494.163,148.925)">
    <g transform="rotate(-0.0)">
      <text x="0.000" y="0.000" font-family="Helvetica" text-anchor="start" font-size="25pt" fill="#000000" >S-T+</text>
    </g>
  </g>
</g>
<g id="ID000022" clip-path="url(#ID000014)" >
      <polyline fill="none" stroke="#3fbfbf" stroke-width="1.5pt" stroke-dasharray="none" points="452.331,136.675 489.831,136.675 "/>
<g>
</g>
</g>
<g id="ID000023" clip-path="url(#ID000014)" >
<g>
</g>
</g>
<g id="ID000024" >
  <g transform="translate(494.163,182.779)">
    <g transform="rotate(-0.0)">
      <text x="0.000" y="0.000" font-family="Helvetica" text-anchor="start" font-size="25pt" fill="#000000" >S+T+</text>
    </g>
  </g>
</g>
<g id="ID000025" clip-path="url(#ID000014)" >
      <polyline fill="none" stroke="#3fbfbf" stroke-width="1.5pt" stroke-dasharray="8.0,2.0" points="452.331,169.749 489.831,169.749 "/>
<g>
</g>
</g>
<g id="ID000026" clip-path="url(#ID000014)" >
<g>
</g>
</g>
<g id="ID000027" >
</g>
<g id="ID000028" >
</g>
<g id="ID000029" >
</g>
    </g>
    <g>
      <polyline fill="none" stroke="#000000" stroke-width="0.5pt" stroke-dasharray="none" points="444.831,188.473 562.228,188.473 "/>
      <polyline fill="none" stroke="#000000" stroke-width="0.5pt" stroke-dasharray="none" points="444.831,51.803 562.228,51.803 "/>
      <polyline fill="none" stroke="#000000" stroke-width="0.5pt" stroke-dasharray="none" points="444.831,188.473 444.831,51.803 "/>
      <polyline fill="none" stroke="#000000" stroke-width="0.5pt" stroke-dasharray="none" points="562.228,188.473 562.228,51.803 "/>
      <polyline fill="none" stroke="#000000" stroke-width="0.5pt" stroke-dasharray="none" points="444.831,188.473 444.831,187.107 "/>
      <polyline fill="none" stroke="#000000" stroke-width="0.5pt" stroke-dasharray="none" points="444.831,188.473 444.831,188.473 "/>
    </g>
  </g>
  </g>
</svg>
