<?xml version="1.0" encoding="utf-8" standalone="no"?><!DOCTYPE svg PUBLIC "-//W3C//DTD SVG 1.1//EN" "http://www.w3.org/Graphics/SVG/1.1/DTD/svg11.dtd">
<svg preserveAspectRatio="xMinYMin meet" width="100%" height="100%" viewBox="0 0 698.898 524.173"  version="1.1" xmlns="http://www.w3.org/2000/svg" xmlns:xlink="http://www.w3.org/1999/xlink">
  <desc>Matlab Figure Converted by PLOT2SVG written by Juerg Schwizer</desc>
  <g id="topgroup">
  <rect x="0" y="0" width="698.898" height="524.173" fill="#ffffff" stroke="none" />
  <g id ="ID000000">
  <clipPath id="ID000001">
    <rect x="155.754" y="44.929" width="411.850" height="411.850"/>
  </clipPath>
      <polygon fill="#ffffff" fill-opacity="1.00" stroke="none" stroke-width="0.5pt" stroke-opacity="1.00" stroke-dasharray="none" points="155.754,456.780 567.605,456.780 567.605,44.929 155.754,44.929 "/>
      <polygon fill="#ffffff" fill-opacity="1.00" stroke="none" stroke-width="0.5pt" stroke-opacity="1.00" stroke-dasharray="none" points="155.754,456.780 567.605,456.780 567.605,456.780 155.754,456.780 "/>
      <polygon fill="#ffffff" fill-opacity="1.00" stroke="none" stroke-width="0.5pt" stroke-opacity="1.00" stroke-dasharray="none" points="155.754,456.780 155.754,456.780 155.754,44.929 155.754,44.929 "/>
    <g>
<g id="ID000002" clip-path="url(#ID000001)" >
      <polyline fill="none" stroke="#3f3f3f" stroke-width="1.5pt" stroke-dasharray="none" points="155.754,292.494 158.500,289.395 161.246,285.200 163.991,281.130 166.737,276.897 169.483,274.462 172.228,272.162 174.974,267.275 177.720,263.353 180.465,262.166 183.211,260.724 185.957,259.053 188.702,261.105 191.448,267.108 194.194,273.245 196.939,279.125 199.685,284.288 202.431,286.514 205.176,289.068 207.922,292.936 210.668,293.445 213.413,291.611 216.159,289.203 218.905,285.383 221.650,280.328 224.396,273.096 227.142,268.461 229.887,268.104 232.633,265.939 235.379,264.486 238.124,265.458 240.870,266.391 243.616,267.592 246.361,267.628 249.107,269.056 251.853,272.019 254.598,273.660 257.344,274.939 260.090,275.381 262.835,278.929 265.581,284.579 268.327,285.925 271.072,287.208 273.818,290.211 276.564,292.906 279.309,295.812 282.055,298.737 284.801,304.311 287.546,310.505 290.292,314.778 293.038,320.101 295.783,324.334 298.529,326.230 301.275,328.690 304.020,331.111 306.766,331.872 309.512,330.787 312.257,330.212 315.003,330.725 317.749,327.360 320.494,321.536 323.240,318.999 325.986,315.786 328.731,309.819 331.477,305.451 334.223,301.806 336.969,297.089 339.714,288.717 342.460,274.939 345.206,260.819 347.951,250.192 350.697,242.034 353.443,228.825 356.188,207.852 358.934,192.383 361.680,186.534 364.425,180.921 367.171,173.677 369.917,163.841 372.662,149.774 375.408,137.386 378.154,129.635 380.899,124.881 383.645,126.084 386.391,134.920 389.136,146.565 391.882,156.362 394.628,165.092 397.373,175.036 400.119,186.224 402.865,200.117 405.610,215.533 408.356,229.924 411.102,245.234 413.847,259.032 416.593,270.442 419.339,283.452 422.084,295.327 424.830,304.134 427.576,311.765 430.321,319.007 433.067,325.245 435.813,329.340 438.558,333.661 441.304,337.469 444.050,339.950 446.795,345.298 449.541,350.455 452.287,351.508 455.032,353.060 457.778,358.463 460.524,365.698 463.269,372.231 466.015,378.397 468.761,385.123 471.506,390.925 474.252,394.231 476.998,397.258 479.743,399.797 482.489,397.271 485.235,393.978 487.980,394.926 490.726,394.957 493.472,393.152 496.217,391.179 498.963,387.419 501.709,383.418 504.454,379.798 507.200,376.730 509.946,374.790 512.691,371.322 515.437,367.248 518.183,364.415 520.928,359.924 523.674,353.672 526.420,348.794 529.165,345.287 531.911,339.799 534.657,332.769 537.402,328.724 540.148,324.781 542.894,317.193 545.639,311.387 548.385,307.671 551.131,301.337 553.876,297.061 556.622,297.220 559.368,294.152 562.113,287.839 564.859,284.772 567.605,283.286 "/>
<g>
</g>
</g>
<g id="ID000003" clip-path="url(#ID000001)" >
      <polyline fill="none" stroke="#3f3f3f" stroke-width="1.5pt" stroke-dasharray="8.0,2.0" points="155.754,281.132 158.500,281.468 161.246,280.162 163.991,275.468 166.737,272.136 169.483,270.292 172.228,267.617 174.974,266.552 177.720,265.224 180.465,262.287 183.211,261.389 185.957,262.649 188.702,263.443 191.448,265.150 194.194,270.745 196.939,277.232 199.685,282.554 202.431,289.652 205.176,293.986 207.922,292.630 210.668,292.279 213.413,292.801 216.159,292.044 218.905,290.258 221.650,284.577 224.396,280.025 227.142,278.890 229.887,274.774 232.633,272.569 235.379,275.573 238.124,276.207 240.870,275.646 243.616,277.597 246.361,278.884 249.107,279.112 251.853,279.790 254.598,280.853 257.344,280.462 260.090,277.439 262.835,276.279 265.581,278.073 268.327,280.091 271.072,283.174 273.818,284.890 276.564,285.407 279.309,288.371 282.055,291.054 284.801,293.729 287.546,298.845 290.292,304.041 293.038,308.382 295.783,311.990 298.529,314.627 301.275,316.374 304.020,316.818 306.766,316.356 309.512,315.523 312.257,313.356 315.003,308.485 317.749,302.680 320.494,298.058 323.240,292.757 325.986,286.411 328.731,280.697 331.477,274.480 334.223,267.373 336.969,260.909 339.714,252.781 342.460,241.006 345.206,230.953 347.951,223.633 350.697,211.827 353.443,196.755 356.188,183.067 358.934,168.409 361.680,156.494 364.425,152.027 367.171,146.709 369.917,135.894 372.662,125.050 375.408,115.301 378.154,108.179 380.899,108.476 383.645,116.032 386.391,127.942 389.136,139.785 391.882,151.134 394.628,165.185 397.373,177.612 400.119,188.275 402.865,204.408 405.610,223.440 408.356,238.580 411.102,251.555 413.847,268.006 416.593,284.675 419.339,295.142 422.084,303.836 424.830,313.968 427.576,321.263 430.321,324.738 433.067,328.216 435.813,334.223 438.558,338.190 441.304,338.820 444.050,342.339 446.795,348.278 449.541,352.876 452.287,356.451 455.032,360.388 457.778,365.474 460.524,369.537 463.269,372.855 466.015,379.175 468.761,385.898 471.506,389.191 474.252,392.619 476.998,396.639 479.743,396.378 482.489,394.089 485.235,392.273 487.980,388.855 490.726,386.071 493.472,383.392 496.217,377.927 498.963,372.468 501.709,369.437 504.454,367.459 507.200,363.607 509.946,359.859 512.691,358.191 515.437,354.111 518.183,349.787 520.928,347.785 523.674,343.611 526.420,338.730 529.165,333.661 531.911,326.938 534.657,321.831 537.402,315.975 540.148,308.115 542.894,302.076 545.639,296.127 548.385,290.592 551.131,288.142 553.876,286.409 556.622,283.404 559.368,278.654 562.113,272.441 564.859,266.731 567.605,263.400 "/>
<g>
</g>
</g>
<g id="ID000004" clip-path="url(#ID000001)" >
      <polyline fill="none" stroke="#3fbf3f" stroke-width="1.5pt" stroke-dasharray="none" points="155.754,287.666 158.500,288.702 161.246,291.558 163.991,293.142 166.737,296.241 169.483,297.616 172.228,295.411 174.974,291.961 177.720,287.038 180.465,280.827 183.211,273.490 185.957,267.557 188.702,267.146 191.448,268.851 194.194,268.492 196.939,268.747 199.685,269.685 202.431,269.189 205.176,268.983 207.922,269.287 210.668,269.106 213.413,269.142 216.159,270.196 218.905,271.335 221.650,269.350 224.396,264.900 227.142,262.590 229.887,265.333 232.633,271.275 235.379,274.478 238.124,275.411 240.870,276.786 243.616,276.410 246.361,276.285 249.107,277.936 251.853,279.875 254.598,281.683 257.344,281.659 260.090,280.817 262.835,280.622 265.581,282.042 268.327,284.496 271.072,283.549 273.818,282.474 276.564,285.327 279.309,287.586 282.055,289.544 284.801,295.280 287.546,302.968 290.292,309.162 293.038,314.675 295.783,320.671 298.529,325.284 301.275,326.874 304.020,326.972 306.766,328.600 309.512,329.215 312.257,327.367 315.003,327.641 317.749,328.121 320.494,325.572 323.240,321.482 325.986,316.629 328.731,312.637 331.477,309.335 334.223,304.989 336.969,297.408 339.714,285.562 342.460,272.093 345.206,258.242 347.951,247.595 350.697,239.929 353.443,225.871 356.188,207.037 358.934,193.079 361.680,184.113 364.425,176.284 367.171,167.831 369.917,156.744 372.662,144.448 375.408,134.178 378.154,123.736 380.899,116.665 383.645,118.812 386.391,126.442 389.136,139.849 391.882,154.776 394.628,164.757 397.373,177.565 400.119,191.202 402.865,201.704 405.610,216.026 408.356,230.577 411.102,244.040 413.847,260.075 416.593,275.202 419.339,288.751 422.084,300.356 424.830,310.736 427.576,320.781 430.321,326.212 433.067,329.599 435.813,334.550 438.558,338.216 441.304,341.705 444.050,345.680 446.795,348.018 449.541,351.118 452.287,357.278 455.032,363.629 457.778,367.768 460.524,371.418 463.269,375.787 466.015,380.669 468.761,385.233 471.506,388.285 474.252,391.016 476.998,393.396 479.743,394.920 482.489,395.326 485.235,392.040 487.980,388.318 490.726,386.582 493.472,382.598 496.217,378.119 498.963,375.876 501.709,374.372 504.454,372.487 507.200,369.664 509.946,366.132 512.691,361.636 515.437,359.662 518.183,359.382 520.928,354.343 523.674,348.810 526.420,344.200 529.165,337.885 531.911,333.974 534.657,328.212 537.402,318.876 540.148,313.508 542.894,311.267 545.639,306.857 548.385,299.485 551.131,293.392 553.876,289.537 556.622,285.500 559.368,283.167 562.113,280.382 564.859,275.993 567.605,272.363 "/>
<g>
</g>
</g>
<g id="ID000005" clip-path="url(#ID000001)" >
      <polyline fill="none" stroke="#3fbf3f" stroke-width="1.5pt" stroke-dasharray="8.0,2.0" points="155.754,284.955 158.500,283.681 161.246,285.911 163.991,289.450 166.737,290.237 169.483,287.696 172.228,283.521 174.974,280.136 177.720,279.894 180.465,278.026 183.211,273.772 185.957,270.206 188.702,267.558 191.448,267.578 194.194,267.121 196.939,267.416 199.685,272.965 202.431,277.922 205.176,281.129 207.922,283.773 210.668,283.503 213.413,283.063 216.159,282.809 218.905,282.168 221.650,280.646 224.396,275.714 227.142,271.273 229.887,272.170 232.633,276.939 235.379,280.551 238.124,280.272 240.870,278.557 243.616,277.897 246.361,279.729 249.107,283.023 251.853,283.994 254.598,281.467 257.344,276.627 260.090,273.019 262.835,272.696 265.581,273.576 268.327,275.733 271.072,277.646 273.818,278.586 276.564,282.461 279.309,285.176 282.055,284.710 284.801,288.396 287.546,293.997 290.292,298.573 293.038,305.962 295.783,312.128 298.529,313.949 301.275,315.182 304.020,316.463 306.766,316.936 309.512,316.361 312.257,314.117 315.003,310.543 317.749,308.030 320.494,308.245 323.240,306.494 325.986,299.760 328.731,292.790 331.477,287.306 334.223,281.121 336.969,272.715 339.714,260.690 342.460,247.607 345.206,236.858 347.951,228.006 350.697,218.678 353.443,203.463 356.188,182.473 358.934,165.300 361.680,153.873 364.425,143.722 367.171,133.984 369.917,122.413 372.662,111.722 375.408,104.975 378.154,98.469 380.899,97.392 383.645,106.005 386.391,120.067 389.136,138.204 391.882,153.854 394.628,166.562 397.373,183.121 400.119,197.572 402.865,211.908 405.610,233.880 408.356,254.260 411.102,270.228 413.847,288.974 416.593,305.872 419.339,317.116 422.084,328.517 424.830,338.518 427.576,343.504 430.321,347.315 433.067,350.687 435.813,354.994 438.558,359.750 441.304,360.016 444.050,360.179 446.795,362.539 449.541,364.448 452.287,367.362 455.032,370.117 457.778,374.556 460.524,380.225 463.269,382.022 466.015,384.672 468.761,389.679 471.506,391.038 474.252,391.353 476.998,394.143 479.743,396.490 482.489,398.033 485.235,398.174 487.980,393.656 490.726,387.582 493.472,383.337 496.217,378.475 498.963,373.247 501.709,368.914 504.454,363.543 507.200,357.554 509.946,353.873 512.691,351.567 515.437,347.336 518.183,341.491 520.928,336.756 523.674,333.705 526.420,329.565 529.165,324.599 531.911,321.436 534.657,316.298 537.402,308.265 540.148,303.338 542.894,300.326 545.639,295.031 548.385,289.455 551.131,284.305 553.876,278.922 556.622,275.074 559.368,270.671 562.113,264.724 564.859,260.928 567.605,258.451 "/>
<g>
</g>
</g>
<g id="ID000006" clip-path="url(#ID000001)" >
      <polygon fill="#000000" fill-opacity="0.10" stroke="#000000" stroke-width="0.5pt" stroke-opacity="0.10" stroke-dasharray="none" points="166.737,44.929 183.211,44.929 183.211,456.780 166.737,456.780 "/>
</g>
<g id="ID000007" clip-path="url(#ID000001)" >
      <polygon fill="#000000" fill-opacity="0.10" stroke="#000000" stroke-width="0.5pt" stroke-opacity="0.10" stroke-dasharray="none" points="202.431,44.929 218.905,44.929 218.905,456.780 202.431,456.780 "/>
</g>
<g id="ID000008" clip-path="url(#ID000001)" >
      <polyline fill="none" stroke="#000000" stroke-width="0.5pt" stroke-dasharray="none" points="293.038,456.780 293.038,44.929 "/>
<g>
</g>
</g>
<g id="ID000009" clip-path="url(#ID000001)" >
      <polyline fill="none" stroke="#000000" stroke-width="0.5pt" stroke-dasharray="none" points="155.754,280.272 636.246,280.272 "/>
<g>
</g>
</g>
<g id="ID000010" >
  <g transform="translate(361.056,516.061)">
    <g transform="rotate(-0.0)">
      <text x="0.000" y="0.000" font-family="Helvetica" text-anchor="middle" font-size="25pt" fill="#000000" >Time (seconds)</text>
    </g>
  </g>
</g>
<g id="ID000011" >
  <g transform="translate(138.906,251.478)">
    <g transform="rotate(-90.0)">
      <text x="0.000" y="0.000" font-family="Helvetica" text-anchor="middle" font-size="25pt" fill="#000000" ><tspan>Amplitude (</tspan><tspan>&#181;</tspan><tspan>V)</tspan></text>
    </g>
  </g>
</g>
<g id="ID000012" >
  <g transform="translate(361.056,24.337)">
    <g transform="rotate(-0.0)">
      <text x="0.000" y="0.000" font-family="Helvetica" text-anchor="middle" font-size="25pt" fill="#000000" >All: Time effect</text>
    </g>
  </g>
</g>
<g id="ID000013" >
</g>
<g id="ID000014" >
</g>
    </g>
    <g>
      <polyline fill="none" stroke="#000000" stroke-width="0.5pt" stroke-dasharray="none" points="293.038,456.780 293.038,451.363 "/>
      <polyline fill="none" stroke="#000000" stroke-width="0.5pt" stroke-dasharray="none" points="430.321,456.780 430.321,451.363 "/>
      <polyline fill="none" stroke="#000000" stroke-width="0.5pt" stroke-dasharray="none" points="155.754,456.780 567.605,456.780 "/>
      <polyline fill="none" stroke="#000000" stroke-width="0.5pt" stroke-dasharray="none" points="293.038,44.929 293.038,50.346 "/>
      <polyline fill="none" stroke="#000000" stroke-width="0.5pt" stroke-dasharray="none" points="430.321,44.929 430.321,50.346 "/>
      <polyline fill="none" stroke="#000000" stroke-width="0.5pt" stroke-dasharray="none" points="155.754,44.929 567.605,44.929 "/>
  <g transform="translate(155.754,494.470)">
    <g transform="rotate(-0.0)">
      <text x="0.000" y="0.000" font-family="Helvetica" text-anchor="middle" font-size="25pt" fill="#000000" >-0.2</text>
    </g>
  </g>
  <g transform="translate(293.038,494.470)">
    <g transform="rotate(-0.0)">
      <text x="0.000" y="0.000" font-family="Helvetica" text-anchor="middle" font-size="25pt" fill="#000000" >0</text>
    </g>
  </g>
  <g transform="translate(430.321,494.470)">
    <g transform="rotate(-0.0)">
      <text x="0.000" y="0.000" font-family="Helvetica" text-anchor="middle" font-size="25pt" fill="#000000" >0.2</text>
    </g>
  </g>
      <polyline fill="none" stroke="#000000" stroke-width="0.5pt" stroke-dasharray="none" points="155.754,397.944 159.873,397.944 "/>
      <polyline fill="none" stroke="#000000" stroke-width="0.5pt" stroke-dasharray="none" points="155.754,339.108 159.873,339.108 "/>
      <polyline fill="none" stroke="#000000" stroke-width="0.5pt" stroke-dasharray="none" points="155.754,280.272 159.873,280.272 "/>
      <polyline fill="none" stroke="#000000" stroke-width="0.5pt" stroke-dasharray="none" points="155.754,221.436 159.873,221.436 "/>
      <polyline fill="none" stroke="#000000" stroke-width="0.5pt" stroke-dasharray="none" points="155.754,162.601 159.873,162.601 "/>
      <polyline fill="none" stroke="#000000" stroke-width="0.5pt" stroke-dasharray="none" points="155.754,103.765 159.873,103.765 "/>
      <polyline fill="none" stroke="#000000" stroke-width="0.5pt" stroke-dasharray="none" points="155.754,456.780 155.754,44.929 "/>
      <polyline fill="none" stroke="#000000" stroke-width="0.5pt" stroke-dasharray="none" points="567.605,397.944 563.486,397.944 "/>
      <polyline fill="none" stroke="#000000" stroke-width="0.5pt" stroke-dasharray="none" points="567.605,339.108 563.486,339.108 "/>
      <polyline fill="none" stroke="#000000" stroke-width="0.5pt" stroke-dasharray="none" points="567.605,280.272 563.486,280.272 "/>
      <polyline fill="none" stroke="#000000" stroke-width="0.5pt" stroke-dasharray="none" points="567.605,221.436 563.486,221.436 "/>
      <polyline fill="none" stroke="#000000" stroke-width="0.5pt" stroke-dasharray="none" points="567.605,162.601 563.486,162.601 "/>
      <polyline fill="none" stroke="#000000" stroke-width="0.5pt" stroke-dasharray="none" points="567.605,103.765 563.486,103.765 "/>
      <polyline fill="none" stroke="#000000" stroke-width="0.5pt" stroke-dasharray="none" points="567.605,456.780 567.605,44.929 "/>
      <polyline fill="none" stroke="#000000" stroke-width="0.5pt" stroke-dasharray="none" points="155.754,456.780 155.754,452.661 "/>
      <polyline fill="none" stroke="#000000" stroke-width="0.5pt" stroke-dasharray="none" points="155.754,456.780 155.754,456.780 "/>
    </g>
  </g>
  <g id ="ID000015">
  <clipPath id="ID000016">
    <rect x="444.831" y="51.803" width="117.398" height="136.670"/>
  </clipPath>
      <polygon fill="#ffffff" fill-opacity="1.00" stroke="none" stroke-width="0.5pt" stroke-opacity="1.00" stroke-dasharray="none" points="444.831,188.473 562.228,188.473 562.228,51.803 444.831,51.803 "/>
      <polygon fill="#ffffff" fill-opacity="1.00" stroke="none" stroke-width="0.5pt" stroke-opacity="1.00" stroke-dasharray="none" points="444.831,51.803 562.228,51.803 562.228,51.803 444.831,51.803 "/>
      <polygon fill="#ffffff" fill-opacity="1.00" stroke="none" stroke-width="0.5pt" stroke-opacity="1.00" stroke-dasharray="none" points="444.831,188.473 444.831,188.473 444.831,51.803 444.831,51.803 "/>
    <g>
<g id="ID000017" >
  <g transform="translate(494.163,82.470)">
    <g transform="rotate(-0.0)">
      <text x="0.000" y="0.000" font-family="Helvetica" text-anchor="start" font-size="25pt" fill="#000000" >S-T-</text>
    </g>
  </g>
</g>
<g id="ID000018" clip-path="url(#ID000016)" >
      <polyline fill="none" stroke="#3f3f3f" stroke-width="1.5pt" stroke-dasharray="none" points="452.331,70.528 489.831,70.528 "/>
<g>
</g>
</g>
<g id="ID000019" clip-path="url(#ID000016)" >
<g>
</g>
</g>
<g id="ID000020" >
  <g transform="translate(494.163,116.324)">
    <g transform="rotate(-0.0)">
      <text x="0.000" y="0.000" font-family="Helvetica" text-anchor="start" font-size="25pt" fill="#000000" >S+T-</text>
    </g>
  </g>
</g>
<g id="ID000021" clip-path="url(#ID000016)" >
      <polyline fill="none" stroke="#3f3f3f" stroke-width="1.5pt" stroke-dasharray="8.0,2.0" points="452.331,103.601 489.831,103.601 "/>
<g>
</g>
</g>
<g id="ID000022" clip-path="url(#ID000016)" >
<g>
</g>
</g>
<g id="ID000023" >
  <g transform="translate(494.163,148.925)">
    <g transform="rotate(-0.0)">
      <text x="0.000" y="0.000" font-family="Helvetica" text-anchor="start" font-size="25pt" fill="#000000" >S-T+</text>
    </g>
  </g>
</g>
<g id="ID000024" clip-path="url(#ID000016)" >
      <polyline fill="none" stroke="#3fbf3f" stroke-width="1.5pt" stroke-dasharray="none" points="452.331,136.675 489.831,136.675 "/>
<g>
</g>
</g>
<g id="ID000025" clip-path="url(#ID000016)" >
<g>
</g>
</g>
<g id="ID000026" >
  <g transform="translate(494.163,182.779)">
    <g transform="rotate(-0.0)">
      <text x="0.000" y="0.000" font-family="Helvetica" text-anchor="start" font-size="25pt" fill="#000000" >S+T+</text>
    </g>
  </g>
</g>
<g id="ID000027" clip-path="url(#ID000016)" >
      <polyline fill="none" stroke="#3fbf3f" stroke-width="1.5pt" stroke-dasharray="8.0,2.0" points="452.331,169.749 489.831,169.749 "/>
<g>
</g>
</g>
<g id="ID000028" clip-path="url(#ID000016)" >
<g>
</g>
</g>
<g id="ID000029" >
</g>
<g id="ID000030" >
</g>
<g id="ID000031" >
</g>
    </g>
    <g>
      <polyline fill="none" stroke="#000000" stroke-width="0.5pt" stroke-dasharray="none" points="444.831,188.473 562.228,188.473 "/>
      <polyline fill="none" stroke="#000000" stroke-width="0.5pt" stroke-dasharray="none" points="444.831,51.803 562.228,51.803 "/>
      <polyline fill="none" stroke="#000000" stroke-width="0.5pt" stroke-dasharray="none" points="444.831,188.473 444.831,51.803 "/>
      <polyline fill="none" stroke="#000000" stroke-width="0.5pt" stroke-dasharray="none" points="562.228,188.473 562.228,51.803 "/>
      <polyline fill="none" stroke="#000000" stroke-width="0.5pt" stroke-dasharray="none" points="444.831,188.473 444.831,187.107 "/>
      <polyline fill="none" stroke="#000000" stroke-width="0.5pt" stroke-dasharray="none" points="444.831,188.473 444.831,188.473 "/>
    </g>
  </g>
  </g>
</svg>
