<?xml version="1.0" encoding="utf-8" standalone="no"?><!DOCTYPE svg PUBLIC "-//W3C//DTD SVG 1.1//EN" "http://www.w3.org/Graphics/SVG/1.1/DTD/svg11.dtd">
<svg preserveAspectRatio="xMinYMin meet" width="100%" height="100%" viewBox="0 0 698.898 524.173"  version="1.1" xmlns="http://www.w3.org/2000/svg" xmlns:xlink="http://www.w3.org/1999/xlink">
  <desc>Matlab Figure Converted by PLOT2SVG written by Juerg Schwizer</desc>
  <g id="topgroup">
  <rect x="0" y="0" width="698.898" height="524.173" fill="#ffffff" stroke="none" />
  <g id ="ID000000">
  <clipPath id="ID000001">
    <rect x="155.754" y="44.929" width="411.850" height="411.850"/>
  </clipPath>
      <polygon fill="#ffffff" fill-opacity="1.00" stroke="none" stroke-width="0.5pt" stroke-opacity="1.00" stroke-dasharray="none" points="155.754,456.780 567.605,456.780 567.605,44.929 155.754,44.929 "/>
      <polygon fill="#ffffff" fill-opacity="1.00" stroke="none" stroke-width="0.5pt" stroke-opacity="1.00" stroke-dasharray="none" points="155.754,44.929 567.605,44.929 567.605,44.929 155.754,44.929 "/>
      <polygon fill="#ffffff" fill-opacity="1.00" stroke="none" stroke-width="0.5pt" stroke-opacity="1.00" stroke-dasharray="none" points="155.754,456.780 155.754,456.780 155.754,44.929 155.754,44.929 "/>
    <g>
<g id="ID000002" clip-path="url(#ID000001)" >
      <polyline fill="none" stroke="#3f3f3f" stroke-width="1.5pt" stroke-dasharray="none" points="155.754,380.338 160.147,361.904 164.540,342.755 168.934,322.872 173.327,302.839 177.720,282.975 182.113,263.965 186.506,246.139 190.899,228.781 195.292,211.863 199.685,196.280 204.078,181.761 208.471,168.039 212.864,155.418 217.257,143.877 221.650,134.230 226.043,125.912 230.437,118.849 234.830,113.227 239.223,108.896 243.616,106.403 248.009,105.475 252.402,105.941 256.795,107.790 261.188,111.960 265.581,117.660 269.974,125.209 274.367,134.392 278.760,145.406 283.153,157.585 287.546,170.981 291.940,185.530 296.333,201.429 300.726,218.911 305.119,237.591 309.512,256.430 313.905,275.186 318.298,293.863 322.691,311.453 327.084,328.298 331.477,343.747 335.870,357.501 340.263,370.200 344.656,381.697 349.049,391.349 353.443,399.029 357.836,405.046 362.229,409.556 366.622,413.184 371.015,416.076 375.408,417.889 379.801,419.278 384.194,420.324 388.587,420.464 392.980,421.188 397.373,422.168 401.766,423.395 406.159,425.254 410.552,426.930 414.946,428.908 419.339,430.868 423.732,432.803 428.125,435.122 432.518,436.993 436.911,438.970 441.304,440.302 445.697,441.042 450.090,441.861 454.483,442.348 458.876,442.575 463.269,442.530 467.662,442.738 472.055,443.088 476.449,443.609 480.842,444.273 485.235,444.435 489.628,445.245 494.021,446.400 498.414,447.599 502.807,448.397 507.200,449.179 511.593,449.390 515.986,449.056 520.379,448.688 524.772,447.839 529.165,446.118 533.558,444.021 537.951,440.774 542.345,436.841 546.738,433.207 551.131,428.579 555.524,423.197 559.917,417.655 564.310,412.516 "/>
<g>
</g>
</g>
<g id="ID000003" clip-path="url(#ID000001)" >
      <polyline fill="none" stroke="#3f3f3f" stroke-width="1.5pt" stroke-dasharray="8.0,2.0" points="155.754,384.014 160.147,364.711 164.540,345.277 168.934,325.336 173.327,305.596 177.720,285.710 182.113,266.797 186.506,249.067 190.899,232.819 195.292,217.531 199.685,203.757 204.078,191.388 208.471,179.975 212.864,170.199 217.257,161.455 221.650,154.218 226.043,147.977 230.437,143.162 234.830,139.935 239.223,138.140 243.616,137.396 248.009,138.001 252.402,140.388 256.795,144.564 261.188,150.054 265.581,156.981 269.974,165.561 274.367,175.671 278.760,187.226 283.153,200.389 287.546,214.505 291.940,230.259 296.333,246.766 300.726,264.484 305.119,282.059 309.512,298.758 313.905,315.867 318.298,331.059 322.691,345.191 327.084,357.236 331.477,368.090 335.870,377.768 340.263,386.853 344.656,394.227 349.049,400.481 353.443,405.881 357.836,410.362 362.229,414.407 366.622,418.322 371.015,421.630 375.408,424.490 379.801,426.677 384.194,427.941 388.587,429.271 392.980,430.774 397.373,432.032 401.766,433.228 406.159,433.781 410.552,434.749 414.946,435.213 419.339,435.577 423.732,436.673 428.125,437.812 432.518,439.190 436.911,440.647 441.304,442.083 445.697,443.398 450.090,444.806 454.483,446.295 458.876,448.035 463.269,449.942 467.662,450.958 472.055,451.848 476.449,452.964 480.842,454.035 485.235,454.025 489.628,453.483 494.021,452.889 498.414,452.788 502.807,451.941 507.200,450.583 511.593,448.871 515.986,446.902 520.379,444.874 524.772,442.452 529.165,439.741 533.558,436.903 537.951,433.870 542.345,429.943 546.738,425.116 551.131,420.252 555.524,415.512 559.917,410.900 564.310,406.617 "/>
<g>
</g>
</g>
<g id="ID000004" clip-path="url(#ID000001)" >
      <polyline fill="none" stroke="#3fbfbf" stroke-width="1.5pt" stroke-dasharray="none" points="155.754,390.963 160.147,372.451 164.540,351.746 168.934,330.152 173.327,308.693 177.720,287.271 182.113,266.508 186.506,246.025 190.899,227.049 195.292,209.528 199.685,193.038 204.078,177.736 208.471,164.108 212.864,151.292 217.257,139.875 221.650,129.892 226.043,120.904 230.437,112.473 234.830,105.028 239.223,98.537 243.616,92.585 248.009,87.139 252.402,82.634 256.795,78.823 261.188,76.033 265.581,74.097 269.974,73.030 274.367,74.212 278.760,76.985 283.153,81.214 287.546,86.090 291.940,91.527 296.333,97.902 300.726,105.085 305.119,112.846 309.512,121.553 313.905,130.671 318.298,138.959 322.691,147.137 327.084,155.481 331.477,163.463 335.870,170.392 340.263,176.617 344.656,181.563 349.049,185.993 353.443,189.892 357.836,192.952 362.229,195.403 366.622,198.095 371.015,200.736 375.408,203.132 379.801,205.187 384.194,207.460 388.587,209.756 392.980,212.078 397.373,214.070 401.766,216.427 406.159,218.498 410.552,221.120 414.946,224.481 419.339,228.028 423.732,231.119 428.125,234.110 432.518,236.805 436.911,239.327 441.304,241.641 445.697,244.413 450.090,246.694 454.483,248.473 458.876,250.273 463.269,251.296 467.662,252.147 472.055,252.923 476.449,253.601 480.842,254.248 485.235,255.358 489.628,256.010 494.021,256.431 498.414,257.135 502.807,257.300 507.200,257.107 511.593,256.741 515.986,256.684 520.379,256.563 524.772,256.474 529.165,255.677 533.558,255.075 537.951,254.979 542.345,255.105 546.738,255.996 551.131,256.989 555.524,258.824 559.917,261.157 564.310,264.035 "/>
<g>
</g>
</g>
<g id="ID000005" clip-path="url(#ID000001)" >
      <polyline fill="none" stroke="#3fbfbf" stroke-width="1.5pt" stroke-dasharray="8.0,2.0" points="155.754,382.181 160.147,361.628 164.540,339.914 168.934,318.729 173.327,297.477 177.720,277.352 182.113,257.483 186.506,238.869 190.899,222.387 195.292,206.977 199.685,192.845 204.078,180.109 208.471,168.808 212.864,158.146 217.257,148.645 221.650,140.071 226.043,132.694 230.437,126.427 234.830,121.150 239.223,116.893 243.616,113.858 248.009,111.596 252.402,110.397 256.795,110.195 261.188,111.536 265.581,113.773 269.974,117.440 274.367,122.063 278.760,127.548 283.153,134.235 287.546,141.683 291.940,150.115 296.333,158.601 300.726,167.473 305.119,176.270 309.512,185.142 313.905,194.079 318.298,201.618 322.691,208.460 327.084,214.541 331.477,220.531 335.870,225.676 340.263,230.977 344.656,234.335 349.049,236.641 353.443,238.271 357.836,238.634 362.229,239.248 366.622,239.597 371.015,240.042 375.408,240.572 379.801,240.986 384.194,241.537 388.587,241.997 392.980,242.317 397.373,243.312 401.766,244.204 406.159,245.688 410.552,246.993 414.946,248.010 419.339,249.281 423.732,250.409 428.125,251.584 432.518,251.905 436.911,252.142 441.304,252.562 445.697,253.548 450.090,254.736 454.483,255.666 458.876,257.039 463.269,258.112 467.662,259.199 472.055,259.918 476.449,260.173 480.842,260.285 485.235,260.905 489.628,261.976 494.021,262.979 498.414,263.738 502.807,264.474 507.200,264.773 511.593,264.581 515.986,264.243 520.379,264.121 524.772,263.741 529.165,263.512 533.558,263.742 537.951,264.586 542.345,265.462 546.738,266.651 551.131,268.699 555.524,271.123 559.917,273.710 564.310,276.804 "/>
<g>
</g>
</g>
<g id="ID000006" clip-path="url(#ID000001)" >
      <polygon fill="#000000" fill-opacity="0.10" stroke="#000000" stroke-width="0.5pt" stroke-opacity="0.10" stroke-dasharray="none" points="269.974,44.929 564.310,44.929 564.310,456.780 269.974,456.780 "/>
</g>
<g id="ID000007" clip-path="url(#ID000001)" >
      <polyline fill="none" stroke="#000000" stroke-width="0.5pt" stroke-dasharray="none" points="155.754,456.780 155.754,44.929 "/>
<g>
</g>
</g>
<g id="ID000008" clip-path="url(#ID000001)" >
      <polyline fill="none" stroke="#000000" stroke-width="0.5pt" stroke-dasharray="none" points="155.754,559.742 595.061,559.742 "/>
<g>
</g>
</g>
<g id="ID000009" >
  <g transform="translate(361.056,516.061)">
    <g transform="rotate(-0.0)">
      <text x="0.000" y="0.000" font-family="Helvetica" text-anchor="middle" font-size="25pt" fill="#000000" >Time (seconds)</text>
    </g>
  </g>
</g>
<g id="ID000010" >
  <g transform="translate(102.713,251.478)">
    <g transform="rotate(-90.0)">
      <text x="0.000" y="0.000" font-family="Helvetica" text-anchor="middle" font-size="25pt" fill="#000000" >ITC</text>
    </g>
  </g>
</g>
<g id="ID000011" >
  <g transform="translate(361.056,24.337)">
    <g transform="rotate(-0.0)">
      <text x="0.000" y="0.000" font-family="Helvetica" text-anchor="middle" font-size="25pt" fill="#000000" >10Time effect</text>
    </g>
  </g>
</g>
<g id="ID000012" >
</g>
<g id="ID000013" >
</g>
    </g>
    <g>
      <polyline fill="none" stroke="#000000" stroke-width="0.5pt" stroke-dasharray="none" points="265.581,456.780 265.581,451.363 "/>
      <polyline fill="none" stroke="#000000" stroke-width="0.5pt" stroke-dasharray="none" points="375.408,456.780 375.408,451.363 "/>
      <polyline fill="none" stroke="#000000" stroke-width="0.5pt" stroke-dasharray="none" points="485.235,456.780 485.235,451.363 "/>
      <polyline fill="none" stroke="#000000" stroke-width="0.5pt" stroke-dasharray="none" points="155.754,456.780 567.605,456.780 "/>
      <polyline fill="none" stroke="#000000" stroke-width="0.5pt" stroke-dasharray="none" points="265.581,44.929 265.581,50.346 "/>
      <polyline fill="none" stroke="#000000" stroke-width="0.5pt" stroke-dasharray="none" points="375.408,44.929 375.408,50.346 "/>
      <polyline fill="none" stroke="#000000" stroke-width="0.5pt" stroke-dasharray="none" points="485.235,44.929 485.235,50.346 "/>
      <polyline fill="none" stroke="#000000" stroke-width="0.5pt" stroke-dasharray="none" points="155.754,44.929 567.605,44.929 "/>
  <g transform="translate(155.754,494.470)">
    <g transform="rotate(-0.0)">
      <text x="0.000" y="0.000" font-family="Helvetica" text-anchor="middle" font-size="25pt" fill="#000000" >0</text>
    </g>
  </g>
  <g transform="translate(265.581,494.470)">
    <g transform="rotate(-0.0)">
      <text x="0.000" y="0.000" font-family="Helvetica" text-anchor="middle" font-size="25pt" fill="#000000" >0.2</text>
    </g>
  </g>
  <g transform="translate(375.408,494.470)">
    <g transform="rotate(-0.0)">
      <text x="0.000" y="0.000" font-family="Helvetica" text-anchor="middle" font-size="25pt" fill="#000000" >0.4</text>
    </g>
  </g>
  <g transform="translate(485.235,494.470)">
    <g transform="rotate(-0.0)">
      <text x="0.000" y="0.000" font-family="Helvetica" text-anchor="middle" font-size="25pt" fill="#000000" >0.6</text>
    </g>
  </g>
      <polyline fill="none" stroke="#000000" stroke-width="0.5pt" stroke-dasharray="none" points="155.754,353.817 159.873,353.817 "/>
      <polyline fill="none" stroke="#000000" stroke-width="0.5pt" stroke-dasharray="none" points="155.754,250.854 159.873,250.854 "/>
      <polyline fill="none" stroke="#000000" stroke-width="0.5pt" stroke-dasharray="none" points="155.754,147.892 159.873,147.892 "/>
      <polyline fill="none" stroke="#000000" stroke-width="0.5pt" stroke-dasharray="none" points="155.754,456.780 155.754,44.929 "/>
      <polyline fill="none" stroke="#000000" stroke-width="0.5pt" stroke-dasharray="none" points="567.605,353.817 563.486,353.817 "/>
      <polyline fill="none" stroke="#000000" stroke-width="0.5pt" stroke-dasharray="none" points="567.605,250.854 563.486,250.854 "/>
      <polyline fill="none" stroke="#000000" stroke-width="0.5pt" stroke-dasharray="none" points="567.605,147.892 563.486,147.892 "/>
      <polyline fill="none" stroke="#000000" stroke-width="0.5pt" stroke-dasharray="none" points="567.605,456.780 567.605,44.929 "/>
  <g transform="translate(147.517,468.012)">
    <g transform="rotate(-0.0)">
      <text x="0.000" y="0.000" font-family="Helvetica" text-anchor="end" font-size="25pt" fill="#000000" >0.1</text>
    </g>
  </g>
  <g transform="translate(147.517,365.049)">
    <g transform="rotate(-0.0)">
      <text x="0.000" y="0.000" font-family="Helvetica" text-anchor="end" font-size="25pt" fill="#000000" >0.2</text>
    </g>
  </g>
  <g transform="translate(147.517,262.087)">
    <g transform="rotate(-0.0)">
      <text x="0.000" y="0.000" font-family="Helvetica" text-anchor="end" font-size="25pt" fill="#000000" >0.3</text>
    </g>
  </g>
  <g transform="translate(147.517,159.124)">
    <g transform="rotate(-0.0)">
      <text x="0.000" y="0.000" font-family="Helvetica" text-anchor="end" font-size="25pt" fill="#000000" >0.4</text>
    </g>
  </g>
  <g transform="translate(147.517,56.161)">
    <g transform="rotate(-0.0)">
      <text x="0.000" y="0.000" font-family="Helvetica" text-anchor="end" font-size="25pt" fill="#000000" >0.5</text>
    </g>
  </g>
      <polyline fill="none" stroke="#000000" stroke-width="0.5pt" stroke-dasharray="none" points="155.754,456.780 155.754,452.661 "/>
      <polyline fill="none" stroke="#000000" stroke-width="0.5pt" stroke-dasharray="none" points="155.754,456.780 155.754,456.780 "/>
    </g>
  </g>
  <g id ="ID000014">
  <clipPath id="ID000015">
    <rect x="444.831" y="51.803" width="117.398" height="136.670"/>
  </clipPath>
      <polygon fill="#ffffff" fill-opacity="1.00" stroke="none" stroke-width="0.5pt" stroke-opacity="1.00" stroke-dasharray="none" points="444.831,188.473 562.228,188.473 562.228,51.803 444.831,51.803 "/>
      <polygon fill="#ffffff" fill-opacity="1.00" stroke="none" stroke-width="0.5pt" stroke-opacity="1.00" stroke-dasharray="none" points="444.831,51.803 562.228,51.803 562.228,51.803 444.831,51.803 "/>
      <polygon fill="#ffffff" fill-opacity="1.00" stroke="none" stroke-width="0.5pt" stroke-opacity="1.00" stroke-dasharray="none" points="444.831,188.473 444.831,188.473 444.831,51.803 444.831,51.803 "/>
    <g>
<g id="ID000016" >
  <g transform="translate(494.163,82.470)">
    <g transform="rotate(-0.0)">
      <text x="0.000" y="0.000" font-family="Helvetica" text-anchor="start" font-size="25pt" fill="#000000" >S-T-</text>
    </g>
  </g>
</g>
<g id="ID000017" clip-path="url(#ID000015)" >
      <polyline fill="none" stroke="#3f3f3f" stroke-width="1.5pt" stroke-dasharray="none" points="452.331,70.528 489.831,70.528 "/>
<g>
</g>
</g>
<g id="ID000018" clip-path="url(#ID000015)" >
<g>
</g>
</g>
<g id="ID000019" >
  <g transform="translate(494.163,116.324)">
    <g transform="rotate(-0.0)">
      <text x="0.000" y="0.000" font-family="Helvetica" text-anchor="start" font-size="25pt" fill="#000000" >S+T-</text>
    </g>
  </g>
</g>
<g id="ID000020" clip-path="url(#ID000015)" >
      <polyline fill="none" stroke="#3f3f3f" stroke-width="1.5pt" stroke-dasharray="8.0,2.0" points="452.331,103.601 489.831,103.601 "/>
<g>
</g>
</g>
<g id="ID000021" clip-path="url(#ID000015)" >
<g>
</g>
</g>
<g id="ID000022" >
  <g transform="translate(494.163,148.925)">
    <g transform="rotate(-0.0)">
      <text x="0.000" y="0.000" font-family="Helvetica" text-anchor="start" font-size="25pt" fill="#000000" >S-T+</text>
    </g>
  </g>
</g>
<g id="ID000023" clip-path="url(#ID000015)" >
      <polyline fill="none" stroke="#3fbfbf" stroke-width="1.5pt" stroke-dasharray="none" points="452.331,136.675 489.831,136.675 "/>
<g>
</g>
</g>
<g id="ID000024" clip-path="url(#ID000015)" >
<g>
</g>
</g>
<g id="ID000025" >
  <g transform="translate(494.163,182.779)">
    <g transform="rotate(-0.0)">
      <text x="0.000" y="0.000" font-family="Helvetica" text-anchor="start" font-size="25pt" fill="#000000" >S+T+</text>
    </g>
  </g>
</g>
<g id="ID000026" clip-path="url(#ID000015)" >
      <polyline fill="none" stroke="#3fbfbf" stroke-width="1.5pt" stroke-dasharray="8.0,2.0" points="452.331,169.749 489.831,169.749 "/>
<g>
</g>
</g>
<g id="ID000027" clip-path="url(#ID000015)" >
<g>
</g>
</g>
<g id="ID000028" >
</g>
<g id="ID000029" >
</g>
<g id="ID000030" >
</g>
    </g>
    <g>
      <polyline fill="none" stroke="#000000" stroke-width="0.5pt" stroke-dasharray="none" points="444.831,188.473 562.228,188.473 "/>
      <polyline fill="none" stroke="#000000" stroke-width="0.5pt" stroke-dasharray="none" points="444.831,51.803 562.228,51.803 "/>
      <polyline fill="none" stroke="#000000" stroke-width="0.5pt" stroke-dasharray="none" points="444.831,188.473 444.831,51.803 "/>
      <polyline fill="none" stroke="#000000" stroke-width="0.5pt" stroke-dasharray="none" points="562.228,188.473 562.228,51.803 "/>
      <polyline fill="none" stroke="#000000" stroke-width="0.5pt" stroke-dasharray="none" points="444.831,188.473 444.831,187.107 "/>
      <polyline fill="none" stroke="#000000" stroke-width="0.5pt" stroke-dasharray="none" points="444.831,188.473 444.831,188.473 "/>
    </g>
  </g>
  </g>
</svg>
