<?xml version="1.0" encoding="UTF-8" standalone="no"?>
<svg
   xmlns:dc="http://purl.org/dc/elements/1.1/"
   xmlns:cc="http://creativecommons.org/ns#"
   xmlns:rdf="http://www.w3.org/1999/02/22-rdf-syntax-ns#"
   xmlns:svg="http://www.w3.org/2000/svg"
   xmlns="http://www.w3.org/2000/svg"
   xmlns:sodipodi="http://sodipodi.sourceforge.net/DTD/sodipodi-0.dtd"
   xmlns:inkscape="http://www.inkscape.org/namespaces/inkscape"
   version="1.1"
   width="400px"
   height="400px"
   viewBox="0 0 1000.0 1000.0"
   id="svg2"
   inkscape:version="0.48.2 r9819"
   sodipodi:docname="fig_tea_vs_coffee_sugar_pack_clust.svg">
  <metadata
     id="metadata118">
    <rdf:RDF>
      <cc:Work
         rdf:about="">
        <dc:format>image/svg+xml</dc:format>
        <dc:type
           rdf:resource="http://purl.org/dc/dcmitype/StillImage" />
      </cc:Work>
    </rdf:RDF>
  </metadata>
  <defs
     id="defs116" />
  <sodipodi:namedview
     pagecolor="#ffffff"
     bordercolor="#666666"
     borderopacity="1"
     objecttolerance="10"
     gridtolerance="10"
     guidetolerance="10"
     inkscape:pageopacity="0"
     inkscape:pageshadow="2"
     inkscape:window-width="1316"
     inkscape:window-height="1117"
     id="namedview114"
     showgrid="false"
     inkscape:zoom="2.0725"
     inkscape:cx="200"
     inkscape:cy="200"
     inkscape:window-x="0"
     inkscape:window-y="0"
     inkscape:window-maximized="0"
     inkscape:current-layer="svg2" />
  <rect
     style="fill:#ffffff;stroke:#ffffff;stroke-width:1;stroke-linejoin:round;stroke-miterlimit:4;stroke-opacity:1;stroke-dasharray:none;stroke-dashoffset:0"
     id="rect3095"
     width="352.2316"
     height="347.88904"
     x="10.13269"
     y="44.873341"
     transform="scale(2.5,2.5)" />
  <path
     stroke="#000000"
     stroke-width="2"
     fill="none"
     d="M 147.8,861.7 L 147.8,151.0 L 858.5,151.0 L 858.5,861.7 L 147.8,861.7 "
     id="path4" />
  <g
     id="g6">
    <text
       x="503.2"
       y="957.7"
       font-family="Arial"
       font-size="36.0"
       fill="#000000"
       text-anchor="middle"
       id="text8">
X
</text>
    <text
       x="147.8"
       y="922.2"
       font-family="Arial"
       font-size="36.0"
       fill="#000000"
       text-anchor="middle"
       id="text10">
0
</text>
    <text
       x="226.8"
       y="922.2"
       font-family="Arial"
       font-size="36.0"
       fill="#000000"
       text-anchor="middle"
       id="text12">
2
</text>
    <text
       x="305.8"
       y="922.2"
       font-family="Arial"
       font-size="36.0"
       fill="#000000"
       text-anchor="middle"
       id="text14">
4
</text>
    <text
       x="384.7"
       y="922.2"
       font-family="Arial"
       font-size="36.0"
       fill="#000000"
       text-anchor="middle"
       id="text16">
6
</text>
    <text
       x="463.7"
       y="922.2"
       font-family="Arial"
       font-size="36.0"
       fill="#000000"
       text-anchor="middle"
       id="text18">
8
</text>
    <text
       x="542.7"
       y="922.2"
       font-family="Arial"
       font-size="36.0"
       fill="#000000"
       text-anchor="middle"
       id="text20">
10
</text>
    <text
       x="621.6"
       y="922.2"
       font-family="Arial"
       font-size="36.0"
       fill="#000000"
       text-anchor="middle"
       id="text22">
12
</text>
    <text
       x="700.6"
       y="922.2"
       font-family="Arial"
       font-size="36.0"
       fill="#000000"
       text-anchor="middle"
       id="text24">
14
</text>
    <text
       x="779.6"
       y="922.2"
       font-family="Arial"
       font-size="36.0"
       fill="#000000"
       text-anchor="middle"
       id="text26">
16
</text>
    <text
       x="858.5"
       y="922.2"
       font-family="Arial"
       font-size="36.0"
       fill="#000000"
       text-anchor="middle"
       id="text28">
18
</text>
    <path
       stroke="#000000"
       stroke-width="2"
       fill="none"
       d="M 147.8,861.7 L 858.5,861.7 M 147.8,879.5 L 147.8,844.0 M 226.8,879.5 L 226.8,844.0 M 305.8,879.5 L 305.8,844.0 M 384.7,879.5 L 384.7,844.0 M 463.7,879.5 L 463.7,844.0 M 542.7,879.5 L 542.7,844.0 M 621.6,879.5 L 621.6,844.0 M 700.6,879.5 L 700.6,844.0 M 779.6,879.5 L 779.6,844.0 M 858.5,879.5 L 858.5,844.0 "
       id="path30" />
    <path
       stroke="#000000"
       stroke-width="2"
       fill="none"
       d="M 147.8,151.0 L 858.5,151.0 M 147.8,168.8 L 147.8,133.3 M 226.8,168.8 L 226.8,133.3 M 305.8,168.8 L 305.8,133.3 M 384.7,168.8 L 384.7,133.3 M 463.7,168.8 L 463.7,133.3 M 542.7,168.8 L 542.7,133.3 M 621.6,168.8 L 621.6,133.3 M 700.6,168.8 L 700.6,133.3 M 779.6,168.8 L 779.6,133.3 M 858.5,168.8 L 858.5,133.3 "
       id="path32" />
    <text
       x="59.0"
       y="506.4"
       font-family="Arial"
       font-size="36.0"
       fill="#000000"
       writing-mode="tb"
       text-anchor="middle"
       id="text34">
Y
</text>
    <text
       x="122.9"
       y="846.3"
       font-family="Arial"
       font-size="36.0"
       fill="#000000"
       text-anchor="end"
       id="text36">
0
</text>
    <text
       x="122.9"
       y="698.3"
       font-family="Arial"
       font-size="36.0"
       fill="#000000"
       text-anchor="end"
       id="text38">
5
</text>
    <text
       x="122.9"
       y="550.2"
       font-family="Arial"
       font-size="36.0"
       fill="#000000"
       text-anchor="end"
       id="text40">
10
</text>
    <text
       x="122.9"
       y="402.2"
       font-family="Arial"
       font-size="36.0"
       fill="#000000"
       text-anchor="end"
       id="text42">
15
</text>
    <text
       x="122.9"
       y="254.1"
       font-family="Arial"
       font-size="36.0"
       fill="#000000"
       text-anchor="end"
       id="text44">
20
</text>
    <path
       stroke="#000000"
       stroke-width="2"
       fill="none"
       d="M 147.8,861.7 L 147.8,151.0 M 130.1,832.1 L 165.6,832.1 M 130.1,684.1 L 165.6,684.1 M 130.1,536.0 L 165.6,536.0 M 130.1,387.9 L 165.6,387.9 M 130.1,239.9 L 165.6,239.9 "
       id="path46" />
    <path
       stroke="#000000"
       stroke-width="2"
       fill="none"
       d="M 858.5,861.7 L 858.5,151.0 M 840.8,832.1 L 876.3,832.1 M 840.8,684.1 L 876.3,684.1 M 840.8,536.0 L 876.3,536.0 M 840.8,387.9 L 876.3,387.9 M 840.8,239.9 L 876.3,239.9 "
       id="path48" />
  </g>
  <g
     id="g64">
    <path
       stroke="#000000"
       stroke-width="4"
       fill="none"
       d="M 147.8,700.3  L 147.8,700.3 L 147.8,700.3 L 147.8,700.3 L 147.8,802.5 L 236.9,802.5 L 236.9,817.3 L 305.6,817.3 M 236.9,817.3 L 236.9,817.3 L 236.9,802.5  L 236.9,787.7 L 305.6,787.7 M 236.9,787.7 L 236.9,787.7 L 236.9,802.5 M 147.8,802.5 L 147.8,700.3 L 147.8,598.0 L 236.9,598.0 L 236.9,698.9  L 321.1,698.9 L 321.1,743.3 L 401.0,743.3 L 401.0,758.1 L 402.9,758.1 M 401.0,758.1 L 401.0,758.1 L 401.0,743.3 L 401.0,728.5 L 402.9,728.5  M 401.0,728.5 L 401.0,728.5 L 401.0,743.3 M 321.1,743.3 L 321.1,698.9 L 321.1,654.5 L 401.0,654.5 M 401.0,684.1 L 468.2,684.1 L 468.2,698.9  L 486.4,698.9 M 468.2,698.9 L 468.2,698.9 L 468.2,684.1 L 468.2,669.3 L 486.4,669.3 M 468.2,669.3 L 468.2,669.3 L 468.2,684.1 M 401.0,684.1  L 401.0,654.5 M 401.0,624.8 L 468.2,624.8 L 468.2,639.7 L 494.3,639.7 M 468.2,639.7 L 468.2,639.7 L 468.2,624.8 L 468.2,610.0 L 494.3,610.0  M 468.2,610.0 L 468.2,610.0 L 468.2,624.8 M 401.0,624.8 L 401.0,654.5 M 321.1,654.5 L 321.1,698.9 M 236.9,698.9 L 236.9,598.0 L 236.9,497.1  L 321.1,497.1 L 321.1,565.6 L 403.0,565.6 L 403.0,580.4 L 435.1,580.4 M 403.0,580.4 L 403.0,580.4 L 403.0,565.6 L 403.0,550.8 L 435.1,550.8  M 403.0,550.8 L 403.0,550.8 L 403.0,565.6 M 321.1,565.6 L 321.1,497.1 L 321.1,428.7 L 403.0,428.7 M 403.0,506.4 L 480.3,506.4 L 480.3,521.2  L 506.0,521.2 M 480.3,521.2 L 480.3,521.2 L 480.3,506.4 L 480.3,491.6 L 506.0,491.6 M 480.3,491.6 L 480.3,491.6 L 480.3,506.4 M 403.0,506.4  L 403.0,428.7 M 403.0,350.9 L 480.3,350.9 L 480.3,417.6 L 553.8,417.6 L 553.8,447.2 L 616.6,447.2 L 616.6,462.0 L 623.1,462.0 M 616.6,462.0  L 616.6,462.0 L 616.6,447.2 L 616.6,432.4 L 623.1,432.4 M 616.6,432.4 L 616.6,432.4 L 616.6,447.2 M 553.8,447.2 M 553.8,417.6 L 553.8,387.9  L 616.6,387.9 L 616.6,402.8 L 637.3,402.8 M 616.6,402.8 L 616.6,402.8 L 616.6,387.9 L 616.6,373.1 L 637.3,373.1 M 616.6,373.1 L 616.6,373.1  L 616.6,387.9 M 553.8,387.9 M 553.8,417.6 M 480.3,417.6 L 480.3,350.9 L 480.3,284.3 L 553.8,284.3 L 553.8,328.7 L 623.2,328.7 L 623.2,343.5  L 634.0,343.5 M 623.2,343.5 L 623.2,343.5 L 623.2,328.7 L 623.2,313.9 L 634.0,313.9 M 623.2,313.9 L 623.2,313.9 L 623.2,328.7 M 553.8,328.7  L 553.8,284.3 L 553.8,239.9 L 623.2,239.9 L 623.2,269.5 L 683.3,269.5 L 683.3,284.3 L 685.4,284.3 M 683.3,284.3 L 683.3,284.3 L 683.3,269.5  L 683.3,254.7 L 685.4,254.7 M 683.3,254.7 L 683.3,254.7 L 683.3,269.5 M 623.2,269.5 L 623.2,239.9 L 623.2,210.3 L 683.3,210.3 L 683.3,225.1  L 686.9,225.1 M 683.3,225.1 L 683.3,225.1 L 683.3,210.3 L 683.3,195.5 L 686.9,195.5 M 683.3,195.5 L 683.3,195.5 L 683.3,210.3 M 623.2,210.3  L 623.2,239.9 M 553.8,239.9 L 553.8,284.3 M 480.3,284.3 L 480.3,350.9 M 403.0,350.9 L 403.0,428.7 M 321.1,428.7 L 321.1,497.1 M 236.9,497.1  L 236.9,598.0 M 147.8,598.0 L 147.8,700.3 L 147.8,700.3 L 147.8,700.3 L 147.8,700.3 "
       id="path66" />
    <g
       id="g68">
      <text
         x="305.6"
         y="831.5"
         font-family="Arial"
         font-size="28.8"
         fill="#ff0000"
         text-anchor="start"
         id="text70">
t_fix_pkt
</text>
      <text
         x="305.6"
         y="801.9"
         font-family="Arial"
         font-size="28.8"
         fill="#ff0000"
         text-anchor="start"
         id="text72">
c_fix_pkt
</text>
      <text
         x="402.9"
         y="772.3"
         font-family="Arial"
         font-size="28.8"
         fill="#ff0000"
         text-anchor="start"
         id="text74">
t_stir
</text>
      <text
         x="402.9"
         y="742.7"
         font-family="Arial"
         font-size="28.8"
         fill="#ff0000"
         text-anchor="start"
         id="text76">
c_stir
</text>
      <text
         x="486.4"
         y="713.1"
         font-family="Arial"
         font-size="28.8"
         fill="#ff0000"
         text-anchor="start"
         id="text78">
t_pour_pkt
</text>
      <text
         x="486.4"
         y="683.5"
         font-family="Arial"
         font-size="28.8"
         fill="#ff0000"
         text-anchor="start"
         id="text80">
c_pour_pkt
</text>
      <text
         x="494.3"
         y="653.9"
         font-family="Arial"
         font-size="28.8"
         fill="#ff0000"
         text-anchor="start"
         id="text82">
t_open_pkt
</text>
      <text
         x="494.3"
         y="624.3"
         font-family="Arial"
         font-size="28.8"
         fill="#ff0000"
         text-anchor="start"
         id="text84">
c_open_pkt
</text>
      <text
         x="435.1"
         y="594.6"
         font-family="Arial"
         font-size="28.8"
         fill="#ff0000"
         text-anchor="start"
         id="text86">
t_dn_spn
</text>
      <text
         x="435.1"
         y="565.0"
         font-family="Arial"
         font-size="28.8"
         fill="#ff0000"
         text-anchor="start"
         id="text88">
c_dn_spn
</text>
      <text
         x="506.0"
         y="535.4"
         font-family="Arial"
         font-size="28.8"
         fill="#ff0000"
         text-anchor="start"
         id="text90">
t_pick_pkt
</text>
      <text
         x="506.0"
         y="505.8"
         font-family="Arial"
         font-size="28.8"
         fill="#ff0000"
         text-anchor="start"
         id="text92">
c_pick_pkt
</text>
      <text
         x="623.1"
         y="476.2"
         font-family="Arial"
         font-size="28.8"
         fill="#ff0000"
         text-anchor="start"
         id="text94">
t_dn_pkt
</text>
      <text
         x="623.1"
         y="446.6"
         font-family="Arial"
         font-size="28.8"
         fill="#ff0000"
         text-anchor="start"
         id="text96">
c_dn_pkt
</text>
      <text
         x="637.3"
         y="417.0"
         font-family="Arial"
         font-size="28.8"
         fill="#ff0000"
         text-anchor="start"
         id="text98">
t_fix_cup
</text>
      <text
         x="637.3"
         y="387.4"
         font-family="Arial"
         font-size="28.8"
         fill="#ff0000"
         text-anchor="start"
         id="text100">
c_fix_cup
</text>
      <text
         x="634.0"
         y="357.7"
         font-family="Arial"
         font-size="28.8"
         fill="#ff0000"
         text-anchor="start"
         id="text102">
t_fix_spn
</text>
      <text
         x="634.0"
         y="328.1"
         font-family="Arial"
         font-size="28.8"
         fill="#ff0000"
         text-anchor="start"
         id="text104">
c_fix_spn
</text>
      <text
         x="685.4"
         y="298.5"
         font-family="Arial"
         font-size="28.8"
         fill="#ff0000"
         text-anchor="start"
         id="text106">
t_fix_cup
</text>
      <text
         x="685.4"
         y="268.9"
         font-family="Arial"
         font-size="28.8"
         fill="#ff0000"
         text-anchor="start"
         id="text108">
c_fix_cup
</text>
      <text
         x="686.9"
         y="239.3"
         font-family="Arial"
         font-size="28.8"
         fill="#ff0000"
         text-anchor="start"
         id="text110">
t_pick_spn
</text>
      <text
         x="686.9"
         y="209.7"
         font-family="Arial"
         font-size="28.8"
         fill="#ff0000"
         text-anchor="start"
         id="text112">
c_pick_spn
</text>
    </g>
  </g>
</svg>
