<?xml version="1.0" encoding="UTF-8" standalone="no"?>
<svg
  xmlns="http://www.w3.org/2000/svg" version="1.1"
  width="400px"
  height="400px"
  viewBox="0 0 1000.0 1000.0">
<path stroke="#000000" stroke-width="2" fill="none"
  d="M 136.8,772.6 L 136.8,170.1 L 739.3,170.1 L 739.3,772.6 L 136.8,772.6 "
 />

<g>

<text x="438.1" y="854.0" font-family="Arial" font-size="30.5" fill="#000000" text-anchor="middle">
x prjn
</text>

<text x="136.8" y="823.8" font-family="Arial" font-size="30.5" fill="#000000" text-anchor="middle">
-3
</text>

<text x="237.2" y="823.8" font-family="Arial" font-size="30.5" fill="#000000" text-anchor="middle">
-2
</text>

<text x="337.6" y="823.8" font-family="Arial" font-size="30.5" fill="#000000" text-anchor="middle">
-1
</text>

<text x="438.1" y="823.8" font-family="Arial" font-size="30.5" fill="#000000" text-anchor="middle">
0
</text>

<text x="538.5" y="823.8" font-family="Arial" font-size="30.5" fill="#000000" text-anchor="middle">
1
</text>

<text x="638.9" y="823.8" font-family="Arial" font-size="30.5" fill="#000000" text-anchor="middle">
2
</text>

<text x="739.3" y="823.8" font-family="Arial" font-size="30.5" fill="#000000" text-anchor="middle">
3
</text>
<path stroke="#000000" stroke-width="2" fill="none"
  d="M 136.8,772.6 L 739.3,772.6 M 136.8,787.7 L 136.8,757.6 M 237.2,787.7 L 237.2,757.6 M 337.6,787.7 L 337.6,757.6 M 438.1,787.7 L 438.1,757.6 M 538.5,787.7 L 538.5,757.6 M 638.9,787.7 L 638.9,757.6 M 739.3,787.7 L 739.3,757.6 "
 />
<path stroke="#000000" stroke-width="2" fill="none"
  d="M 136.8,170.1 L 739.3,170.1 M 136.8,185.2 L 136.8,155.0 M 237.2,185.2 L 237.2,155.0 M 337.6,185.2 L 337.6,155.0 M 438.1,185.2 L 438.1,155.0 M 538.5,185.2 L 538.5,155.0 M 638.9,185.2 L 638.9,155.0 M 739.3,185.2 L 739.3,155.0 "
 />

<text x="61.5" y="471.4" font-family="Arial" font-size="30.5" fill="#000000" writing-mode="tb" text-anchor="middle">
y prjn
</text>

<text x="115.7" y="784.7" font-family="Arial" font-size="30.5" fill="#000000" text-anchor="end">
-2
</text>

<text x="115.7" y="709.4" font-family="Arial" font-size="30.5" fill="#000000" text-anchor="end">
-1.5
</text>

<text x="115.7" y="634.0" font-family="Arial" font-size="30.5" fill="#000000" text-anchor="end">
-1
</text>

<text x="115.7" y="558.7" font-family="Arial" font-size="30.5" fill="#000000" text-anchor="end">
-0.5
</text>

<text x="115.7" y="483.4" font-family="Arial" font-size="30.5" fill="#000000" text-anchor="end">
0
</text>

<text x="115.7" y="408.1" font-family="Arial" font-size="30.5" fill="#000000" text-anchor="end">
0.5
</text>

<text x="115.7" y="332.8" font-family="Arial" font-size="30.5" fill="#000000" text-anchor="end">
1
</text>

<text x="115.7" y="257.5" font-family="Arial" font-size="30.5" fill="#000000" text-anchor="end">
1.5
</text>

<text x="115.7" y="182.1" font-family="Arial" font-size="30.5" fill="#000000" text-anchor="end">
2
</text>
<path stroke="#000000" stroke-width="2" fill="none"
  d="M 136.8,772.6 L 136.8,170.1 M 121.7,772.6 L 151.9,772.6 M 121.7,697.3 L 151.9,697.3 M 121.7,622.0 L 151.9,622.0 M 121.7,546.7 L 151.9,546.7 M 121.7,471.4 L 151.9,471.4 M 121.7,396.0 L 151.9,396.0 M 121.7,320.7 L 151.9,320.7 M 121.7,245.4 L 151.9,245.4 M 121.7,170.1 L 151.9,170.1 "
 />
<path stroke="#000000" stroke-width="2" fill="none"
  d="M 739.3,772.6 L 739.3,170.1 M 724.3,772.6 L 754.4,772.6 M 724.3,697.3 L 754.4,697.3 M 724.3,622.0 L 754.4,622.0 M 724.3,546.7 L 754.4,546.7 M 724.3,471.4 L 754.4,471.4 M 724.3,396.0 L 754.4,396.0 M 724.3,320.7 L 754.4,320.7 M 724.3,245.4 L 754.4,245.4 M 724.3,170.1 L 754.4,170.1 "
 />

</g>

<g transform="translate(0.0,-685.4)">

<g transform="translate(0.0,-0.0)">
<path stroke="#000000" stroke-width="4" fill="none"
  d="M 136.8,772.6 L 172.9,772.6 "
 />

<text x="179.0" y="784.7" font-family="Arial" font-size="30.5" fill="#000000" text-anchor="start">
y prjn
</text>

</g>

<g transform="translate(0.0,33.5)">
<path stroke="#ff0000" stroke-width="4" fill="none"
  d="M 136.8,772.6 L 172.9,772.6 "
 />

<text x="179.0" y="784.7" font-family="Arial" font-size="30.5" fill="#ff0000" text-anchor="start">
trial label
</text>

</g>

</g>

<g>
<path stroke="#000000" stroke-width="4" fill="none"
  d="
"
 />
<path stroke="#000000" stroke-width="4" fill="none"
  d="M 627.1,604.3 L 626.7,602.0 L 625.4,600.0 L 623.4,598.7 L 621.1,598.3 L 618.8,598.7 L 616.8,600.0 L 615.5,602.0 L 615.1,604.3 L 615.5,606.6 L 616.8,608.6 L 618.8,609.9 L 621.1,610.3 L 623.4,609.9 L 625.4,608.6 L 626.7,606.6 L 627.1,604.3 M 471.5,450.9 L 471.0,448.6 L 469.7,446.6 L 467.8,445.3 L 465.5,444.8 L 463.2,445.3 L 461.2,446.6 L 459.9,448.6 L 459.4,450.9 L 459.9,453.2 L 461.2,455.1 L 463.2,456.4 L 465.5,456.9 L 467.8,456.4 L 469.7,455.1 L 471.0,453.2 L 471.5,450.9 M 208.8,467.8 L 208.4,465.5 L 207.1,463.5 L 205.1,462.2 L 202.8,461.8 L 200.5,462.2 L 198.6,463.5 L 197.3,465.5 L 196.8,467.8 L 197.3,470.1 L 198.6,472.1 L 200.5,473.4 L 202.8,473.8 L 205.1,473.4 L 207.1,472.1 L 208.4,470.1 L 208.8,467.8 "
 />

<g>

<text x="621.1" y="616.4" font-family="Arial" font-size="24.4" fill="#ff0000" text-anchor="start">
1.1_ASA?_BOB?+
</text>

<text x="465.5" y="462.9" font-family="Arial" font-size="24.4" fill="#ff0000" text-anchor="start">
1.2_ASA?+
</text>

<text x="202.8" y="479.8" font-family="Arial" font-size="24.4" fill="#ff0000" text-anchor="start">
1.3_BOB?--
</text>

</g>

</g>
</svg>
