<?xml version="1.0" encoding="UTF-8" standalone="no"?>
<svg
   xmlns:dc="http://purl.org/dc/elements/1.1/"
   xmlns:cc="http://creativecommons.org/ns#"
   xmlns:rdf="http://www.w3.org/1999/02/22-rdf-syntax-ns#"
   xmlns:svg="http://www.w3.org/2000/svg"
   xmlns="http://www.w3.org/2000/svg"
   xmlns:sodipodi="http://sodipodi.sourceforge.net/DTD/sodipodi-0.dtd"
   xmlns:inkscape="http://www.inkscape.org/namespaces/inkscape"
   version="1.1"
   width="400px"
   height="400px"
   viewBox="0 0 1000.0 1000.0"
   id="svg8908"
   inkscape:version="0.48.2 r9819"
   sodipodi:docname="fig_blicket_lg10_expt4.svg"
   inkscape:export-filename="/Users/oreilly/svn_sims/leabra/ti/fig_blicket_lg10_expt4.png"
   inkscape:export-xdpi="150"
   inkscape:export-ydpi="150">
  <metadata
     id="metadata9010">
    <rdf:RDF>
      <cc:Work
         rdf:about="">
        <dc:format>image/svg+xml</dc:format>
        <dc:type
           rdf:resource="http://purl.org/dc/dcmitype/StillImage" />
        <dc:title></dc:title>
      </cc:Work>
    </rdf:RDF>
  </metadata>
  <defs
     id="defs9008" />
  <sodipodi:namedview
     pagecolor="#ffffff"
     bordercolor="#666666"
     borderopacity="1"
     objecttolerance="10"
     gridtolerance="10"
     guidetolerance="10"
     inkscape:pageopacity="0"
     inkscape:pageshadow="2"
     inkscape:window-width="1127"
     inkscape:window-height="935"
     id="namedview9006"
     showgrid="false"
     inkscape:zoom="1.1325"
     inkscape:cx="228.38199"
     inkscape:cy="225.77219"
     inkscape:window-x="163"
     inkscape:window-y="57"
     inkscape:window-maximized="0"
     inkscape:current-layer="svg8908" />
  <rect
     style="fill:#ffffff;fill-opacity:1;fill-rule:nonzero;stroke:#ffffff;stroke-width:3.5686214;stroke-linejoin:round;stroke-miterlimit:4;stroke-opacity:1;stroke-dasharray:none;stroke-dashoffset:0"
     id="rect9063"
     width="1231.0359"
     height="888.60608"
     x="-114.45779"
     y="29.271217" />
  <path
     stroke="#000000"
     stroke-width="2"
     fill="none"
     d="M 60.1,777.3 L 60.1,157.6 L 989.7,157.6 L 989.7,777.3 L 60.1,777.3 "
     id="path8910" />
  <text
     style="font-size:37.59999847px;text-anchor:middle;fill:#000000;font-family:Arial"
     id="text8916"
     font-size="37.6"
     y="836.20001"
     x="176.3">D</text>
  <text
     style="font-size:37.59999847px;text-anchor:middle;fill:#000000;font-family:Arial"
     id="text8918"
     font-size="37.6"
     y="836.20001"
     x="292.5">E</text>
  <text
     style="font-size:37.59999847px;text-anchor:middle;fill:#000000;font-family:Arial"
     id="text8920"
     font-size="37.6"
     y="836.20001"
     x="408.70001">F</text>
  <text
     style="font-size:37.59999847px;text-anchor:middle;fill:#000000;font-family:Arial"
     id="text8922"
     font-size="37.6"
     y="836.20001"
     x="641.09998">D</text>
  <text
     style="font-size:37.59999847px;text-anchor:middle;fill:#000000;font-family:Arial"
     id="text8924"
     font-size="37.6"
     y="836.20001"
     x="757.29999">E</text>
  <text
     style="font-size:37.59999847px;text-anchor:middle;fill:#000000;font-family:Arial"
     id="text8926"
     font-size="37.6"
     y="836.20001"
     x="873.5">F</text>
  <path
     style="fill:none;stroke:#000000;stroke-width:2"
     inkscape:connector-curvature="0"
     id="path8928"
     d="m 60.1,777.3 929.6,0 m -929.6,15.5 0,-31 m 116.2,31 0,-31 m 116.2,31 0,-31 m 116.2,31 0,-31 m 116.2,31 0,-31 m 116.2,31 0,-31 m 116.2,31 0,-31 m 116.2,31 0,-31 m 116.2,31 0,-31" />
  <path
     style="fill:none;stroke:#000000;stroke-width:2"
     inkscape:connector-curvature="0"
     id="path8930"
     d="m 60.1,157.6 929.6,0 m -929.6,15.5 0,-31 m 116.2,31 0,-31 m 116.2,31 0,-31 m 116.2,31 0,-31 m 116.2,31 0,-31 m 116.2,31 0,-31 m 116.2,31 0,-31 m 116.2,31 0,-31 m 116.2,31 0,-31" />
  <text
     style="font-size:37.59999847px;text-anchor:end;fill:#000000;font-family:Arial"
     id="text8934"
     font-size="37.6"
     y="792.20001"
     x="38.400002">0.3</text>
  <text
     style="font-size:37.59999847px;text-anchor:end;fill:#000000;font-family:Arial"
     id="text8936"
     font-size="37.6"
     y="730.20001"
     x="38.400002">0.35</text>
  <text
     style="font-size:37.59999847px;text-anchor:end;fill:#000000;font-family:Arial"
     id="text8938"
     font-size="37.6"
     y="668.29999"
     x="38.400002">0.4</text>
  <text
     style="font-size:37.59999847px;text-anchor:end;fill:#000000;font-family:Arial"
     id="text8940"
     font-size="37.6"
     y="606.29999"
     x="38.400002">0.45</text>
  <text
     style="font-size:37.59999847px;text-anchor:end;fill:#000000;font-family:Arial"
     id="text8942"
     font-size="37.6"
     y="544.29999"
     x="38.400002">0.5</text>
  <text
     style="font-size:37.59999847px;text-anchor:end;fill:#000000;font-family:Arial"
     id="text8944"
     font-size="37.6"
     y="482.29999"
     x="38.400002">0.55</text>
  <text
     style="font-size:37.59999847px;text-anchor:end;fill:#000000;font-family:Arial"
     id="text8946"
     font-size="37.6"
     y="420.39999"
     x="38.400002">0.6</text>
  <text
     style="font-size:37.59999847px;text-anchor:end;fill:#000000;font-family:Arial"
     id="text8948"
     font-size="37.6"
     y="358.39999"
     x="38.400002">0.65</text>
  <text
     style="font-size:37.59999847px;text-anchor:end;fill:#000000;font-family:Arial"
     id="text8950"
     font-size="37.6"
     y="296.39999"
     x="38.400002">0.7</text>
  <text
     style="font-size:37.59999847px;text-anchor:end;fill:#000000;font-family:Arial"
     id="text8952"
     font-size="37.6"
     y="234.39999"
     x="38.400002">0.75</text>
  <text
     style="font-size:37.59999847px;text-anchor:end;fill:#000000;font-family:Arial"
     id="text8954"
     font-size="37.6"
     y="172.5"
     x="38.400002">0.8</text>
  <path
     style="fill:none;stroke:#000000;stroke-width:2"
     inkscape:connector-curvature="0"
     id="path8956"
     d="m 60.1,777.3 0,-619.7 m -15.5,619.7 31,0 m -31,-61.9 31,0 m -31,-62 31,0 m -31,-62 31,0 m -31,-62 31,0 m -31,-61.9 31,0 m -31,-62 31,0 m -31,-62 31,0 m -31,-62 31,0 m -31,-61.9 31,0 m -31,-62 31,0" />
  <text
     style="font-size:37.59999847px;text-anchor:start;fill:#ff0000;font-family:Arial"
     id="text8960"
     font-size="37.6"
     y="792.20001"
     x="1011.4">0</text>
  <text
     style="font-size:37.59999847px;text-anchor:start;fill:#ff0000;font-family:Arial"
     id="text8962"
     font-size="37.6"
     y="730.20001"
     x="1011.4">1</text>
  <text
     style="font-size:37.59999847px;text-anchor:start;fill:#ff0000;font-family:Arial"
     id="text8964"
     font-size="37.6"
     y="668.29999"
     x="1011.4">2</text>
  <text
     style="font-size:37.59999847px;text-anchor:start;fill:#ff0000;font-family:Arial"
     id="text8966"
     font-size="37.6"
     y="606.29999"
     x="1011.4">3</text>
  <text
     style="font-size:37.59999847px;text-anchor:start;fill:#ff0000;font-family:Arial"
     id="text8968"
     font-size="37.6"
     y="544.29999"
     x="1011.4">4</text>
  <text
     style="font-size:37.59999847px;text-anchor:start;fill:#ff0000;font-family:Arial"
     id="text8970"
     font-size="37.6"
     y="482.29999"
     x="1011.4">5</text>
  <text
     style="font-size:37.59999847px;text-anchor:start;fill:#ff0000;font-family:Arial"
     id="text8972"
     font-size="37.6"
     y="420.39999"
     x="1011.4">6</text>
  <text
     style="font-size:37.59999847px;text-anchor:start;fill:#ff0000;font-family:Arial"
     id="text8974"
     font-size="37.6"
     y="358.39999"
     x="1011.4">7</text>
  <text
     style="font-size:37.59999847px;text-anchor:start;fill:#ff0000;font-family:Arial"
     id="text8976"
     font-size="37.6"
     y="296.39999"
     x="1011.4">8</text>
  <text
     style="font-size:37.59999847px;text-anchor:start;fill:#ff0000;font-family:Arial"
     id="text8978"
     font-size="37.6"
     y="234.39999"
     x="1011.4">9</text>
  <text
     style="font-size:37.59999847px;text-anchor:start;fill:#ff0000;font-family:Arial"
     id="text8980"
     font-size="37.6"
     y="172.5"
     x="1011.4">10</text>
  <path
     style="fill:none;stroke:#ff0000;stroke-width:2"
     inkscape:connector-curvature="0"
     id="path8982"
     d="m 989.7,777.3 0,-619.7 m -15.5,619.7 31,0 m -31,-61.9 31,0 m -31,-62 31,0 m -31,-62 31,0 m -31,-62 31,0 m -31,-61.9 31,0 m -31,-62 31,0 m -31,-62 31,0 m -31,-62 31,0 m -31,-61.9 31,0 m -31,-62 31,0" />
  <path
     stroke="none"
     fill="#000000"
     d="M 127.9,778.8 L 127.9,527.0 L 174.6,527.0 L 174.6,778.8  M 163.9,530.3 L 188.7,530.3 M 163.9,523.5 L 188.7,523.5 M 176.3,530.3 L 176.3,523.5 M 176.3,526.9   M 244.7,778.8 L 244.7,588.4 L 291.4,588.4 L 291.4,778.8  M 280.1,590.4 L 304.9,590.4 M 280.1,585.4 L 304.9,585.4 M 292.5,590.4 L 292.5,585.4 M 292.5,587.9  M 361.5,778.8 L 361.5,311.1 L 408.2,311.1 L 408.2,778.8  M 396.3,314.6 L 421.1,314.6 M 396.3,309.5 L 421.1,309.5 M 408.7,314.6 L 408.7,309.5 M 408.7,312.1  M 595.1,778.8 L 595.1,664.4 L 641.8,664.4 L 641.8,778.8  M 628.7,666.2 L 653.5,666.2 M 628.7,660.9 L 653.5,660.9 M 641.1,666.2 L 641.1,660.9 M 641.1,663.6  M 711.9,778.8 L 711.9,705.3 L 758.6,705.3 L 758.6,778.8  M 744.9,706.0 L 769.7,706.0 M 744.9,702.4 L 769.7,702.4 M 757.3,706.0 L 757.3,702.4 M 757.3,704.2  M 828.7,778.8 L 828.7,475.3 L 875.4,475.3 L 875.4,778.8  M 861.1,477.9 L 885.9,477.9 M 861.1,472.9 L 885.9,472.9 M 873.5,477.9 L 873.5,472.9 M 873.5,475.4  "
     id="path8998" />
  <path
     stroke="none"
     fill="#ff0000"
     d="M 174.6,778.8 L 174.6,542.0 L 221.4,542.0 L 221.4,778.8  M 291.4,778.8 L 291.4,778.8 L 338.2,778.8 L 338.2,778.8 M 408.2,778.8 L 408.2,778.8 L 455.0,778.8 L 455.0,778.8 M 641.8,778.8 L 641.8,666.6 L 688.6,666.6 L 688.6,778.8 M 758.6,778.8 L 758.6,778.8 L 805.4,778.8 L 805.4,778.8 M 875.4,778.8 L 875.4,778.8 L 922.2,778.8 L 922.2,778.8 "
     id="path9000" />
  <text
     x="194.30664"
     y="881.72247"
     font-size="31.3"
     id="text9002"
     style="font-size:31.29999924px;text-anchor:start;fill:#000000;font-family:Arial">
    <tspan
       style="font-size:40px"
       id="tspan9047">High Noise</tspan>
  </text>
  <text
     x="663.69647"
     y="881.72247"
     font-size="31.3"
     id="text9004"
     style="font-size:31.29999924px;text-anchor:start;fill:#000000;font-family:Arial">
    <tspan
       style="font-size:40px"
       id="tspan9049">Low Noise</tspan>
  </text>
  <text
     xml:space="preserve"
     style="font-size:45px;font-style:normal;font-variant:normal;font-weight:normal;font-stretch:normal;text-indent:0;text-align:start;text-decoration:none;line-height:100%;letter-spacing:0px;word-spacing:0px;text-transform:none;direction:ltr;block-progression:tb;writing-mode:lr-tb;text-anchor:start;color:#000000;fill:#000000;fill-opacity:1;fill-rule:nonzero;stroke:none;stroke-width:1px;marker:none;visibility:visible;display:inline;overflow:visible;enable-background:accumulate;font-family:Arial;-inkscape-font-specification:Arial"
     x="-767.26691"
     y="-61.331379"
     id="text9051"
     sodipodi:linespacing="100%"
     transform="matrix(0,-1,1,0,0,0)"><tspan
       sodipodi:role="line"
       id="tspan9053"
       x="-767.26691"
       y="-61.331379">Model Proportion Blicket = On</tspan></text>
  <text
     xml:space="preserve"
     style="font-size:45px;font-style:normal;font-variant:normal;font-weight:normal;font-stretch:normal;text-indent:0;text-align:start;text-decoration:none;line-height:100%;letter-spacing:0px;word-spacing:0px;text-transform:none;direction:ltr;block-progression:tb;writing-mode:lr-tb;text-anchor:start;color:#000000;fill:#ff0000;fill-opacity:1;fill-rule:nonzero;stroke:none;stroke-width:1px;marker:none;visibility:visible;display:inline;overflow:visible;enable-background:accumulate;font-family:Arial;-inkscape-font-specification:Arial"
     x="263.1922"
     y="-1062.6442"
     id="text9055"
     sodipodi:linespacing="100%"
     transform="matrix(0,1,-1,0,0,0)"><tspan
       sodipodi:role="line"
       id="tspan9057"
       x="263.1922"
       y="-1062.6442">People Mean Rating</tspan></text>
  <text
     xml:space="preserve"
     style="font-size:60px;font-style:normal;font-variant:normal;font-weight:normal;font-stretch:normal;text-indent:0;text-align:start;text-decoration:none;line-height:100%;letter-spacing:0px;word-spacing:0px;text-transform:none;direction:ltr;block-progression:tb;writing-mode:lr-tb;text-anchor:start;color:#000000;fill:#000000;fill-opacity:1;fill-rule:nonzero;stroke:none;stroke-width:1px;marker:none;visibility:visible;display:inline;overflow:visible;enable-background:accumulate;font-family:Arial;-inkscape-font-specification:Arial"
     x="107.6832"
     y="101.54525"
     id="text9059"
     sodipodi:linespacing="100%"><tspan
       sodipodi:role="line"
       id="tspan9061"
       x="107.6832"
       y="101.54525">Lucas &amp; Griffiths (2010), Expt 4</tspan></text>
</svg>
