<?xml version="1.0" encoding="UTF-8" standalone="no"?>
<svg
   xmlns:dc="http://purl.org/dc/elements/1.1/"
   xmlns:cc="http://creativecommons.org/ns#"
   xmlns:rdf="http://www.w3.org/1999/02/22-rdf-syntax-ns#"
   xmlns:svg="http://www.w3.org/2000/svg"
   xmlns="http://www.w3.org/2000/svg"
   xmlns:sodipodi="http://sodipodi.sourceforge.net/DTD/sodipodi-0.dtd"
   xmlns:inkscape="http://www.inkscape.org/namespaces/inkscape"
   version="1.1"
   width="400px"
   height="400px"
   viewBox="0 0 1000.0 1000.0"
   id="svg2"
   inkscape:version="0.48.2 r9819"
   sodipodi:docname="fig_blicket_stg04_bblock_soff_intact.svg"
   inkscape:export-filename="/Users/oreilly/svn_sims/leabra/ti/fig_blicket_stg04_bblock_soff_intact.png"
   inkscape:export-xdpi="150"
   inkscape:export-ydpi="150">
  <metadata
     id="metadata74">
    <rdf:RDF>
      <cc:Work
         rdf:about="">
        <dc:format>image/svg+xml</dc:format>
        <dc:type
           rdf:resource="http://purl.org/dc/dcmitype/StillImage" />
        <dc:title></dc:title>
      </cc:Work>
    </rdf:RDF>
  </metadata>
  <defs
     id="defs72">
    <marker
       inkscape:stockid="Arrow1Mend"
       orient="auto"
       refY="0.0"
       refX="0.0"
       id="Arrow1Mend"
       style="overflow:visible;">
      <path
         id="path3861"
         d="M 0.0,0.0 L 5.0,-5.0 L -12.5,0.0 L 5.0,5.0 L 0.0,0.0 z "
         style="fill-rule:evenodd;stroke:#000000;stroke-width:1.0pt;marker-start:none;"
         transform="scale(0.4) rotate(180) translate(10,0)" />
    </marker>
  </defs>
  <sodipodi:namedview
     pagecolor="#ffffff"
     bordercolor="#666666"
     borderopacity="1"
     objecttolerance="10"
     gridtolerance="10"
     guidetolerance="10"
     inkscape:pageopacity="0"
     inkscape:pageshadow="2"
     inkscape:window-width="1617"
     inkscape:window-height="1114"
     id="namedview70"
     showgrid="false"
     inkscape:zoom="0.93216569"
     inkscape:cx="48.720267"
     inkscape:cy="151.06478"
     inkscape:window-x="113"
     inkscape:window-y="0"
     inkscape:window-maximized="0"
     inkscape:current-layer="svg2" />
  <rect
     style="fill:#ffffff;fill-opacity:1;fill-rule:nonzero;stroke:#ffffff;stroke-width:3.61687589;stroke-linejoin:round;stroke-miterlimit:4;stroke-opacity:1;stroke-dasharray:none;stroke-dashoffset:0"
     id="rect5754"
     width="1811.1837"
     height="927.17023"
     x="-369.13596"
     y="35.313313" />
  <path
     d="m 567.10588,869.11677 0,-712.9 712.90002,0 0,712.9 -712.90002,0"
     id="path4"
     inkscape:connector-curvature="0"
     style="fill:none;stroke:#000000;stroke-width:2" />
  <text
     style="font-size:36.09999847px;text-anchor:middle;fill:#000000;font-family:Arial"
     id="text10"
     font-size="36.1"
     y="929.7168"
     x="706.27716">1.A+</text>
  <text
     style="font-size:36.09999847px;text-anchor:middle;fill:#000000;font-family:Arial"
     id="text12"
     font-size="36.1"
     y="929.7168"
     x="861.27716">1.B-</text>
  <text
     style="font-size:36.09999847px;text-anchor:middle;fill:#000000;font-family:Arial"
     id="text14"
     font-size="36.1"
     y="929.7168"
     x="1016.2772">2.A+</text>
  <text
     style="font-size:36.09999847px;text-anchor:middle;fill:#000000;font-family:Arial"
     id="text16"
     font-size="36.1"
     y="929.7168"
     x="1171.1771">2.B-</text>
  <path
     style="fill:none;stroke:#000000;stroke-width:2"
     inkscape:connector-curvature="0"
     id="path18"
     d="m 567.10588,869.11677 712.90002,0 m -666.40002,17.8 0,-35.6 m 77.5,35.6 0,-35.6 m 77.5,35.6 0,-35.6 m 77.5,35.6 0,-35.6 m 77.5,35.6 0,-35.6 m 77.50002,35.6 0,-35.6 m 77.4,35.6 0,-35.6 m 77.5,35.6 0,-35.6 m 77.5,35.6 0,-35.6" />
  <path
     style="fill:none;stroke:#000000;stroke-width:2"
     inkscape:connector-curvature="0"
     id="path20"
     d="m 567.10588,156.21677 712.90002,0 m -666.40002,17.8 0,-35.6 m 77.5,35.6 0,-35.6 m 77.5,35.6 0,-35.6 m 77.5,35.6 0,-35.6 m 77.5,35.6 0,-35.6 m 77.50002,35.6 0,-35.6 m 77.4,35.6 0,-35.6 m 77.5,35.6 0,-35.6 m 77.5,35.6 0,-35.6" />
  <text
     style="font-size:36.09999847px;text-anchor:start;fill:#ff0000;font-family:Arial"
     id="text40"
     font-size="36.1"
     y="876.41681"
     x="1305.0059">0</text>
  <text
     style="font-size:36.09999847px;text-anchor:start;fill:#ff0000;font-family:Arial"
     id="text42"
     font-size="36.1"
     y="701.61676"
     x="1305.0059">0.5</text>
  <text
     style="font-size:36.09999847px;text-anchor:start;fill:#ff0000;font-family:Arial"
     id="text44"
     font-size="36.1"
     y="526.91681"
     x="1305.0059">1</text>
  <text
     style="font-size:36.09999847px;text-anchor:start;fill:#ff0000;font-family:Arial"
     id="text46"
     font-size="36.1"
     y="352.21677"
     x="1305.0059">1.5</text>
  <text
     style="font-size:36.09999847px;text-anchor:start;fill:#ff0000;font-family:Arial"
     id="text48"
     font-size="36.1"
     y="177.41678"
     x="1305.0059">2</text>
  <path
     style="fill:none;stroke:#ff0000;stroke-width:2"
     inkscape:connector-curvature="0"
     id="path50"
     d="m 1280.0059,869.11677 0,-712.9 m -17.8,705.9 35.6,0 m -35.6,-174.7 35.6,0 m -35.6,-174.8 35.6,0 m -35.6,-174.7 35.6,0 m -35.6,-174.7 35.6,0" />
  <path
     d="m 627.70588,871.01677 0,-414.8 62.3,0 0,414.8 m -13.2,-414.3 28.6,0 m -28.6,0 28.6,0 m -14.3,0 0,0 m 0,0 m 92.5,414.3 0,-274.2 62.3,0 0,274.2 m -14.1,-274.5 28.5,0 m -28.5,0 28.5,0 m -14.2,0 0,0 m 0,0 m 93.4,274.5 0,-710.1 62.30002,0 0,710.1 m -15.00002,-707.8 28.50002,0 m -28.50002,0 28.50002,0 m -14.2,0 0,0 m 0,0 m 94.3,707.8 0,-7 62.3,0 0,7 m -15.9,-8.9 28.5,0 m -28.5,0 28.5,0 m -14.3,0 0,0 m 0,0"
     id="path66"
     inkscape:connector-curvature="0"
     style="fill:#000000;stroke:none" />
  <path
     d="m 845.90588,871.01677 0,-94.9 62.4,0 0,94.9 m 93.50002,0 0,-710.1 62.4,0 0,710.1"
     id="path68"
     inkscape:connector-curvature="0"
     style="fill:#ff0000;stroke:none" />
  <text
     xml:space="preserve"
     style="font-size:45px;font-style:normal;font-variant:normal;font-weight:normal;font-stretch:normal;text-indent:0;text-align:start;text-decoration:none;line-height:100%;letter-spacing:0px;word-spacing:0px;text-transform:none;direction:ltr;block-progression:tb;writing-mode:lr-tb;text-anchor:start;color:#000000;fill:#000000;fill-opacity:1;fill-rule:nonzero;stroke:none;stroke-width:1px;marker:none;visibility:visible;display:inline;overflow:visible;enable-background:accumulate;font-family:Arial;-inkscape-font-specification:Arial"
     x="-818.04712"
     y="-309.59866"
     id="text3051"
     sodipodi:linespacing="100%"
     transform="matrix(0,-1,1,0,0,0)"><tspan
       sodipodi:role="line"
       id="tspan3053"
       x="-818.04712"
       y="-309.59866"> Model Proportion Blicket = On</tspan></text>
  <text
     x="550.56152"
     y="929.7168"
     font-size="36.1"
     id="text3077"
     style="font-size:36.09999847px;text-anchor:middle;fill:#000000;font-family:Arial">0.AB+</text>
  <g
     id="g5332"
     transform="translate(370.10588,1005.7225)">
    <path
       inkscape:connector-curvature="0"
       id="path3079"
       d="m 241.138,-86.79237 46.11567,0"
       style="fill:none;stroke:#000000;stroke-width:3.75;stroke-linejoin:round;stroke-miterlimit:4;stroke-opacity:1;stroke-dasharray:none;stroke-dashoffset:0;marker-start:none;marker-end:url(#Arrow1Mend)" />
    <path
       style="fill:none;stroke:#000000;stroke-width:3.75;stroke-linejoin:round;stroke-miterlimit:4;stroke-opacity:1;stroke-dasharray:none;stroke-dashoffset:0;marker-start:none;marker-end:url(#Arrow1Mend)"
       d="m 543.96417,-86.79237 46.11566,0"
       id="path4657"
       inkscape:connector-curvature="0" />
    <path
       inkscape:connector-curvature="0"
       id="path4659"
       d="m 394.85687,-86.79237 46.11567,0"
       style="fill:none;stroke:#000000;stroke-width:3.75;stroke-linejoin:round;stroke-miterlimit:4;stroke-opacity:1;stroke-dasharray:none;stroke-dashoffset:0;marker-start:none;marker-end:url(#Arrow1Mend)" />
    <path
       inkscape:connector-curvature="0"
       id="path4661"
       d="m 696.14585,-86.79237 46.11566,0"
       style="fill:none;stroke:#000000;stroke-width:3.75;stroke-linejoin:round;stroke-miterlimit:4;stroke-opacity:1;stroke-dasharray:none;stroke-dashoffset:0;marker-start:none;marker-end:url(#Arrow1Mend)" />
  </g>
  <path
     style="fill:none;stroke:#000000;stroke-width:3.75;stroke-linejoin:round;stroke-miterlimit:4;stroke-opacity:1;stroke-dasharray:none;stroke-dashoffset:0;marker-end:url(#Arrow1Mend)"
     d="M 700.60143,451.62477 918.88223,191.83988"
     id="path4682"
     inkscape:connector-curvature="0" />
  <path
     style="fill:none;stroke:#000000;stroke-width:3.75;stroke-linejoin:round;stroke-miterlimit:4;stroke-opacity:1;stroke-dasharray:none;stroke-dashoffset:0;marker-end:url(#Arrow1Mend)"
     d="m 703.67583,468.53385 98.38005,107.6032"
     id="path4866"
     inkscape:connector-curvature="0" />
  <path
     style="fill:none;stroke:#000000;stroke-width:2"
     inkscape:connector-curvature="0"
     d="m -209.91096,870.10987 0,-712.9 712.9,0 0,712.9 -712.9,0"
     id="path5164" />
  <text
     id="text5170"
     font-size="36.1"
     y="930.7099"
     x="-85.910965"
     style="font-size:36.09999847px;text-anchor:middle;fill:#000000;font-family:Arial">1.A-</text>
  <text
     id="text5172"
     font-size="36.1"
     y="930.7099"
     x="69.089066"
     style="font-size:36.09999847px;text-anchor:middle;fill:#000000;font-family:Arial">1.B+</text>
  <text
     id="text5174"
     font-size="36.1"
     y="930.7099"
     x="224.08905"
     style="font-size:36.09999847px;text-anchor:middle;fill:#000000;font-family:Arial">2.A-</text>
  <text
     id="text5176"
     font-size="36.1"
     y="930.7099"
     x="378.98907"
     style="font-size:36.09999847px;text-anchor:middle;fill:#000000;font-family:Arial">2.B+</text>
  <path
     id="path5178"
     d="m -209.91096,870.10987 712.9,0 m -666.4,17.8 0,-35.6 m 77.499997,35.6 0,-35.6 m 77.5000003,35.6 0,-35.6 m 77.4999997,35.6 0,-35.6 m 77.500003,35.6 0,-35.6 m 77.5,35.6 0,-35.6 m 77.4,35.6 0,-35.6 m 77.5,35.6 0,-35.6 m 77.5,35.6 0,-35.6"
     inkscape:connector-curvature="0"
     style="fill:none;stroke:#000000;stroke-width:2" />
  <path
     id="path5180"
     d="m -209.91096,157.20987 712.9,0 m -666.4,17.8 0,-35.6 m 77.499997,35.6 0,-35.6 m 77.5000003,35.6 0,-35.6 m 77.4999997,35.6 0,-35.6 m 77.500003,35.6 0,-35.6 m 77.5,35.6 0,-35.6 m 77.4,35.6 0,-35.6 m 77.5,35.6 0,-35.6 m 77.5,35.6 0,-35.6"
     inkscape:connector-curvature="0"
     style="fill:none;stroke:#000000;stroke-width:2" />
  <text
     id="text5184"
     font-size="36.1"
     y="877.40991"
     x="-234.81093"
     style="font-size:36.09999847px;text-anchor:end;fill:#000000;font-family:Arial">0</text>
  <text
     id="text5186"
     font-size="36.1"
     y="737.60986"
     x="-234.81093"
     style="font-size:36.09999847px;text-anchor:end;fill:#000000;font-family:Arial">0.2</text>
  <text
     id="text5188"
     font-size="36.1"
     y="597.80988"
     x="-234.81093"
     style="font-size:36.09999847px;text-anchor:end;fill:#000000;font-family:Arial">0.4</text>
  <text
     id="text5190"
     font-size="36.1"
     y="458.00986"
     x="-234.81093"
     style="font-size:36.09999847px;text-anchor:end;fill:#000000;font-family:Arial">0.6</text>
  <text
     id="text5192"
     font-size="36.1"
     y="318.20987"
     x="-234.81093"
     style="font-size:36.09999847px;text-anchor:end;fill:#000000;font-family:Arial">0.8</text>
  <text
     id="text5194"
     font-size="36.1"
     y="178.40987"
     x="-234.81093"
     style="font-size:36.09999847px;text-anchor:end;fill:#000000;font-family:Arial">1</text>
  <path
     id="path5196"
     d="m -209.91096,870.10987 0,-712.9 m -17.8,705.9 35.6,0 m -35.6,-139.8 35.6,0 m -35.6,-139.8 35.6,0 m -35.6,-139.8 35.6,0 m -35.6,-139.7 35.6,0 m -35.6,-139.8 35.6,0"
     inkscape:connector-curvature="0"
     style="fill:none;stroke:#000000;stroke-width:2" />
  <path
     style="fill:#000000;stroke:none"
     inkscape:connector-curvature="0"
     d="m -149.31096,872.00987 0,-414.8 62.299997,0 0,414.8 m -13.199997,-414.3 28.599997,0 m -28.599997,0 28.599997,0 m -14.3,0 0,0 m 0,0 m 92.5000003,414.3 0,-710.1 62.2999997,0 0,710.1 m -14.1,-707.8 28.5,0 m -28.5,0 28.5,0 m -14.2,0 0,0 m 0,0 m 93.400003,707.8 0,-21.1 62.3,0 0,21.1 m -15,-22.9 28.5,0 m -28.5,0 28.5,0 m -14.2,0 0,0 m 0,0 m 94.3,22.9 0,-710.1 62.3,0 0,710.1 m -15.9,-707.8 28.5,0 m -28.5,0 28.5,0 m -14.3,0 0,0 m 0,0"
     id="path5226" />
  <path
     style="fill:#ff0000;stroke:none"
     inkscape:connector-curvature="0"
     d="m 68.889037,872.00987 0,-710.1 62.400003,0 0,710.1 m 93.5,0 0,-7 62.4,0 0,7"
     id="path5228" />
  <text
     xml:space="preserve"
     style="font-size:45px;font-style:normal;font-variant:normal;font-weight:normal;font-stretch:normal;text-indent:0;text-align:start;text-decoration:none;line-height:100%;letter-spacing:0px;word-spacing:0px;text-transform:none;direction:ltr;block-progression:tb;writing-mode:lr-tb;text-anchor:start;color:#000000;fill:#ff0000;fill-opacity:1;fill-rule:nonzero;stroke:none;stroke-width:1px;marker:none;visibility:visible;display:inline;overflow:visible;enable-background:accumulate;font-family:Arial;-inkscape-font-specification:Arial"
     x="218.03542"
     y="-1377.5087"
     id="text5326"
     sodipodi:linespacing="100%"
     transform="matrix(0,1,-1,0,0,0)"><tspan
       sodipodi:role="line"
       id="tspan5328"
       x="218.03542"
       y="-1377.5087">4yr-old's Blicket = On (2 max)</tspan></text>
  <text
     style="font-size:36.09999847px;text-anchor:middle;fill:#000000;font-family:Arial"
     id="text5330"
     font-size="36.1"
     y="929.7168"
     x="-242.13722">0.AB+</text>
  <g
     id="g5338"
     transform="translate(-422.59288,1005.7225)">
    <path
       style="fill:none;stroke:#000000;stroke-width:3.75;stroke-linejoin:round;stroke-miterlimit:4;stroke-opacity:1;stroke-dasharray:none;stroke-dashoffset:0;marker-start:none;marker-end:url(#Arrow1Mend)"
       d="m 241.138,-86.79237 46.11567,0"
       id="path5340"
       inkscape:connector-curvature="0" />
    <path
       inkscape:connector-curvature="0"
       id="path5342"
       d="m 543.96417,-86.79237 46.11566,0"
       style="fill:none;stroke:#000000;stroke-width:3.75;stroke-linejoin:round;stroke-miterlimit:4;stroke-opacity:1;stroke-dasharray:none;stroke-dashoffset:0;marker-start:none;marker-end:url(#Arrow1Mend)" />
    <path
       style="fill:none;stroke:#000000;stroke-width:3.75;stroke-linejoin:round;stroke-miterlimit:4;stroke-opacity:1;stroke-dasharray:none;stroke-dashoffset:0;marker-start:none;marker-end:url(#Arrow1Mend)"
       d="m 394.85687,-86.79237 46.11567,0"
       id="path5344"
       inkscape:connector-curvature="0" />
    <path
       style="fill:none;stroke:#000000;stroke-width:3.75;stroke-linejoin:round;stroke-miterlimit:4;stroke-opacity:1;stroke-dasharray:none;stroke-dashoffset:0;marker-start:none;marker-end:url(#Arrow1Mend)"
       d="m 696.14585,-86.79237 46.11566,0"
       id="path5346"
       inkscape:connector-curvature="0" />
  </g>
  <text
     xml:space="preserve"
     style="font-size:60px;font-style:normal;font-variant:normal;font-weight:normal;font-stretch:normal;text-indent:0;text-align:start;text-decoration:none;line-height:100%;letter-spacing:0px;word-spacing:0px;text-transform:none;direction:ltr;block-progression:tb;writing-mode:lr-tb;text-anchor:start;color:#000000;fill:#000000;fill-opacity:1;fill-rule:nonzero;stroke:none;stroke-width:1px;marker:none;visibility:visible;display:inline;overflow:visible;enable-background:accumulate;font-family:Arial;-inkscape-font-specification:Arial"
     x="-38.851582"
     y="105.5212"
     id="text5348"
     sodipodi:linespacing="100%"><tspan
       sodipodi:role="line"
       id="tspan5350"
       x="-38.851582"
       y="105.5212">Screening Off</tspan></text>
  <text
     sodipodi:linespacing="100%"
     id="text5352"
     y="105.5212"
     x="654.72778"
     style="font-size:60px;font-style:normal;font-variant:normal;font-weight:normal;font-stretch:normal;text-indent:0;text-align:start;text-decoration:none;line-height:100%;letter-spacing:0px;word-spacing:0px;text-transform:none;direction:ltr;block-progression:tb;writing-mode:lr-tb;text-anchor:start;color:#000000;fill:#000000;fill-opacity:1;fill-rule:nonzero;stroke:none;stroke-width:1px;marker:none;visibility:visible;display:inline;overflow:visible;enable-background:accumulate;font-family:Arial;-inkscape-font-specification:Arial"
     xml:space="preserve"><tspan
       y="105.5212"
       x="654.72778"
       id="tspan5354"
       sodipodi:role="line">Backwards Blocking</tspan></text>
  <text
     xml:space="preserve"
     style="font-size:45px;font-style:normal;font-variant:normal;font-weight:normal;font-stretch:normal;text-indent:0;text-align:start;text-decoration:none;line-height:100%;letter-spacing:0px;word-spacing:0px;text-transform:none;direction:ltr;block-progression:tb;writing-mode:lr-tb;text-anchor:start;color:#000000;fill:#000000;fill-opacity:1;fill-rule:nonzero;stroke:none;stroke-width:1px;marker:none;visibility:visible;display:inline;overflow:visible;enable-background:accumulate;font-family:Arial;-inkscape-font-specification:Arial"
     x="730.42352"
     y="325.50449"
     id="text5356"
     sodipodi:linespacing="100%"><tspan
       sodipodi:role="line"
       id="tspan5358"
       x="730.42352"
       y="325.50449">A+</tspan></text>
  <text
     xml:space="preserve"
     style="font-size:45px;font-style:normal;font-variant:normal;font-weight:normal;font-stretch:normal;text-indent:0;text-align:start;text-decoration:none;line-height:100%;letter-spacing:0px;word-spacing:0px;text-transform:none;direction:ltr;block-progression:tb;writing-mode:lr-tb;text-anchor:start;color:#000000;fill:#000000;fill-opacity:1;fill-rule:nonzero;stroke:none;stroke-width:1px;marker:none;visibility:visible;display:inline;overflow:visible;enable-background:accumulate;font-family:Arial;-inkscape-font-specification:Arial"
     x="738.00909"
     y="456.35672"
     id="text5360"
     sodipodi:linespacing="100%"><tspan
       sodipodi:role="line"
       id="tspan5362"
       x="738.00909"
       y="456.35672">B+ now</tspan><tspan
       sodipodi:role="line"
       x="738.00909"
       y="501.35672"
       id="tspan5744">less likely</tspan></text>
  <path
     style="fill:#ff0000;fill-opacity:1;fill-rule:nonzero;stroke:#000000;stroke-width:3.75;stroke-linejoin:round;stroke-miterlimit:4;stroke-opacity:1;stroke-dasharray:none;stroke-dashoffset:0;marker-end:url(#Arrow1Mend)"
     d="M -73.653723,465.83877 161.50094,835.63844"
     id="path5364"
     inkscape:connector-curvature="0" />
  <path
     style="fill:#ff0000;fill-opacity:1;fill-rule:nonzero;stroke:#000000;stroke-width:3.75;stroke-linejoin:round;stroke-miterlimit:4;stroke-opacity:1;stroke-dasharray:none;stroke-dashoffset:0;marker-end:url(#Arrow1Mend)"
     d="M -81.239353,450.66752 -7.2794227,188.96314"
     id="path5548"
     inkscape:connector-curvature="0" />
  <text
     xml:space="preserve"
     style="font-size:45px;font-style:normal;font-variant:normal;font-weight:normal;font-stretch:normal;text-indent:0;text-align:start;text-decoration:none;line-height:100%;letter-spacing:0px;word-spacing:0px;text-transform:none;direction:ltr;block-progression:tb;writing-mode:lr-tb;text-anchor:start;color:#000000;fill:#000000;fill-opacity:1;fill-rule:nonzero;stroke:none;stroke-width:1px;marker:none;visibility:visible;display:inline;overflow:visible;enable-background:accumulate;font-family:Arial;-inkscape-font-specification:Arial"
     x="163.39735"
     y="790.12463"
     id="text5732"
     sodipodi:linespacing="100%"><tspan
       sodipodi:role="line"
       id="tspan5734"
       x="163.39735"
       y="790.12463">A-</tspan></text>
  <text
     xml:space="preserve"
     style="font-size:45px;font-style:normal;font-variant:normal;font-weight:normal;font-stretch:normal;text-indent:0;text-align:start;text-decoration:none;line-height:100%;letter-spacing:0px;word-spacing:0px;text-transform:none;direction:ltr;block-progression:tb;writing-mode:lr-tb;text-anchor:start;color:#000000;fill:#000000;fill-opacity:1;fill-rule:nonzero;stroke:none;stroke-width:1px;marker:none;visibility:visible;display:inline;overflow:visible;enable-background:accumulate;font-family:Arial;-inkscape-font-specification:Arial"
     x="-200.71309"
     y="224.99489"
     id="text5736"
     sodipodi:linespacing="100%"><tspan
       sodipodi:role="line"
       id="tspan5738"
       x="-200.71309"
       y="224.99489">only B+</tspan><tspan
       sodipodi:role="line"
       x="-200.71309"
       y="269.9949"
       id="tspan5740">explains</tspan><tspan
       sodipodi:role="line"
       x="-200.71309"
       y="314.9949"
       id="tspan5742">AB+</tspan></text>
  <text
     xml:space="preserve"
     style="font-size:45px;font-style:normal;font-variant:normal;font-weight:normal;font-stretch:normal;text-indent:0;text-align:start;text-decoration:none;line-height:100%;letter-spacing:0px;word-spacing:0px;text-transform:none;direction:ltr;block-progression:tb;writing-mode:lr-tb;text-anchor:start;color:#000000;fill:#000000;fill-opacity:1;fill-rule:nonzero;stroke:none;stroke-width:1px;marker:none;visibility:visible;display:inline;overflow:visible;enable-background:accumulate;font-family:Arial;-inkscape-font-specification:Arial"
     x="1096.4303"
     y="831.84564"
     id="text5746"
     sodipodi:linespacing="100%"><tspan
       sodipodi:role="line"
       id="tspan5748"
       x="1096.4303"
       y="831.84564">After B-</tspan></text>
  <path
     d="m 502.91879,869.11677 0,-712.9 m -17.8,705.9 35.6,0 m -35.6,-174.7 35.6,0 m -35.6,-174.8 35.6,0 m -35.6,-174.7 35.6,0 m -35.6,-174.7 35.6,0"
     id="path5750"
     inkscape:connector-curvature="0"
     style="fill:none;stroke:#ff0000;stroke-width:2" />
  <path
     style="fill:none;stroke:#000000;stroke-width:2"
     inkscape:connector-curvature="0"
     d="m 567.61653,870.10987 0,-712.9 m -17.8,705.9 35.6,0 m -35.6,-139.8 35.6,0 m -35.6,-139.8 35.6,0 m -35.6,-139.8 35.6,0 m -35.6,-139.7 35.6,0 m -35.6,-139.8 35.6,0"
     id="path5752" />
  <g
     id="g8064"
     transform="translate(5.3638533,8.0457799)">
    <rect
       transform="scale(2.5,2.5)"
       y="71.732178"
       x="431.25381"
       height="53.638535"
       width="95.476585"
       id="rect8062"
       style="fill:#ffffff;fill-opacity:1;fill-rule:nonzero;stroke:#000000;stroke-width:1.5;stroke-linejoin:round;stroke-miterlimit:4;stroke-opacity:1;stroke-dasharray:none;stroke-dashoffset:0" />
    <text
       sodipodi:linespacing="100%"
       id="text7536"
       y="289.28946"
       x="1153.3152"
       style="font-size:45px;font-style:normal;font-variant:normal;font-weight:normal;font-stretch:normal;text-indent:0;text-align:start;text-decoration:none;line-height:100%;letter-spacing:0px;word-spacing:0px;text-transform:none;direction:ltr;block-progression:tb;writing-mode:lr-tb;text-anchor:start;color:#000000;fill:#ff0000;fill-opacity:1;fill-rule:nonzero;stroke:none;stroke-width:1px;marker:none;visibility:visible;display:inline;overflow:visible;enable-background:accumulate;font-family:Arial;-inkscape-font-specification:Arial"
       xml:space="preserve"><tspan
         y="289.28946"
         x="1153.3152"
         id="tspan7538"
         sodipodi:role="line">4yr-old</tspan></text>
    <text
       sodipodi:linespacing="100%"
       id="text7540"
       y="230.28705"
       x="1150.5466"
       style="font-size:45px;font-style:normal;font-variant:normal;font-weight:normal;font-stretch:normal;text-indent:0;text-align:start;text-decoration:none;line-height:100%;letter-spacing:0px;word-spacing:0px;text-transform:none;direction:ltr;block-progression:tb;writing-mode:lr-tb;text-anchor:start;color:#000000;fill:#000000;fill-opacity:1;fill-rule:nonzero;stroke:none;stroke-width:1px;marker:none;visibility:visible;display:inline;overflow:visible;enable-background:accumulate;font-family:Arial;-inkscape-font-specification:Arial"
       xml:space="preserve"><tspan
         y="230.28705"
         x="1150.5466"
         id="tspan7542"
         sodipodi:role="line">Model</tspan></text>
    <rect
       y="251.74248"
       x="1088.8622"
       height="42.910828"
       width="48.274681"
       id="rect7544"
       style="fill:#ff0000;fill-opacity:1;fill-rule:nonzero;stroke:#ff0000;stroke-width:3.75;stroke-linejoin:round;stroke-miterlimit:4;stroke-opacity:1;stroke-dasharray:none;stroke-dashoffset:0" />
    <rect
       style="fill:#000000;fill-opacity:1;fill-rule:nonzero;stroke:#000000;stroke-width:3.75;stroke-linejoin:round;stroke-miterlimit:4;stroke-opacity:1;stroke-dasharray:none;stroke-dashoffset:0"
       id="rect7546"
       width="48.274681"
       height="42.910828"
       x="1088.8622"
       y="187.37624" />
  </g>
</svg>
