<?xml version="1.0" encoding="UTF-8" standalone="no"?>
<svg
  xmlns="http://www.w3.org/2000/svg" version="1.1"
  width="400px"
  height="400px"
  viewBox="0 0 1000.0 1000.0">
<path stroke="#000000" stroke-width="2" fill="none"
  d="M 197.0,822.6 L 197.0,109.7 L 909.9,109.7 L 909.9,822.6 L 197.0,822.6 "
 />

<g>

<text x="553.5" y="918.8" font-family="Arial" font-size="36.1" fill="#000000" text-anchor="middle">
gp 4 group
</text>

<text x="321.0" y="883.2" font-family="Arial" font-size="36.1" fill="#000000" text-anchor="middle">
1.A-
</text>

<text x="476.0" y="883.2" font-family="Arial" font-size="36.1" fill="#000000" text-anchor="middle">
1.B+
</text>

<text x="631.0" y="883.2" font-family="Arial" font-size="36.1" fill="#000000" text-anchor="middle">
2.A-
</text>

<text x="785.9" y="883.2" font-family="Arial" font-size="36.1" fill="#000000" text-anchor="middle">
2.B+
</text>
<path stroke="#000000" stroke-width="2" fill="none"
  d="M 197.0,822.6 L 909.9,822.6 M 243.5,840.4 L 243.5,804.8 M 321.0,840.4 L 321.0,804.8 M 398.5,840.4 L 398.5,804.8 M 476.0,840.4 L 476.0,804.8 M 553.5,840.4 L 553.5,804.8 M 631.0,840.4 L 631.0,804.8 M 708.4,840.4 L 708.4,804.8 M 785.9,840.4 L 785.9,804.8 M 863.4,840.4 L 863.4,804.8 "
 />
<path stroke="#000000" stroke-width="2" fill="none"
  d="M 197.0,109.7 L 909.9,109.7 M 243.5,127.5 L 243.5,91.9 M 321.0,127.5 L 321.0,91.9 M 398.5,127.5 L 398.5,91.9 M 476.0,127.5 L 476.0,91.9 M 553.5,127.5 L 553.5,91.9 M 631.0,127.5 L 631.0,91.9 M 708.4,127.5 L 708.4,91.9 M 785.9,127.5 L 785.9,91.9 M 863.4,127.5 L 863.4,91.9 "
 />

<text x="107.9" y="466.1" font-family="Arial" font-size="36.1" fill="#000000" writing-mode="tb" text-anchor="middle">
blicket out mean
</text>

<text x="172.1" y="829.9" font-family="Arial" font-size="36.1" fill="#000000" text-anchor="end">
0
</text>

<text x="172.1" y="690.1" font-family="Arial" font-size="36.1" fill="#000000" text-anchor="end">
0.2
</text>

<text x="172.1" y="550.3" font-family="Arial" font-size="36.1" fill="#000000" text-anchor="end">
0.4
</text>

<text x="172.1" y="410.5" font-family="Arial" font-size="36.1" fill="#000000" text-anchor="end">
0.6
</text>

<text x="172.1" y="270.7" font-family="Arial" font-size="36.1" fill="#000000" text-anchor="end">
0.8
</text>

<text x="172.1" y="130.9" font-family="Arial" font-size="36.1" fill="#000000" text-anchor="end">
1
</text>
<path stroke="#000000" stroke-width="2" fill="none"
  d="M 197.0,822.6 L 197.0,109.7 M 179.2,815.6 L 214.8,815.6 M 179.2,675.8 L 214.8,675.8 M 179.2,536.0 L 214.8,536.0 M 179.2,396.2 L 214.8,396.2 M 179.2,256.5 L 214.8,256.5 M 179.2,116.7 L 214.8,116.7 "
 />

<text x="999.0" y="466.1" font-family="Arial" font-size="36.1" fill="#ff0000" writing-mode="tb" text-anchor="middle">
people
</text>

<text x="934.9" y="829.9" font-family="Arial" font-size="36.1" fill="#ff0000" text-anchor="start">
0
</text>

<text x="934.9" y="655.1" font-family="Arial" font-size="36.1" fill="#ff0000" text-anchor="start">
0.5
</text>

<text x="934.9" y="480.4" font-family="Arial" font-size="36.1" fill="#ff0000" text-anchor="start">
1
</text>

<text x="934.9" y="305.7" font-family="Arial" font-size="36.1" fill="#ff0000" text-anchor="start">
1.5
</text>

<text x="934.9" y="130.9" font-family="Arial" font-size="36.1" fill="#ff0000" text-anchor="start">
2
</text>
<path stroke="#ff0000" stroke-width="2" fill="none"
  d="M 909.9,822.6 L 909.9,109.7 M 892.1,815.6 L 927.7,815.6 M 892.1,640.9 L 927.7,640.9 M 892.1,466.1 L 927.7,466.1 M 892.1,291.4 L 927.7,291.4 M 892.1,116.7 L 927.7,116.7 "
 />

</g>

<g transform="translate(0.0,-812.4)">

<g transform="translate(0.0,-0.0)">
<path stroke="#000000" stroke-width="4" fill="none"
  d="M 197.0,822.6 L 239.8,822.6 "
 />

<text x="246.9" y="836.9" font-family="Arial" font-size="36.1" fill="#000000" text-anchor="start">
blicket out mean
</text>

</g>

<g transform="translate(0.0,39.7)">
<path stroke="#ff0000" stroke-width="4" fill="none"
  d="M 197.0,822.6 L 239.8,822.6 "
 />

<text x="246.9" y="836.9" font-family="Arial" font-size="36.1" fill="#ff0000" text-anchor="start">
people
</text>

</g>

</g>
<path stroke="none" fill="#000000"
  d="M 257.6,824.5 L 257.6,256.2 L 319.9,256.2 L 319.9,824.5 
M 306.7,257.6 L 335.3,257.6 M 306.7,257.6 L 335.3,257.6 M 321.0,257.6 L 321.0,257.6 M 321.0,257.6 

M 413.5,824.5 L 413.5,803.4 L 475.8,803.4 L 475.8,824.5 
M 461.7,801.6 L 490.2,801.6 M 461.7,801.6 L 490.2,801.6 M 476.0,801.6 L 476.0,801.6 M 476.0,801.6 
M 569.4,824.5 L 569.4,170.6 L 631.7,170.6 L 631.7,824.5 
M 616.7,172.6 L 645.2,172.6 M 616.7,172.6 L 645.2,172.6 M 631.0,172.6 L 631.0,172.6 M 631.0,172.6 
M 725.3,824.5 L 725.3,395.6 L 787.6,395.6 L 787.6,824.5 
M 771.7,396.2 L 800.2,396.2 M 771.7,396.2 L 800.2,396.2 M 785.9,396.2 L 785.9,396.2 M 785.9,396.2 
"
 />
<path stroke="none" fill="#ff0000"
  d="
M 475.8,824.5 L 475.8,114.4 L 538.2,114.4 L 538.2,824.5 M 631.7,824.5 L 631.7,817.5 L 694.1,817.5 L 694.1,824.5 "
 />
</svg>
