<?xml version="1.0" encoding="UTF-8" standalone="no"?>
<svg
   xmlns:dc="http://purl.org/dc/elements/1.1/"
   xmlns:cc="http://creativecommons.org/ns#"
   xmlns:rdf="http://www.w3.org/1999/02/22-rdf-syntax-ns#"
   xmlns:svg="http://www.w3.org/2000/svg"
   xmlns="http://www.w3.org/2000/svg"
   xmlns:sodipodi="http://sodipodi.sourceforge.net/DTD/sodipodi-0.dtd"
   xmlns:inkscape="http://www.inkscape.org/namespaces/inkscape"
   version="1.1"
   width="400px"
   height="400px"
   viewBox="0 0 1000.0 1000.0"
   id="svg8221"
   inkscape:version="0.48.2 r9819"
   sodipodi:docname="fig_blicket_lg10_expt2_model_people.svg"
   inkscape:export-filename="/Users/oreilly/svn_sims/leabra/ti/fig_blicket_lg10_expt2_model_people.png"
   inkscape:export-xdpi="150"
   inkscape:export-ydpi="150">
  <metadata
     id="metadata8291">
    <rdf:RDF>
      <cc:Work
         rdf:about="">
        <dc:format>image/svg+xml</dc:format>
        <dc:type
           rdf:resource="http://purl.org/dc/dcmitype/StillImage" />
        <dc:title></dc:title>
      </cc:Work>
    </rdf:RDF>
  </metadata>
  <defs
     id="defs8289" />
  <sodipodi:namedview
     pagecolor="#ffffff"
     bordercolor="#666666"
     borderopacity="1"
     objecttolerance="10"
     gridtolerance="10"
     guidetolerance="10"
     inkscape:pageopacity="0"
     inkscape:pageshadow="2"
     inkscape:window-width="1728"
     inkscape:window-height="1122"
     id="namedview8287"
     showgrid="false"
     inkscape:zoom="0.74642639"
     inkscape:cx="267.08734"
     inkscape:cy="505.77529"
     inkscape:window-x="29"
     inkscape:window-y="0"
     inkscape:window-maximized="0"
     inkscape:current-layer="svg8221" />
  <rect
     style="fill:#ffffff;fill-opacity:1;fill-rule:nonzero;stroke:#ffffff;stroke-width:3.68509698;stroke-linejoin:round;stroke-miterlimit:4;stroke-opacity:1;stroke-dasharray:none;stroke-dashoffset:0"
     id="rect8726"
     width="2255.9485"
     height="936.25311"
     x="-571.25464"
     y="32.054565" />
  <text
     style="font-size:40px;font-style:normal;font-variant:normal;font-weight:normal;font-stretch:normal;text-align:start;line-height:125%;writing-mode:lr-tb;text-anchor:start;fill:#000000;font-family:Arial;-inkscape-font-specification:Arial"
     x="-66.482918"
     y="928.93939"
     font-size="31.3"
     id="text8283"
     sodipodi:linespacing="125%">Det. Disjunctive</text>
  <path
     style="fill:none;stroke:#000000;stroke-width:2"
     inkscape:connector-curvature="0"
     d="m -392.05443,830.88867 0,-619.7 929.6,0 0,619.7 -929.6,0"
     id="path8223" />
  <text
     id="text8229"
     font-size="37.6"
     y="889.7887"
     x="-314.55441"
     style="font-size:37.59999847px;text-anchor:middle;fill:#000000;font-family:Arial">D</text>
  <text
     id="text8231"
     font-size="37.6"
     y="889.7887"
     x="-237.15443"
     style="font-size:37.59999847px;text-anchor:middle;fill:#000000;font-family:Arial">E</text>
  <text
     id="text8233"
     font-size="37.6"
     y="889.7887"
     x="-159.65443"
     style="font-size:37.59999847px;text-anchor:middle;fill:#000000;font-family:Arial">F</text>
  <text
     id="text8235"
     font-size="37.6"
     y="889.7887"
     x="-4.7544355"
     style="font-size:37.59999847px;text-anchor:middle;fill:#000000;font-family:Arial">D</text>
  <text
     id="text8237"
     font-size="37.6"
     y="889.7887"
     x="72.745598"
     style="font-size:37.59999847px;text-anchor:middle;fill:#000000;font-family:Arial">E</text>
  <text
     id="text8239"
     font-size="37.6"
     y="889.7887"
     x="150.24559"
     style="font-size:37.59999847px;text-anchor:middle;fill:#000000;font-family:Arial">F</text>
  <text
     id="text8241"
     font-size="37.6"
     y="889.7887"
     x="305.14557"
     style="font-size:37.59999847px;text-anchor:middle;fill:#000000;font-family:Arial">D</text>
  <text
     id="text8243"
     font-size="37.6"
     y="889.7887"
     x="382.64557"
     style="font-size:37.59999847px;text-anchor:middle;fill:#000000;font-family:Arial">E</text>
  <text
     id="text8245"
     font-size="37.6"
     y="889.7887"
     x="460.04559"
     style="font-size:37.59999847px;text-anchor:middle;fill:#000000;font-family:Arial">F</text>
  <path
     id="path8247"
     d="m -392.05443,830.88867 929.6,0 m -929.6,15.5 0,-31 m 77.5,31 0,-31 m 77.4,31 0,-31 m 77.5,31 0,-31 m 77.500001,31 0,-31 m 77.3999997,31 0,-31 m 77.5000003,31 0,-31 m 77.499999,31 0,-31 m 77.4,31 0,-31 m 77.5,31 0,-31 m 77.5,31 0,-31 m 77.4,31 0,-31 m 77.5,31 0,-31"
     inkscape:connector-curvature="0"
     style="fill:none;stroke:#000000;stroke-width:2" />
  <path
     id="path8249"
     d="m -392.05443,211.18867 929.6,0 m -929.6,15.5 0,-31 m 77.5,31 0,-31 m 77.4,31 0,-31 m 77.5,31 0,-31 m 77.500001,31 0,-31 m 77.3999997,31 0,-31 m 77.5000003,31 0,-31 m 77.499999,31 0,-31 m 77.4,31 0,-31 m 77.5,31 0,-31 m 77.5,31 0,-31 m 77.4,31 0,-31 m 77.5,31 0,-31"
     inkscape:connector-curvature="0"
     style="fill:none;stroke:#000000;stroke-width:2" />
  <text
     id="text8253"
     font-size="37.6"
     y="807.08868"
     x="-413.75443"
     style="font-size:37.59999847px;text-anchor:end;fill:#000000;font-family:Arial">0.5</text>
  <text
     id="text8255"
     font-size="37.6"
     y="710.18866"
     x="-413.75443"
     style="font-size:37.59999847px;text-anchor:end;fill:#000000;font-family:Arial">0.55</text>
  <text
     id="text8257"
     font-size="37.6"
     y="613.38867"
     x="-413.75443"
     style="font-size:37.59999847px;text-anchor:end;fill:#000000;font-family:Arial">0.6</text>
  <text
     id="text8259"
     font-size="37.6"
     y="516.58868"
     x="-413.75443"
     style="font-size:37.59999847px;text-anchor:end;fill:#000000;font-family:Arial">0.65</text>
  <text
     id="text8261"
     font-size="37.6"
     y="419.68866"
     x="-413.75443"
     style="font-size:37.59999847px;text-anchor:end;fill:#000000;font-family:Arial">0.7</text>
  <text
     id="text8263"
     font-size="37.6"
     y="322.88867"
     x="-413.75443"
     style="font-size:37.59999847px;text-anchor:end;fill:#000000;font-family:Arial">0.75</text>
  <text
     id="text8265"
     font-size="37.6"
     y="226.08868"
     x="-413.75443"
     style="font-size:37.59999847px;text-anchor:end;fill:#000000;font-family:Arial">0.8</text>
  <path
     id="path8267"
     d="m -392.05443,830.88867 0,-619.7 m -15.5,581 31,0 m -31,-96.8 31,0 m -31,-96.9 31,0 m -31,-96.8 31,0 m -31,-96.8 31,0 m -31,-96.9 31,0 m -31,-96.8 31,0"
     inkscape:connector-curvature="0"
     style="fill:none;stroke:#000000;stroke-width:2" />
  <path
     id="path8269"
     d="m 537.54557,830.88867 0,-619.7 m -15.5,581 31,0 m -31,-96.8 31,0 m -31,-96.9 31,0 m -31,-96.8 31,0 m -31,-96.8 31,0 m -31,-96.9 31,0 m -31,-96.8 31,0"
     inkscape:connector-curvature="0"
     style="fill:none;stroke:#000000;stroke-width:2" />
  <path
     style="fill:#000000;stroke:none"
     inkscape:connector-curvature="0"
     d="m -347.55443,832.38867 0,-127.8 62.2,0 0,127.8 m -41.6,-123.9 24.8,0 m -24.8,-9.4 24.8,0 m -12.4,9.4 0,-9.4 m 0,4.7 m 44.8,128.6 0,-17 62.3,0 0,17 m -42.1,-14.2 24.8,0 m -24.8,-8.3 24.8,0 m -12.4,8.3 0,-8.3 m 0,4.1 m 45.3,18.4 0,-290.5 62.3,0 0,290.5 m -42.5,-286.7 24.8,0 m -24.8,-7.6 24.8,0 m -12.4,7.6 0,-7.6 m 0,3.8 m 123.500001,290.5 0,-68.9 62.3,0 0,68.9 m -43.3,-65.7 24.7999997,0 m -24.7999997,-8.6 24.7999997,0 m -12.4,8.6 0,-8.6 m 0,4.3 m 46.5000003,70 0,-45 62.299999,0 0,45 m -43.699999,-42.1 24.8,0 m -24.8,-8.1 24.8,0 m -12.4,8.1 0,-8.1 m 0,4 m 46.899999,46.2 0,-282.6 62.2,0 0,282.6 m -44,-278.4 24.8,0 m -24.8,-8.3 24.8,0 m -12.4,8.3 0,-8.3 m 0,4.2 m 125.1,282.5 0,-283.6 62.3,0 0,283.6 m -44.9,-279.2 24.8,0 m -24.8,-8.6 24.8,0 m -12.4,8.6 0,-8.6 m 0,4.3 m 48.1,283.5 0,-150.8 62.2,0 0,150.8 m -45.2,-147.5 24.8,0 m -24.8,-7.9 24.8,0 m -12.4,7.9 0,-7.9 m 0,4 m 48.4,151.4 0,-561.1 62.3,0 0,561.1 m -45.7,-556.4 24.8,0 m -24.8,-6.5 24.8,0 m -12.4,6.5 0,-6.5 m 0,3.3"
     id="path8279" />
  <text
     style="font-size:40px;font-style:normal;font-variant:normal;font-weight:normal;font-stretch:normal;text-align:start;line-height:125%;writing-mode:lr-tb;text-anchor:start;fill:#000000;font-family:Arial;-inkscape-font-specification:Arial"
     x="-341.422"
     y="928.93939"
     font-size="31.3"
     id="text8281"
     sodipodi:linespacing="125%">Conjunctive</text>
  <text
     style="font-size:40px;font-style:normal;font-variant:normal;font-weight:normal;font-stretch:normal;text-align:start;line-height:125%;writing-mode:lr-tb;text-anchor:start;fill:#000000;font-family:Arial;-inkscape-font-specification:Arial"
     x="230.07719"
     y="928.93939"
     font-size="31.3"
     id="text8285"
     sodipodi:linespacing="125%">Noisy Disjunctive</text>
  <path
     style="fill:none;stroke:#000000;stroke-width:2"
     inkscape:connector-curvature="0"
     d="m 614.41447,828.4887 0,-619.7 929.60003,0 0,619.7 -929.60003,0"
     id="path8413" />
  <text
     id="text8419"
     font-size="37.6"
     y="887.38873"
     x="691.91443"
     style="font-size:37.59999847px;text-anchor:middle;fill:#000000;font-family:Arial">D</text>
  <text
     id="text8421"
     font-size="37.6"
     y="887.38873"
     x="769.41443"
     style="font-size:37.59999847px;text-anchor:middle;fill:#000000;font-family:Arial">E</text>
  <text
     id="text8423"
     font-size="37.6"
     y="887.38873"
     x="846.81445"
     style="font-size:37.59999847px;text-anchor:middle;fill:#000000;font-family:Arial">F</text>
  <text
     id="text8425"
     font-size="37.6"
     y="887.38873"
     x="1001.8145"
     style="font-size:37.59999847px;text-anchor:middle;fill:#000000;font-family:Arial">D</text>
  <text
     id="text8427"
     font-size="37.6"
     y="887.38873"
     x="1079.2145"
     style="font-size:37.59999847px;text-anchor:middle;fill:#000000;font-family:Arial">E</text>
  <text
     id="text8429"
     font-size="37.6"
     y="887.38873"
     x="1156.7145"
     style="font-size:37.59999847px;text-anchor:middle;fill:#000000;font-family:Arial">F</text>
  <text
     id="text8431"
     font-size="37.6"
     y="887.38873"
     x="1311.6145"
     style="font-size:37.59999847px;text-anchor:middle;fill:#000000;font-family:Arial">D</text>
  <text
     id="text8433"
     font-size="37.6"
     y="887.38873"
     x="1389.1145"
     style="font-size:37.59999847px;text-anchor:middle;fill:#000000;font-family:Arial">E</text>
  <text
     id="text8435"
     font-size="37.6"
     y="887.38873"
     x="1466.6145"
     style="font-size:37.59999847px;text-anchor:middle;fill:#000000;font-family:Arial">F</text>
  <path
     id="path8437"
     d="m 614.41447,828.4887 929.60003,0 m -929.60003,15.5 0,-31 m 77.5,31 0,-31 m 77.5,31 0,-31 m 77.4,31 0,-31 m 77.5,31 0,-31 m 77.50003,31 0,-31 m 77.4,31 0,-31 m 77.5,31 0,-31 m 77.5,31 0,-31 m 77.4,31 0,-31 m 77.5,31 0,-31 m 77.5,31 0,-31 m 77.4,31 0,-31"
     inkscape:connector-curvature="0"
     style="fill:none;stroke:#000000;stroke-width:2" />
  <path
     id="path8439"
     d="m 614.41447,208.7887 929.60003,0 m -929.60003,15.5 0,-31 m 77.5,31 0,-31 m 77.5,31 0,-31 m 77.4,31 0,-31 m 77.5,31 0,-31 m 77.50003,31 0,-31 m 77.4,31 0,-31 m 77.5,31 0,-31 m 77.5,31 0,-31 m 77.4,31 0,-31 m 77.5,31 0,-31 m 77.5,31 0,-31 m 77.4,31 0,-31"
     inkscape:connector-curvature="0"
     style="fill:none;stroke:#000000;stroke-width:2" />
  <text
     id="text8443"
     font-size="37.6"
     y="843.38873"
     x="1595.8275"
     style="font-size:37.59999847px;text-anchor:end;fill:#000000;font-family:Arial">0</text>
  <text
     id="text8445"
     font-size="37.6"
     y="781.38873"
     x="1593.2938"
     style="font-size:37.59999847px;text-anchor:end;fill:#000000;font-family:Arial">1</text>
  <text
     id="text8447"
     font-size="37.6"
     y="719.48871"
     x="1596.2865"
     style="font-size:37.59999847px;text-anchor:end;fill:#000000;font-family:Arial">2</text>
  <text
     id="text8449"
     font-size="37.6"
     y="657.48871"
     x="1595.8092"
     style="font-size:37.59999847px;text-anchor:end;fill:#000000;font-family:Arial">3</text>
  <text
     id="text8451"
     font-size="37.6"
     y="595.48871"
     x="1596.9108"
     style="font-size:37.59999847px;text-anchor:end;fill:#000000;font-family:Arial">4</text>
  <text
     id="text8453"
     font-size="37.6"
     y="533.48871"
     x="1595.8275"
     style="font-size:37.59999847px;text-anchor:end;fill:#000000;font-family:Arial">5</text>
  <text
     id="text8455"
     font-size="37.6"
     y="471.58868"
     x="1595.9745"
     style="font-size:37.59999847px;text-anchor:end;fill:#000000;font-family:Arial">6</text>
  <text
     id="text8457"
     font-size="37.6"
     y="409.58868"
     x="1595.6073"
     style="font-size:37.59999847px;text-anchor:end;fill:#000000;font-family:Arial">7</text>
  <text
     id="text8459"
     font-size="37.6"
     y="347.58868"
     x="1595.8641"
     style="font-size:37.59999847px;text-anchor:end;fill:#000000;font-family:Arial">8</text>
  <text
     id="text8461"
     font-size="37.6"
     y="285.58868"
     x="1595.8275"
     style="font-size:37.59999847px;text-anchor:end;fill:#000000;font-family:Arial">9</text>
  <text
     id="text8463"
     font-size="37.6"
     y="223.68872"
     x="1614.2235"
     style="font-size:37.59999847px;text-anchor:end;fill:#000000;font-family:Arial">10</text>
  <path
     id="path8465"
     d="m 614.41447,828.4887 0,-619.7 m -15.5,619.7 31,0 m -31,-61.9 31,0 m -31,-62 31,0 m -31,-62 31,0 m -31,-62 31,0 m -31,-61.9 31,0 m -31,-62 31,0 m -31,-62 31,0 m -31,-62 31,0 m -31,-61.9 31,0 m -31,-62 31,0"
     inkscape:connector-curvature="0"
     style="fill:none;stroke:#000000;stroke-width:2" />
  <path
     id="path8467"
     d="m 1544.0145,828.4887 0,-619.7 m -15.5,619.7 31,0 m -31,-61.9 31,0 m -31,-62 31,0 m -31,-62 31,0 m -31,-62 31,0 m -31,-61.9 31,0 m -31,-62 31,0 m -31,-62 31,0 m -31,-62 31,0 m -31,-61.9 31,0 m -31,-62 31,0"
     inkscape:connector-curvature="0"
     style="fill:none;stroke:#000000;stroke-width:2" />
  <path
     style="fill:#000000;stroke:none"
     inkscape:connector-curvature="0"
     d="m 659.01447,829.9887 0,-168.2 62.2,0 0,168.2 m -41.7,-168.6 24.8,0 m -24.8,-0.3 24.8,0 m -12.4,0.3 0,-0.3 m 0,0.1 m 44.9,168.8 0,-130.9 62.3,0 0,130.9 m -42.1,-131.5 24.8,0 m -24.8,-0.2 24.8,0 m -12.4,0.2 0,-0.2 m 0,0.1 m 45.3,131.6 0,-485.9 62.3,0 0,485.9 m -42.6,-484.7 24.8,0 m -24.8,-0.3 24.8,0 m -12.4,0.3 0,-0.3 m 0,0.1 m 123.6,484.9 0,-31.2 62.30003,0 0,31.2 m -43.30003,-32.3 24.80003,0 m -24.80003,-0.3 24.80003,0 m -12.4,0.3 0,-0.3 m 0,0.1 m 46.5,32.5 0,-62.3 62.3,0 0,62.3 m -43.8,-63.3 24.8,0 m -24.8,-0.3 24.8,0 m -12.4,0.3 0,-0.3 m 0,0.2 m 47,63.4 0,-560.7 62.3,0 0,560.7 m -44.2,-559.1 24.8,0 m -24.8,-0.3 24.8,0 m -12.4,0.3 0,-0.3 m 0,0.2 m 125.2,559.2 0,-143.3 62.3,0 0,143.3 m -45,-143.9 24.8,0 m -24.8,-0.2 24.8,0 m -12.4,0.2 0,-0.2 m 0,0.1 m 48.2,144 0,-74.8 62.3,0 0,74.8 m -45.4,-75.7 24.8,0 m -24.8,-0.3 24.8,0 m -12.4,0.3 0,-0.3 m 0,0.2 m 48.5,75.8 0,-498.4 62.3,0 0,498.4 m -45.7,-497.2 24.8,0 m -24.8,-0.2 24.8,0 m -12.4,0.2 0,-0.2 m 0,0.1"
     id="path8477" />
  <text
     style="font-size:40px;font-style:normal;font-variant:normal;font-weight:normal;font-stretch:normal;text-align:start;line-height:125%;writing-mode:lr-tb;text-anchor:start;fill:#000000;font-family:Arial;-inkscape-font-specification:Arial"
     x="1236.5461"
     y="928.93939"
     font-size="31.3"
     id="text8479"
     sodipodi:linespacing="125%">Noisy Disjunctive</text>
  <text
     style="font-size:40px;font-style:normal;font-variant:normal;font-weight:normal;font-stretch:normal;text-align:start;line-height:125%;writing-mode:lr-tb;text-anchor:start;fill:#000000;font-family:Arial;-inkscape-font-specification:Arial"
     x="939.98596"
     y="928.93939"
     font-size="31.3"
     id="text8481"
     sodipodi:linespacing="125%">Det. Disjunctive</text>
  <text
     style="font-size:40px;font-style:normal;font-variant:normal;font-weight:normal;font-stretch:normal;text-align:start;line-height:125%;writing-mode:lr-tb;text-anchor:start;fill:#000000;font-family:Arial;-inkscape-font-specification:Arial"
     x="665.14685"
     y="928.93939"
     font-size="31.3"
     id="text8483"
     sodipodi:linespacing="125%">Conjunctive</text>
  <text
     xml:space="preserve"
     style="font-size:45px;font-style:normal;font-variant:normal;font-weight:normal;font-stretch:normal;text-indent:0;text-align:start;text-decoration:none;line-height:100%;letter-spacing:0px;word-spacing:0px;text-transform:none;direction:ltr;block-progression:tb;writing-mode:lr-tb;text-anchor:start;color:#000000;fill:#000000;fill-opacity:1;fill-rule:nonzero;stroke:none;stroke-width:1px;marker:none;visibility:visible;display:inline;overflow:visible;enable-background:accumulate;font-family:Arial;-inkscape-font-specification:Arial"
     x="378.9256"
     y="-1625.4757"
     id="text8706"
     sodipodi:linespacing="100%"
     transform="matrix(0,1,-1,0,0,0)"><tspan
       sodipodi:role="line"
       id="tspan8708"
       x="378.9256"
       y="-1625.4757">Mean Ratings</tspan></text>
  <text
     xml:space="preserve"
     style="font-size:45px;font-style:normal;font-variant:normal;font-weight:normal;font-stretch:normal;text-indent:0;text-align:start;text-decoration:none;line-height:100%;letter-spacing:0px;word-spacing:0px;text-transform:none;direction:ltr;block-progression:tb;writing-mode:lr-tb;text-anchor:start;color:#000000;fill:#000000;fill-opacity:1;fill-rule:nonzero;stroke:none;stroke-width:1px;marker:none;visibility:visible;display:inline;overflow:visible;enable-background:accumulate;font-family:Arial;-inkscape-font-specification:Arial"
     x="-820.85559"
     y="-508.83951"
     id="text8710"
     sodipodi:linespacing="100%"
     transform="matrix(0,-1,1,0,0,0)"><tspan
       sodipodi:role="line"
       id="tspan8712"
       x="-820.85559"
       y="-508.83951">Model Proportion Blicket = On</tspan></text>
  <text
     xml:space="preserve"
     style="font-size:45px;font-style:normal;font-variant:normal;font-weight:normal;font-stretch:normal;text-indent:0;text-align:start;text-decoration:none;line-height:100%;letter-spacing:0px;word-spacing:0px;text-transform:none;direction:ltr;block-progression:tb;writing-mode:lr-tb;text-anchor:start;color:#000000;fill:#000000;fill-opacity:1;fill-rule:nonzero;stroke:none;stroke-width:1px;marker:none;visibility:visible;display:inline;overflow:visible;enable-background:accumulate;font-family:Arial;-inkscape-font-specification:Arial"
     x="-30.143625"
     y="176.07416"
     id="text8714"
     sodipodi:linespacing="100%"><tspan
       sodipodi:role="line"
       id="tspan8716"
       x="-30.143625"
       y="176.07416"
       style="font-size:60px">TI Model</tspan></text>
  <text
     sodipodi:linespacing="100%"
     id="text8718"
     y="176.07416"
     x="956.2229"
     style="font-size:45px;font-style:normal;font-variant:normal;font-weight:normal;font-stretch:normal;text-indent:0;text-align:start;text-decoration:none;line-height:100%;letter-spacing:0px;word-spacing:0px;text-transform:none;direction:ltr;block-progression:tb;writing-mode:lr-tb;text-anchor:start;color:#000000;fill:#000000;fill-opacity:1;fill-rule:nonzero;stroke:none;stroke-width:1px;marker:none;visibility:visible;display:inline;overflow:visible;enable-background:accumulate;font-family:Arial;-inkscape-font-specification:Arial"
     xml:space="preserve"><tspan
       style="font-size:60px"
       y="176.07416"
       x="956.2229"
       id="tspan8720"
       sodipodi:role="line">People</tspan></text>
  <text
     xml:space="preserve"
     style="font-size:45px;font-style:normal;font-variant:normal;font-weight:normal;font-stretch:normal;text-indent:0;text-align:start;text-decoration:none;line-height:100%;letter-spacing:0px;word-spacing:0px;text-transform:none;direction:ltr;block-progression:tb;writing-mode:lr-tb;text-anchor:start;color:#000000;fill:#000000;fill-opacity:1;fill-rule:nonzero;stroke:none;stroke-width:1px;marker:none;visibility:visible;display:inline;overflow:visible;enable-background:accumulate;font-family:Arial;-inkscape-font-specification:Arial"
     x="128.94774"
     y="99.040466"
     id="text8722"
     sodipodi:linespacing="100%"><tspan
       sodipodi:role="line"
       id="tspan8724"
       x="128.94774"
       y="99.040466"
       style="font-size:60px">Lucas &amp; Griffiths (2010), Expt 2</tspan></text>
</svg>
