<?xml version="1.0" encoding="UTF-8" standalone="no"?>
<svg
  xmlns="http://www.w3.org/2000/svg" version="1.1"
  width="400px"
  height="400px"
  viewBox="0 0 1000.0 1000.0">
<path stroke="#000000" stroke-width="2" fill="none"
  d="M 60.1,777.3 L 60.1,157.6 L 989.7,157.6 L 989.7,777.3 L 60.1,777.3 "
 />

<g>

<text x="524.9" y="870.3" font-family="Arial" font-size="37.6" fill="#000000" text-anchor="middle">
gp 5 group
</text>

<text x="137.6" y="836.2" font-family="Arial" font-size="37.6" fill="#000000" text-anchor="middle">
D
</text>

<text x="215.0" y="836.2" font-family="Arial" font-size="37.6" fill="#000000" text-anchor="middle">
E
</text>

<text x="292.5" y="836.2" font-family="Arial" font-size="37.6" fill="#000000" text-anchor="middle">
F
</text>

<text x="447.4" y="836.2" font-family="Arial" font-size="37.6" fill="#000000" text-anchor="middle">
D
</text>

<text x="524.9" y="836.2" font-family="Arial" font-size="37.6" fill="#000000" text-anchor="middle">
E
</text>

<text x="602.4" y="836.2" font-family="Arial" font-size="37.6" fill="#000000" text-anchor="middle">
F
</text>

<text x="757.3" y="836.2" font-family="Arial" font-size="37.6" fill="#000000" text-anchor="middle">
D
</text>

<text x="834.8" y="836.2" font-family="Arial" font-size="37.6" fill="#000000" text-anchor="middle">
E
</text>

<text x="912.2" y="836.2" font-family="Arial" font-size="37.6" fill="#000000" text-anchor="middle">
F
</text>
<path stroke="#000000" stroke-width="2" fill="none"
  d="M 60.1,777.3 L 989.7,777.3 M 60.1,792.8 L 60.1,761.8 M 137.6,792.8 L 137.6,761.8 M 215.0,792.8 L 215.0,761.8 M 292.5,792.8 L 292.5,761.8 M 370.0,792.8 L 370.0,761.8 M 447.4,792.8 L 447.4,761.8 M 524.9,792.8 L 524.9,761.8 M 602.4,792.8 L 602.4,761.8 M 679.8,792.8 L 679.8,761.8 M 757.3,792.8 L 757.3,761.8 M 834.8,792.8 L 834.8,761.8 M 912.2,792.8 L 912.2,761.8 M 989.7,792.8 L 989.7,761.8 "
 />
<path stroke="#000000" stroke-width="2" fill="none"
  d="M 60.1,157.6 L 989.7,157.6 M 60.1,173.1 L 60.1,142.1 M 137.6,173.1 L 137.6,142.1 M 215.0,173.1 L 215.0,142.1 M 292.5,173.1 L 292.5,142.1 M 370.0,173.1 L 370.0,142.1 M 447.4,173.1 L 447.4,142.1 M 524.9,173.1 L 524.9,142.1 M 602.4,173.1 L 602.4,142.1 M 679.8,173.1 L 679.8,142.1 M 757.3,173.1 L 757.3,142.1 M 834.8,173.1 L 834.8,142.1 M 912.2,173.1 L 912.2,142.1 M 989.7,173.1 L 989.7,142.1 "
 />

<text x="-25.4" y="467.5" font-family="Arial" font-size="37.6" fill="#000000" writing-mode="tb" text-anchor="middle">
blicket out mean
</text>

<text x="38.4" y="753.5" font-family="Arial" font-size="37.6" fill="#000000" text-anchor="end">
0.5
</text>

<text x="38.4" y="656.6" font-family="Arial" font-size="37.6" fill="#000000" text-anchor="end">
0.55
</text>

<text x="38.4" y="559.8" font-family="Arial" font-size="37.6" fill="#000000" text-anchor="end">
0.6
</text>

<text x="38.4" y="463.0" font-family="Arial" font-size="37.6" fill="#000000" text-anchor="end">
0.65
</text>

<text x="38.4" y="366.1" font-family="Arial" font-size="37.6" fill="#000000" text-anchor="end">
0.7
</text>

<text x="38.4" y="269.3" font-family="Arial" font-size="37.6" fill="#000000" text-anchor="end">
0.75
</text>

<text x="38.4" y="172.5" font-family="Arial" font-size="37.6" fill="#000000" text-anchor="end">
0.8
</text>
<path stroke="#000000" stroke-width="2" fill="none"
  d="M 60.1,777.3 L 60.1,157.6 M 44.6,738.6 L 75.6,738.6 M 44.6,641.8 L 75.6,641.8 M 44.6,544.9 L 75.6,544.9 M 44.6,448.1 L 75.6,448.1 M 44.6,351.3 L 75.6,351.3 M 44.6,254.4 L 75.6,254.4 M 44.6,157.6 L 75.6,157.6 "
 />
<path stroke="#000000" stroke-width="2" fill="none"
  d="M 989.7,777.3 L 989.7,157.6 M 974.2,738.6 L 1005.2,738.6 M 974.2,641.8 L 1005.2,641.8 M 974.2,544.9 L 1005.2,544.9 M 974.2,448.1 L 1005.2,448.1 M 974.2,351.3 L 1005.2,351.3 M 974.2,254.4 L 1005.2,254.4 M 974.2,157.6 L 1005.2,157.6 "
 />

</g>

<g transform="translate(0.0,-720.8)">

<g transform="translate(0.0,-0.0)">
<path stroke="#000000" stroke-width="4" fill="none"
  d="M 60.1,777.3 L 106.6,777.3 "
 />

<text x="112.8" y="792.8" font-family="Arial" font-size="31.3" fill="#000000" text-anchor="start">
blicket out mean
</text>

</g>

</g>
<path stroke="none" fill="#000000"
  d="M 104.6,778.8 L 104.6,651.0 L 166.8,651.0 L 166.8,778.8 
M 125.2,654.9 L 150.0,654.9 M 125.2,645.5 L 150.0,645.5 M 137.6,654.9 L 137.6,645.5 M 137.6,650.2 

M 182.4,778.8 L 182.4,761.8 L 244.7,761.8 L 244.7,778.8 
M 202.6,764.6 L 227.4,764.6 M 202.6,756.3 L 227.4,756.3 M 215.0,764.6 L 215.0,756.3 M 215.0,760.4 
M 260.3,778.8 L 260.3,488.3 L 322.6,488.3 L 322.6,778.8 
M 280.1,492.1 L 304.9,492.1 M 280.1,484.5 L 304.9,484.5 M 292.5,492.1 L 292.5,484.5 M 292.5,488.3 
M 416.0,778.8 L 416.0,709.9 L 478.3,709.9 L 478.3,778.8 
M 435.0,713.1 L 459.8,713.1 M 435.0,704.5 L 459.8,704.5 M 447.4,713.1 L 447.4,704.5 M 447.4,708.8 
M 493.9,778.8 L 493.9,733.8 L 556.2,733.8 L 556.2,778.8 
M 512.5,736.7 L 537.3,736.7 M 512.5,728.6 L 537.3,728.6 M 524.9,736.7 L 524.9,728.6 M 524.9,732.6 
M 571.8,778.8 L 571.8,496.2 L 634.0,496.2 L 634.0,778.8 
M 590.0,500.4 L 614.8,500.4 M 590.0,492.1 L 614.8,492.1 M 602.4,500.4 L 602.4,492.1 M 602.4,496.3 
M 727.5,778.8 L 727.5,495.2 L 789.8,495.2 L 789.8,778.8 
M 744.9,499.6 L 769.7,499.6 M 744.9,491.0 L 769.7,491.0 M 757.3,499.6 L 757.3,491.0 M 757.3,495.3 
M 805.4,778.8 L 805.4,628.0 L 867.6,628.0 L 867.6,778.8 
M 822.4,631.3 L 847.2,631.3 M 822.4,623.4 L 847.2,623.4 M 834.8,631.3 L 834.8,623.4 M 834.8,627.4 
M 883.2,778.8 L 883.2,217.7 L 945.5,217.7 L 945.5,778.8 
M 899.8,222.4 L 924.6,222.4 M 899.8,215.9 L 924.6,215.9 M 912.2,222.4 L 912.2,215.9 M 912.2,219.2 
"
 />

<text x="142.2" y="878.7" font-family="Arial" font-size="31.3" fill="#000000" text-anchor="start">
Conjunctive
</text>

<text x="422.1" y="876.3" font-family="Arial" font-size="31.3" fill="#000000" text-anchor="start">
Det. Disjunctive
</text>

<text x="726.2" y="869.0" font-family="Arial" font-size="31.3" fill="#000000" text-anchor="start">
Noisy Disjunctive
</text>
</svg>
