<?xml version="1.0" encoding="UTF-8" standalone="no"?>
<svg
   xmlns:dc="http://purl.org/dc/elements/1.1/"
   xmlns:cc="http://creativecommons.org/ns#"
   xmlns:rdf="http://www.w3.org/1999/02/22-rdf-syntax-ns#"
   xmlns:svg="http://www.w3.org/2000/svg"
   xmlns="http://www.w3.org/2000/svg"
   xmlns:sodipodi="http://sodipodi.sourceforge.net/DTD/sodipodi-0.dtd"
   xmlns:inkscape="http://www.inkscape.org/namespaces/inkscape"
   version="1.1"
   width="400px"
   height="400px"
   viewBox="0 0 1000.0 1000.0"
   id="svg8221"
   inkscape:version="0.48.2 r9819"
   sodipodi:docname="fig_blicket_lg10_all.svg"
   inkscape:export-filename="/Users/oreilly/svn_sims/leabra/ti/fig_blicket_lg10_all.png"
   inkscape:export-xdpi="150"
   inkscape:export-ydpi="150">
  <metadata
     id="metadata8291">
    <rdf:RDF>
      <cc:Work
         rdf:about="">
        <dc:format>image/svg+xml</dc:format>
        <dc:type
           rdf:resource="http://purl.org/dc/dcmitype/StillImage" />
        <dc:title></dc:title>
      </cc:Work>
    </rdf:RDF>
  </metadata>
  <defs
     id="defs8289" />
  <sodipodi:namedview
     pagecolor="#ffffff"
     bordercolor="#666666"
     borderopacity="1"
     objecttolerance="10"
     gridtolerance="10"
     guidetolerance="10"
     inkscape:pageopacity="0"
     inkscape:pageshadow="2"
     inkscape:window-width="1728"
     inkscape:window-height="1122"
     id="namedview8287"
     showgrid="false"
     inkscape:zoom="0.74642639"
     inkscape:cx="98.952877"
     inkscape:cy="184.24325"
     inkscape:window-x="29"
     inkscape:window-y="0"
     inkscape:window-maximized="0"
     inkscape:current-layer="svg8221" />
  <g
     id="g14428">
    <rect
       y="32.054565"
       x="-571.25464"
       height="936.25311"
       width="2255.9485"
       id="rect8726"
       style="fill:#ffffff;fill-opacity:1;fill-rule:nonzero;stroke:#ffffff;stroke-width:3.68509698;stroke-linejoin:round;stroke-miterlimit:4;stroke-opacity:1;stroke-dasharray:none;stroke-dashoffset:0" />
    <text
       sodipodi:linespacing="125%"
       id="text8283"
       font-size="31.3"
       y="928.93939"
       x="-66.482918"
       style="font-size:40px;font-style:normal;font-variant:normal;font-weight:normal;font-stretch:normal;text-align:start;line-height:125%;writing-mode:lr-tb;text-anchor:start;fill:#000000;font-family:Arial;-inkscape-font-specification:Arial">Det. Disjunctive</text>
    <path
       id="path8223"
       d="m -392.05443,830.88867 0,-619.7 929.6,0 0,619.7 -929.6,0"
       inkscape:connector-curvature="0"
       style="fill:none;stroke:#000000;stroke-width:2" />
    <text
       style="font-size:37.59999847px;text-anchor:middle;fill:#000000;font-family:Arial"
       x="-314.55441"
       y="889.7887"
       font-size="37.6"
       id="text8229">D</text>
    <text
       style="font-size:37.59999847px;text-anchor:middle;fill:#000000;font-family:Arial"
       x="-237.15443"
       y="889.7887"
       font-size="37.6"
       id="text8231">E</text>
    <text
       style="font-size:37.59999847px;text-anchor:middle;fill:#000000;font-family:Arial"
       x="-159.65443"
       y="889.7887"
       font-size="37.6"
       id="text8233">F</text>
    <text
       style="font-size:37.59999847px;text-anchor:middle;fill:#000000;font-family:Arial"
       x="-4.7544355"
       y="889.7887"
       font-size="37.6"
       id="text8235">D</text>
    <text
       style="font-size:37.59999847px;text-anchor:middle;fill:#000000;font-family:Arial"
       x="72.745598"
       y="889.7887"
       font-size="37.6"
       id="text8237">E</text>
    <text
       style="font-size:37.59999847px;text-anchor:middle;fill:#000000;font-family:Arial"
       x="150.24559"
       y="889.7887"
       font-size="37.6"
       id="text8239">F</text>
    <text
       style="font-size:37.59999847px;text-anchor:middle;fill:#000000;font-family:Arial"
       x="305.14557"
       y="889.7887"
       font-size="37.6"
       id="text8241">D</text>
    <text
       style="font-size:37.59999847px;text-anchor:middle;fill:#000000;font-family:Arial"
       x="382.64557"
       y="889.7887"
       font-size="37.6"
       id="text8243">E</text>
    <text
       style="font-size:37.59999847px;text-anchor:middle;fill:#000000;font-family:Arial"
       x="460.04559"
       y="889.7887"
       font-size="37.6"
       id="text8245">F</text>
    <path
       style="fill:none;stroke:#000000;stroke-width:2"
       inkscape:connector-curvature="0"
       d="m -392.05443,830.88867 929.6,0 m -929.6,15.5 0,-31 m 77.5,31 0,-31 m 77.4,31 0,-31 m 77.5,31 0,-31 m 77.500001,31 0,-31 m 77.3999997,31 0,-31 m 77.5000003,31 0,-31 m 77.499999,31 0,-31 m 77.4,31 0,-31 m 77.5,31 0,-31 m 77.5,31 0,-31 m 77.4,31 0,-31 m 77.5,31 0,-31"
       id="path8247" />
    <path
       style="fill:none;stroke:#000000;stroke-width:2"
       inkscape:connector-curvature="0"
       d="m -392.05443,211.18867 929.6,0 m -929.6,15.5 0,-31 m 77.5,31 0,-31 m 77.4,31 0,-31 m 77.5,31 0,-31 m 77.500001,31 0,-31 m 77.3999997,31 0,-31 m 77.5000003,31 0,-31 m 77.499999,31 0,-31 m 77.4,31 0,-31 m 77.5,31 0,-31 m 77.5,31 0,-31 m 77.4,31 0,-31 m 77.5,31 0,-31"
       id="path8249" />
    <text
       style="font-size:37.59999847px;text-anchor:end;fill:#000000;font-family:Arial"
       x="-413.75443"
       y="807.08868"
       font-size="37.6"
       id="text8253">0.5</text>
    <text
       style="font-size:37.59999847px;text-anchor:end;fill:#000000;font-family:Arial"
       x="-413.75443"
       y="710.18866"
       font-size="37.6"
       id="text8255">0.55</text>
    <text
       style="font-size:37.59999847px;text-anchor:end;fill:#000000;font-family:Arial"
       x="-413.75443"
       y="613.38867"
       font-size="37.6"
       id="text8257">0.6</text>
    <text
       style="font-size:37.59999847px;text-anchor:end;fill:#000000;font-family:Arial"
       x="-413.75443"
       y="516.58868"
       font-size="37.6"
       id="text8259">0.65</text>
    <text
       style="font-size:37.59999847px;text-anchor:end;fill:#000000;font-family:Arial"
       x="-413.75443"
       y="419.68866"
       font-size="37.6"
       id="text8261">0.7</text>
    <text
       style="font-size:37.59999847px;text-anchor:end;fill:#000000;font-family:Arial"
       x="-413.75443"
       y="322.88867"
       font-size="37.6"
       id="text8263">0.75</text>
    <text
       style="font-size:37.59999847px;text-anchor:end;fill:#000000;font-family:Arial"
       x="-413.75443"
       y="226.08868"
       font-size="37.6"
       id="text8265">0.8</text>
    <path
       style="fill:none;stroke:#000000;stroke-width:2"
       inkscape:connector-curvature="0"
       d="m -392.05443,830.88867 0,-619.7 m -15.5,581 31,0 m -31,-96.8 31,0 m -31,-96.9 31,0 m -31,-96.8 31,0 m -31,-96.8 31,0 m -31,-96.9 31,0 m -31,-96.8 31,0"
       id="path8267" />
    <path
       style="fill:none;stroke:#000000;stroke-width:2"
       inkscape:connector-curvature="0"
       d="m 537.54557,830.88867 0,-619.7 m -15.5,581 31,0 m -31,-96.8 31,0 m -31,-96.9 31,0 m -31,-96.8 31,0 m -31,-96.8 31,0 m -31,-96.9 31,0 m -31,-96.8 31,0"
       id="path8269" />
    <path
       id="path8279"
       d="m -347.55443,832.38867 0,-127.8 62.2,0 0,127.8 m -41.6,-123.9 24.8,0 m -24.8,-9.4 24.8,0 m -12.4,9.4 0,-9.4 m 0,4.7 m 44.8,128.6 0,-17 62.3,0 0,17 m -42.1,-14.2 24.8,0 m -24.8,-8.3 24.8,0 m -12.4,8.3 0,-8.3 m 0,4.1 m 45.3,18.4 0,-290.5 62.3,0 0,290.5 m -42.5,-286.7 24.8,0 m -24.8,-7.6 24.8,0 m -12.4,7.6 0,-7.6 m 0,3.8 m 123.500001,290.5 0,-68.9 62.3,0 0,68.9 m -43.3,-65.7 24.7999997,0 m -24.7999997,-8.6 24.7999997,0 m -12.4,8.6 0,-8.6 m 0,4.3 m 46.5000003,70 0,-45 62.299999,0 0,45 m -43.699999,-42.1 24.8,0 m -24.8,-8.1 24.8,0 m -12.4,8.1 0,-8.1 m 0,4 m 46.899999,46.2 0,-282.6 62.2,0 0,282.6 m -44,-278.4 24.8,0 m -24.8,-8.3 24.8,0 m -12.4,8.3 0,-8.3 m 0,4.2 m 125.1,282.5 0,-283.6 62.3,0 0,283.6 m -44.9,-279.2 24.8,0 m -24.8,-8.6 24.8,0 m -12.4,8.6 0,-8.6 m 0,4.3 m 48.1,283.5 0,-150.8 62.2,0 0,150.8 m -45.2,-147.5 24.8,0 m -24.8,-7.9 24.8,0 m -12.4,7.9 0,-7.9 m 0,4 m 48.4,151.4 0,-561.1 62.3,0 0,561.1 m -45.7,-556.4 24.8,0 m -24.8,-6.5 24.8,0 m -12.4,6.5 0,-6.5 m 0,3.3"
       inkscape:connector-curvature="0"
       style="fill:#000000;stroke:none" />
    <text
       sodipodi:linespacing="125%"
       id="text8281"
       font-size="31.3"
       y="928.93939"
       x="-341.422"
       style="font-size:40px;font-style:normal;font-variant:normal;font-weight:normal;font-stretch:normal;text-align:start;line-height:125%;writing-mode:lr-tb;text-anchor:start;fill:#000000;font-family:Arial;-inkscape-font-specification:Arial">Conjunctive</text>
    <text
       sodipodi:linespacing="125%"
       id="text8285"
       font-size="31.3"
       y="928.93939"
       x="230.07719"
       style="font-size:40px;font-style:normal;font-variant:normal;font-weight:normal;font-stretch:normal;text-align:start;line-height:125%;writing-mode:lr-tb;text-anchor:start;fill:#000000;font-family:Arial;-inkscape-font-specification:Arial">Noisy Disjunctive</text>
    <path
       id="path8413"
       d="m 614.41447,828.4887 0,-619.7 929.60003,0 0,619.7 -929.60003,0"
       inkscape:connector-curvature="0"
       style="fill:none;stroke:#000000;stroke-width:2" />
    <text
       style="font-size:37.59999847px;text-anchor:middle;fill:#000000;font-family:Arial"
       x="691.91443"
       y="887.38873"
       font-size="37.6"
       id="text8419">D</text>
    <text
       style="font-size:37.59999847px;text-anchor:middle;fill:#000000;font-family:Arial"
       x="769.41443"
       y="887.38873"
       font-size="37.6"
       id="text8421">E</text>
    <text
       style="font-size:37.59999847px;text-anchor:middle;fill:#000000;font-family:Arial"
       x="846.81445"
       y="887.38873"
       font-size="37.6"
       id="text8423">F</text>
    <text
       style="font-size:37.59999847px;text-anchor:middle;fill:#000000;font-family:Arial"
       x="1001.8145"
       y="887.38873"
       font-size="37.6"
       id="text8425">D</text>
    <text
       style="font-size:37.59999847px;text-anchor:middle;fill:#000000;font-family:Arial"
       x="1079.2145"
       y="887.38873"
       font-size="37.6"
       id="text8427">E</text>
    <text
       style="font-size:37.59999847px;text-anchor:middle;fill:#000000;font-family:Arial"
       x="1156.7145"
       y="887.38873"
       font-size="37.6"
       id="text8429">F</text>
    <text
       style="font-size:37.59999847px;text-anchor:middle;fill:#000000;font-family:Arial"
       x="1311.6145"
       y="887.38873"
       font-size="37.6"
       id="text8431">D</text>
    <text
       style="font-size:37.59999847px;text-anchor:middle;fill:#000000;font-family:Arial"
       x="1389.1145"
       y="887.38873"
       font-size="37.6"
       id="text8433">E</text>
    <text
       style="font-size:37.59999847px;text-anchor:middle;fill:#000000;font-family:Arial"
       x="1466.6145"
       y="887.38873"
       font-size="37.6"
       id="text8435">F</text>
    <path
       style="fill:none;stroke:#000000;stroke-width:2"
       inkscape:connector-curvature="0"
       d="m 614.41447,828.4887 929.60003,0 m -929.60003,15.5 0,-31 m 77.5,31 0,-31 m 77.5,31 0,-31 m 77.4,31 0,-31 m 77.5,31 0,-31 m 77.50003,31 0,-31 m 77.4,31 0,-31 m 77.5,31 0,-31 m 77.5,31 0,-31 m 77.4,31 0,-31 m 77.5,31 0,-31 m 77.5,31 0,-31 m 77.4,31 0,-31"
       id="path8437" />
    <path
       style="fill:none;stroke:#000000;stroke-width:2"
       inkscape:connector-curvature="0"
       d="m 614.41447,208.7887 929.60003,0 m -929.60003,15.5 0,-31 m 77.5,31 0,-31 m 77.5,31 0,-31 m 77.4,31 0,-31 m 77.5,31 0,-31 m 77.50003,31 0,-31 m 77.4,31 0,-31 m 77.5,31 0,-31 m 77.5,31 0,-31 m 77.4,31 0,-31 m 77.5,31 0,-31 m 77.5,31 0,-31 m 77.4,31 0,-31"
       id="path8439" />
    <text
       style="font-size:37.59999847px;text-anchor:end;fill:#000000;font-family:Arial"
       x="1595.8275"
       y="843.38873"
       font-size="37.6"
       id="text8443">0</text>
    <text
       style="font-size:37.59999847px;text-anchor:end;fill:#000000;font-family:Arial"
       x="1593.2938"
       y="781.38873"
       font-size="37.6"
       id="text8445">1</text>
    <text
       style="font-size:37.59999847px;text-anchor:end;fill:#000000;font-family:Arial"
       x="1596.2865"
       y="719.48871"
       font-size="37.6"
       id="text8447">2</text>
    <text
       style="font-size:37.59999847px;text-anchor:end;fill:#000000;font-family:Arial"
       x="1595.8092"
       y="657.48871"
       font-size="37.6"
       id="text8449">3</text>
    <text
       style="font-size:37.59999847px;text-anchor:end;fill:#000000;font-family:Arial"
       x="1596.9108"
       y="595.48871"
       font-size="37.6"
       id="text8451">4</text>
    <text
       style="font-size:37.59999847px;text-anchor:end;fill:#000000;font-family:Arial"
       x="1595.8275"
       y="533.48871"
       font-size="37.6"
       id="text8453">5</text>
    <text
       style="font-size:37.59999847px;text-anchor:end;fill:#000000;font-family:Arial"
       x="1595.9745"
       y="471.58868"
       font-size="37.6"
       id="text8455">6</text>
    <text
       style="font-size:37.59999847px;text-anchor:end;fill:#000000;font-family:Arial"
       x="1595.6073"
       y="409.58868"
       font-size="37.6"
       id="text8457">7</text>
    <text
       style="font-size:37.59999847px;text-anchor:end;fill:#000000;font-family:Arial"
       x="1595.8641"
       y="347.58868"
       font-size="37.6"
       id="text8459">8</text>
    <text
       style="font-size:37.59999847px;text-anchor:end;fill:#000000;font-family:Arial"
       x="1595.8275"
       y="285.58868"
       font-size="37.6"
       id="text8461">9</text>
    <text
       style="font-size:37.59999847px;text-anchor:end;fill:#000000;font-family:Arial"
       x="1614.2235"
       y="223.68872"
       font-size="37.6"
       id="text8463">10</text>
    <path
       style="fill:none;stroke:#000000;stroke-width:2"
       inkscape:connector-curvature="0"
       d="m 614.41447,828.4887 0,-619.7 m -15.5,619.7 31,0 m -31,-61.9 31,0 m -31,-62 31,0 m -31,-62 31,0 m -31,-62 31,0 m -31,-61.9 31,0 m -31,-62 31,0 m -31,-62 31,0 m -31,-62 31,0 m -31,-61.9 31,0 m -31,-62 31,0"
       id="path8465" />
    <path
       style="fill:none;stroke:#000000;stroke-width:2"
       inkscape:connector-curvature="0"
       d="m 1544.0145,828.4887 0,-619.7 m -15.5,619.7 31,0 m -31,-61.9 31,0 m -31,-62 31,0 m -31,-62 31,0 m -31,-62 31,0 m -31,-61.9 31,0 m -31,-62 31,0 m -31,-62 31,0 m -31,-62 31,0 m -31,-61.9 31,0 m -31,-62 31,0"
       id="path8467" />
    <path
       id="path8477"
       d="m 659.01447,829.9887 0,-168.2 62.2,0 0,168.2 m -41.7,-168.6 24.8,0 m -24.8,-0.3 24.8,0 m -12.4,0.3 0,-0.3 m 0,0.1 m 44.9,168.8 0,-130.9 62.3,0 0,130.9 m -42.1,-131.5 24.8,0 m -24.8,-0.2 24.8,0 m -12.4,0.2 0,-0.2 m 0,0.1 m 45.3,131.6 0,-485.9 62.3,0 0,485.9 m -42.6,-484.7 24.8,0 m -24.8,-0.3 24.8,0 m -12.4,0.3 0,-0.3 m 0,0.1 m 123.6,484.9 0,-31.2 62.30003,0 0,31.2 m -43.30003,-32.3 24.80003,0 m -24.80003,-0.3 24.80003,0 m -12.4,0.3 0,-0.3 m 0,0.1 m 46.5,32.5 0,-62.3 62.3,0 0,62.3 m -43.8,-63.3 24.8,0 m -24.8,-0.3 24.8,0 m -12.4,0.3 0,-0.3 m 0,0.2 m 47,63.4 0,-560.7 62.3,0 0,560.7 m -44.2,-559.1 24.8,0 m -24.8,-0.3 24.8,0 m -12.4,0.3 0,-0.3 m 0,0.2 m 125.2,559.2 0,-143.3 62.3,0 0,143.3 m -45,-143.9 24.8,0 m -24.8,-0.2 24.8,0 m -12.4,0.2 0,-0.2 m 0,0.1 m 48.2,144 0,-74.8 62.3,0 0,74.8 m -45.4,-75.7 24.8,0 m -24.8,-0.3 24.8,0 m -12.4,0.3 0,-0.3 m 0,0.2 m 48.5,75.8 0,-498.4 62.3,0 0,498.4 m -45.7,-497.2 24.8,0 m -24.8,-0.2 24.8,0 m -12.4,0.2 0,-0.2 m 0,0.1"
       inkscape:connector-curvature="0"
       style="fill:#000000;stroke:none" />
    <text
       sodipodi:linespacing="125%"
       id="text8479"
       font-size="31.3"
       y="928.93939"
       x="1236.5461"
       style="font-size:40px;font-style:normal;font-variant:normal;font-weight:normal;font-stretch:normal;text-align:start;line-height:125%;writing-mode:lr-tb;text-anchor:start;fill:#000000;font-family:Arial;-inkscape-font-specification:Arial">Noisy Disjunctive</text>
    <text
       sodipodi:linespacing="125%"
       id="text8481"
       font-size="31.3"
       y="928.93939"
       x="939.98596"
       style="font-size:40px;font-style:normal;font-variant:normal;font-weight:normal;font-stretch:normal;text-align:start;line-height:125%;writing-mode:lr-tb;text-anchor:start;fill:#000000;font-family:Arial;-inkscape-font-specification:Arial">Det. Disjunctive</text>
    <text
       sodipodi:linespacing="125%"
       id="text8483"
       font-size="31.3"
       y="928.93939"
       x="665.14685"
       style="font-size:40px;font-style:normal;font-variant:normal;font-weight:normal;font-stretch:normal;text-align:start;line-height:125%;writing-mode:lr-tb;text-anchor:start;fill:#000000;font-family:Arial;-inkscape-font-specification:Arial">Conjunctive</text>
    <text
       transform="matrix(0,1,-1,0,0,0)"
       sodipodi:linespacing="100%"
       id="text8706"
       y="-1625.4757"
       x="378.9256"
       style="font-size:45px;font-style:normal;font-variant:normal;font-weight:normal;font-stretch:normal;text-indent:0;text-align:start;text-decoration:none;line-height:100%;letter-spacing:0px;word-spacing:0px;text-transform:none;direction:ltr;block-progression:tb;writing-mode:lr-tb;text-anchor:start;color:#000000;fill:#000000;fill-opacity:1;fill-rule:nonzero;stroke:none;stroke-width:1px;marker:none;visibility:visible;display:inline;overflow:visible;enable-background:accumulate;font-family:Arial;-inkscape-font-specification:Arial"
       xml:space="preserve"><tspan
         y="-1625.4757"
         x="378.9256"
         id="tspan8708"
         sodipodi:role="line">Mean Ratings</tspan></text>
    <text
       transform="matrix(0,-1,1,0,0,0)"
       sodipodi:linespacing="100%"
       id="text8710"
       y="-508.83951"
       x="-820.85559"
       style="font-size:45px;font-style:normal;font-variant:normal;font-weight:normal;font-stretch:normal;text-indent:0;text-align:start;text-decoration:none;line-height:100%;letter-spacing:0px;word-spacing:0px;text-transform:none;direction:ltr;block-progression:tb;writing-mode:lr-tb;text-anchor:start;color:#000000;fill:#000000;fill-opacity:1;fill-rule:nonzero;stroke:none;stroke-width:1px;marker:none;visibility:visible;display:inline;overflow:visible;enable-background:accumulate;font-family:Arial;-inkscape-font-specification:Arial"
       xml:space="preserve"><tspan
         y="-508.83951"
         x="-820.85559"
         id="tspan8712"
         sodipodi:role="line">Model Proportion Blicket = On</tspan></text>
    <text
       sodipodi:linespacing="100%"
       id="text8714"
       y="176.07416"
       x="-30.143625"
       style="font-size:45px;font-style:normal;font-variant:normal;font-weight:normal;font-stretch:normal;text-indent:0;text-align:start;text-decoration:none;line-height:100%;letter-spacing:0px;word-spacing:0px;text-transform:none;direction:ltr;block-progression:tb;writing-mode:lr-tb;text-anchor:start;color:#000000;fill:#000000;fill-opacity:1;fill-rule:nonzero;stroke:none;stroke-width:1px;marker:none;visibility:visible;display:inline;overflow:visible;enable-background:accumulate;font-family:Arial;-inkscape-font-specification:Arial"
       xml:space="preserve"><tspan
         style="font-size:60px"
         y="176.07416"
         x="-30.143625"
         id="tspan8716"
         sodipodi:role="line">TI Model</tspan></text>
    <text
       xml:space="preserve"
       style="font-size:45px;font-style:normal;font-variant:normal;font-weight:normal;font-stretch:normal;text-indent:0;text-align:start;text-decoration:none;line-height:100%;letter-spacing:0px;word-spacing:0px;text-transform:none;direction:ltr;block-progression:tb;writing-mode:lr-tb;text-anchor:start;color:#000000;fill:#000000;fill-opacity:1;fill-rule:nonzero;stroke:none;stroke-width:1px;marker:none;visibility:visible;display:inline;overflow:visible;enable-background:accumulate;font-family:Arial;-inkscape-font-specification:Arial"
       x="956.2229"
       y="176.07416"
       id="text8718"
       sodipodi:linespacing="100%"><tspan
         sodipodi:role="line"
         id="tspan8720"
         x="956.2229"
         y="176.07416"
         style="font-size:60px">People</tspan></text>
    <text
       sodipodi:linespacing="100%"
       id="text8722"
       y="99.040466"
       x="128.94774"
       style="font-size:45px;font-style:normal;font-variant:normal;font-weight:normal;font-stretch:normal;text-indent:0;text-align:start;text-decoration:none;line-height:100%;letter-spacing:0px;word-spacing:0px;text-transform:none;direction:ltr;block-progression:tb;writing-mode:lr-tb;text-anchor:start;color:#000000;fill:#000000;fill-opacity:1;fill-rule:nonzero;stroke:none;stroke-width:1px;marker:none;visibility:visible;display:inline;overflow:visible;enable-background:accumulate;font-family:Arial;-inkscape-font-specification:Arial"
       xml:space="preserve"><tspan
         style="font-size:60px"
         y="99.040466"
         x="128.94774"
         id="tspan8724"
         sodipodi:role="line">Lucas &amp; Griffiths (2010), Expt 2</tspan></text>
  </g>
  <g
     id="g14380"
     transform="translate(-456.85509,948.43655)">
    <rect
       y="29.271217"
       x="-114.45779"
       height="888.60608"
       width="1231.0359"
       id="rect9063"
       style="fill:#ffffff;fill-opacity:1;fill-rule:nonzero;stroke:#ffffff;stroke-width:3.5686214;stroke-linejoin:round;stroke-miterlimit:4;stroke-opacity:1;stroke-dasharray:none;stroke-dashoffset:0" />
    <path
       id="path8910"
       d="m 60.1,777.3 0,-619.7 929.6,0 0,619.7 -929.6,0"
       inkscape:connector-curvature="0"
       style="fill:none;stroke:#000000;stroke-width:2" />
    <text
       x="176.3"
       y="836.20001"
       font-size="37.6"
       id="text8916"
       style="font-size:37.59999847px;text-anchor:middle;fill:#000000;font-family:Arial">D</text>
    <text
       x="292.5"
       y="836.20001"
       font-size="37.6"
       id="text8918"
       style="font-size:37.59999847px;text-anchor:middle;fill:#000000;font-family:Arial">E</text>
    <text
       x="408.70001"
       y="836.20001"
       font-size="37.6"
       id="text8920"
       style="font-size:37.59999847px;text-anchor:middle;fill:#000000;font-family:Arial">F</text>
    <text
       x="641.09998"
       y="836.20001"
       font-size="37.6"
       id="text8922"
       style="font-size:37.59999847px;text-anchor:middle;fill:#000000;font-family:Arial">D</text>
    <text
       x="757.29999"
       y="836.20001"
       font-size="37.6"
       id="text8924"
       style="font-size:37.59999847px;text-anchor:middle;fill:#000000;font-family:Arial">E</text>
    <text
       x="873.5"
       y="836.20001"
       font-size="37.6"
       id="text8926"
       style="font-size:37.59999847px;text-anchor:middle;fill:#000000;font-family:Arial">F</text>
    <path
       d="m 60.1,777.3 929.6,0 m -929.6,15.5 0,-31 m 116.2,31 0,-31 m 116.2,31 0,-31 m 116.2,31 0,-31 m 116.2,31 0,-31 m 116.2,31 0,-31 m 116.2,31 0,-31 m 116.2,31 0,-31 m 116.2,31 0,-31"
       id="path8928"
       inkscape:connector-curvature="0"
       style="fill:none;stroke:#000000;stroke-width:2" />
    <path
       d="m 60.1,157.6 929.6,0 m -929.6,15.5 0,-31 m 116.2,31 0,-31 m 116.2,31 0,-31 m 116.2,31 0,-31 m 116.2,31 0,-31 m 116.2,31 0,-31 m 116.2,31 0,-31 m 116.2,31 0,-31 m 116.2,31 0,-31"
       id="path8930"
       inkscape:connector-curvature="0"
       style="fill:none;stroke:#000000;stroke-width:2" />
    <text
       x="38.400002"
       y="792.20001"
       font-size="37.6"
       id="text8934"
       style="font-size:37.59999847px;text-anchor:end;fill:#000000;font-family:Arial">0.3</text>
    <text
       x="38.400002"
       y="730.20001"
       font-size="37.6"
       id="text8936"
       style="font-size:37.59999847px;text-anchor:end;fill:#000000;font-family:Arial">0.35</text>
    <text
       x="38.400002"
       y="668.29999"
       font-size="37.6"
       id="text8938"
       style="font-size:37.59999847px;text-anchor:end;fill:#000000;font-family:Arial">0.4</text>
    <text
       x="38.400002"
       y="606.29999"
       font-size="37.6"
       id="text8940"
       style="font-size:37.59999847px;text-anchor:end;fill:#000000;font-family:Arial">0.45</text>
    <text
       x="38.400002"
       y="544.29999"
       font-size="37.6"
       id="text8942"
       style="font-size:37.59999847px;text-anchor:end;fill:#000000;font-family:Arial">0.5</text>
    <text
       x="38.400002"
       y="482.29999"
       font-size="37.6"
       id="text8944"
       style="font-size:37.59999847px;text-anchor:end;fill:#000000;font-family:Arial">0.55</text>
    <text
       x="38.400002"
       y="420.39999"
       font-size="37.6"
       id="text8946"
       style="font-size:37.59999847px;text-anchor:end;fill:#000000;font-family:Arial">0.6</text>
    <text
       x="38.400002"
       y="358.39999"
       font-size="37.6"
       id="text8948"
       style="font-size:37.59999847px;text-anchor:end;fill:#000000;font-family:Arial">0.65</text>
    <text
       x="38.400002"
       y="296.39999"
       font-size="37.6"
       id="text8950"
       style="font-size:37.59999847px;text-anchor:end;fill:#000000;font-family:Arial">0.7</text>
    <text
       x="38.400002"
       y="234.39999"
       font-size="37.6"
       id="text8952"
       style="font-size:37.59999847px;text-anchor:end;fill:#000000;font-family:Arial">0.75</text>
    <text
       x="38.400002"
       y="172.5"
       font-size="37.6"
       id="text8954"
       style="font-size:37.59999847px;text-anchor:end;fill:#000000;font-family:Arial">0.8</text>
    <path
       d="m 60.1,777.3 0,-619.7 m -15.5,619.7 31,0 m -31,-61.9 31,0 m -31,-62 31,0 m -31,-62 31,0 m -31,-62 31,0 m -31,-61.9 31,0 m -31,-62 31,0 m -31,-62 31,0 m -31,-62 31,0 m -31,-61.9 31,0 m -31,-62 31,0"
       id="path8956"
       inkscape:connector-curvature="0"
       style="fill:none;stroke:#000000;stroke-width:2" />
    <text
       x="1011.4"
       y="792.20001"
       font-size="37.6"
       id="text8960"
       style="font-size:37.59999847px;text-anchor:start;fill:#ff0000;font-family:Arial">0</text>
    <text
       x="1011.4"
       y="730.20001"
       font-size="37.6"
       id="text8962"
       style="font-size:37.59999847px;text-anchor:start;fill:#ff0000;font-family:Arial">1</text>
    <text
       x="1011.4"
       y="668.29999"
       font-size="37.6"
       id="text8964"
       style="font-size:37.59999847px;text-anchor:start;fill:#ff0000;font-family:Arial">2</text>
    <text
       x="1011.4"
       y="606.29999"
       font-size="37.6"
       id="text8966"
       style="font-size:37.59999847px;text-anchor:start;fill:#ff0000;font-family:Arial">3</text>
    <text
       x="1011.4"
       y="544.29999"
       font-size="37.6"
       id="text8968"
       style="font-size:37.59999847px;text-anchor:start;fill:#ff0000;font-family:Arial">4</text>
    <text
       x="1011.4"
       y="482.29999"
       font-size="37.6"
       id="text8970"
       style="font-size:37.59999847px;text-anchor:start;fill:#ff0000;font-family:Arial">5</text>
    <text
       x="1011.4"
       y="420.39999"
       font-size="37.6"
       id="text8972"
       style="font-size:37.59999847px;text-anchor:start;fill:#ff0000;font-family:Arial">6</text>
    <text
       x="1011.4"
       y="358.39999"
       font-size="37.6"
       id="text8974"
       style="font-size:37.59999847px;text-anchor:start;fill:#ff0000;font-family:Arial">7</text>
    <text
       x="1011.4"
       y="296.39999"
       font-size="37.6"
       id="text8976"
       style="font-size:37.59999847px;text-anchor:start;fill:#ff0000;font-family:Arial">8</text>
    <text
       x="1011.4"
       y="234.39999"
       font-size="37.6"
       id="text8978"
       style="font-size:37.59999847px;text-anchor:start;fill:#ff0000;font-family:Arial">9</text>
    <text
       x="1011.4"
       y="172.5"
       font-size="37.6"
       id="text8980"
       style="font-size:37.59999847px;text-anchor:start;fill:#ff0000;font-family:Arial">10</text>
    <path
       d="m 989.7,777.3 0,-619.7 m -15.5,619.7 31,0 m -31,-61.9 31,0 m -31,-62 31,0 m -31,-62 31,0 m -31,-62 31,0 m -31,-61.9 31,0 m -31,-62 31,0 m -31,-62 31,0 m -31,-62 31,0 m -31,-61.9 31,0 m -31,-62 31,0"
       id="path8982"
       inkscape:connector-curvature="0"
       style="fill:none;stroke:#ff0000;stroke-width:2" />
    <path
       id="path8998"
       d="m 127.9,778.8 0,-251.8 46.7,0 0,251.8 m -10.7,-248.5 24.8,0 m -24.8,-6.8 24.8,0 m -12.4,6.8 0,-6.8 m 0,3.4 m 68.4,251.9 0,-190.4 46.7,0 0,190.4 m -11.3,-188.4 24.8,0 m -24.8,-5 24.8,0 m -12.4,5 0,-5 m 0,2.5 m 69,190.9 0,-467.7 46.7,0 0,467.7 m -11.9,-464.2 24.8,0 m -24.8,-5.1 24.8,0 m -12.4,5.1 0,-5.1 m 0,2.6 m 186.4,466.7 0,-114.4 46.7,0 0,114.4 m -13.1,-112.6 24.8,0 m -24.8,-5.3 24.8,0 m -12.4,5.3 0,-5.3 m 0,2.7 m 70.8,115.2 0,-73.5 46.7,0 0,73.5 m -13.7,-72.8 24.8,0 m -24.8,-3.6 24.8,0 m -12.4,3.6 0,-3.6 m 0,1.8 m 71.4,74.6 0,-303.5 46.7,0 0,303.5 m -14.3,-300.9 24.8,0 m -24.8,-5 24.8,0 m -12.4,5 0,-5 m 0,2.5"
       inkscape:connector-curvature="0"
       style="fill:#000000;stroke:none" />
    <path
       id="path9000"
       d="m 174.6,778.8 0,-236.8 46.8,0 0,236.8 m 70,0 0,0 46.8,0 0,0 m 70,0 0,0 46.8,0 0,0 m 186.8,0 0,-112.2 46.8,0 0,112.2 m 70,0 0,0 46.8,0 0,0 m 70,0 0,0 46.8,0 0,0"
       inkscape:connector-curvature="0"
       style="fill:#ff0000;stroke:none" />
    <text
       style="font-size:31.29999924px;text-anchor:start;fill:#000000;font-family:Arial"
       id="text9002"
       font-size="31.3"
       y="881.72247"
       x="194.30664">
      <tspan
         id="tspan9047"
         style="font-size:40px">High Noise</tspan>
    </text>
    <text
       style="font-size:31.29999924px;text-anchor:start;fill:#000000;font-family:Arial"
       id="text9004"
       font-size="31.3"
       y="881.72247"
       x="663.69647">
      <tspan
         id="tspan9049"
         style="font-size:40px">Low Noise</tspan>
    </text>
    <text
       transform="matrix(0,-1,1,0,0,0)"
       sodipodi:linespacing="100%"
       id="text9051"
       y="-61.331379"
       x="-767.26691"
       style="font-size:45px;font-style:normal;font-variant:normal;font-weight:normal;font-stretch:normal;text-indent:0;text-align:start;text-decoration:none;line-height:100%;letter-spacing:0px;word-spacing:0px;text-transform:none;direction:ltr;block-progression:tb;writing-mode:lr-tb;text-anchor:start;color:#000000;fill:#000000;fill-opacity:1;fill-rule:nonzero;stroke:none;stroke-width:1px;marker:none;visibility:visible;display:inline;overflow:visible;enable-background:accumulate;font-family:Arial;-inkscape-font-specification:Arial"
       xml:space="preserve"><tspan
         y="-61.331379"
         x="-767.26691"
         id="tspan9053"
         sodipodi:role="line">Model Proportion Blicket = On</tspan></text>
    <text
       transform="matrix(0,1,-1,0,0,0)"
       sodipodi:linespacing="100%"
       id="text9055"
       y="-1062.6442"
       x="263.1922"
       style="font-size:45px;font-style:normal;font-variant:normal;font-weight:normal;font-stretch:normal;text-indent:0;text-align:start;text-decoration:none;line-height:100%;letter-spacing:0px;word-spacing:0px;text-transform:none;direction:ltr;block-progression:tb;writing-mode:lr-tb;text-anchor:start;color:#000000;fill:#ff0000;fill-opacity:1;fill-rule:nonzero;stroke:none;stroke-width:1px;marker:none;visibility:visible;display:inline;overflow:visible;enable-background:accumulate;font-family:Arial;-inkscape-font-specification:Arial"
       xml:space="preserve"><tspan
         y="-1062.6442"
         x="263.1922"
         id="tspan9057"
         sodipodi:role="line">People Mean Rating</tspan></text>
    <text
       sodipodi:linespacing="100%"
       id="text9059"
       y="101.54525"
       x="107.6832"
       style="font-size:60px;font-style:normal;font-variant:normal;font-weight:normal;font-stretch:normal;text-indent:0;text-align:start;text-decoration:none;line-height:100%;letter-spacing:0px;word-spacing:0px;text-transform:none;direction:ltr;block-progression:tb;writing-mode:lr-tb;text-anchor:start;color:#000000;fill:#000000;fill-opacity:1;fill-rule:nonzero;stroke:none;stroke-width:1px;marker:none;visibility:visible;display:inline;overflow:visible;enable-background:accumulate;font-family:Arial;-inkscape-font-specification:Arial"
       xml:space="preserve"><tspan
         y="101.54525"
         x="107.6832"
         id="tspan9061"
         sodipodi:role="line">Lucas &amp; Griffiths (2010), Expt 4</tspan></text>
  </g>
  <text
     xml:space="preserve"
     style="font-size:30px;font-style:normal;font-variant:normal;font-weight:normal;font-stretch:normal;text-indent:0;text-align:start;text-decoration:none;line-height:100%;letter-spacing:0px;word-spacing:0px;text-transform:none;direction:ltr;block-progression:tb;writing-mode:lr-tb;text-anchor:start;color:#000000;fill:#000000;fill-opacity:1;fill-rule:nonzero;stroke:none;stroke-width:1px;marker:none;visibility:visible;display:inline;overflow:visible;enable-background:accumulate;font-family:Arial;-inkscape-font-specification:Arial"
     x="-555.98248"
     y="88.992546"
     id="text14495"
     sodipodi:linespacing="100%"><tspan
       sodipodi:role="line"
       id="tspan14497"
       x="-555.98248"
       y="88.992546"
       style="font-size:60px">a)</tspan></text>
  <text
     sodipodi:linespacing="100%"
     id="text14499"
     y="1043.5408"
     x="-555.98248"
     style="font-size:30px;font-style:normal;font-variant:normal;font-weight:normal;font-stretch:normal;text-indent:0;text-align:start;text-decoration:none;line-height:100%;letter-spacing:0px;word-spacing:0px;text-transform:none;direction:ltr;block-progression:tb;writing-mode:lr-tb;text-anchor:start;color:#000000;fill:#000000;fill-opacity:1;fill-rule:nonzero;stroke:none;stroke-width:1px;marker:none;visibility:visible;display:inline;overflow:visible;enable-background:accumulate;font-family:Arial;-inkscape-font-specification:Arial"
     xml:space="preserve"><tspan
       style="font-size:60px"
       y="1043.5408"
       x="-555.98248"
       id="tspan14501"
       sodipodi:role="line">b)</tspan></text>
</svg>
