<?xml version="1.0" encoding="UTF-8" standalone="no"?>
<svg
   xmlns:dc="http://purl.org/dc/elements/1.1/"
   xmlns:cc="http://creativecommons.org/ns#"
   xmlns:rdf="http://www.w3.org/1999/02/22-rdf-syntax-ns#"
   xmlns:svg="http://www.w3.org/2000/svg"
   xmlns="http://www.w3.org/2000/svg"
   xmlns:sodipodi="http://sodipodi.sourceforge.net/DTD/sodipodi-0.dtd"
   xmlns:inkscape="http://www.inkscape.org/namespaces/inkscape"
   version="1.1"
   width="400px"
   height="400px"
   viewBox="0 0 1000.0 1000.0"
   id="svg9055"
   inkscape:version="0.48.2 r9819"
   sodipodi:docname="fig_blicket_cluster.svg"
   inkscape:export-filename="/Users/oreilly/svn_sims/leabra/ti/fig_blicket_cluster.png"
   inkscape:export-xdpi="150"
   inkscape:export-ydpi="150">
  <metadata
     id="metadata9153">
    <rdf:RDF>
      <cc:Work
         rdf:about="">
        <dc:format>image/svg+xml</dc:format>
        <dc:type
           rdf:resource="http://purl.org/dc/dcmitype/StillImage" />
        <dc:title></dc:title>
      </cc:Work>
    </rdf:RDF>
  </metadata>
  <defs
     id="defs9151" />
  <sodipodi:namedview
     pagecolor="#ffffff"
     bordercolor="#666666"
     borderopacity="1"
     objecttolerance="10"
     gridtolerance="10"
     guidetolerance="10"
     inkscape:pageopacity="0"
     inkscape:pageshadow="2"
     inkscape:window-width="1454"
     inkscape:window-height="1039"
     id="namedview9149"
     showgrid="false"
     inkscape:zoom="1.6015969"
     inkscape:cx="165.05834"
     inkscape:cy="168.98856"
     inkscape:window-x="0"
     inkscape:window-y="0"
     inkscape:window-maximized="0"
     inkscape:current-layer="svg9055" />
  <rect
     style="fill:#ffffff;fill-opacity:1;fill-rule:nonzero;stroke:#ffffff;stroke-width:7.25649452;stroke-linejoin:round;stroke-miterlimit:4;stroke-opacity:1;stroke-dasharray:none;stroke-dashoffset:0"
     id="rect9243"
     width="834.55414"
     height="838.79742"
     x="40.058968"
     y="66.55661" />
  <path
     stroke="#000000"
     stroke-width="2"
     fill="none"
     d="M 120.2,818.5 L 120.2,114.6 L 824.1,114.6 L 824.1,818.5 L 120.2,818.5 "
     id="path9057" />
  <text
     style="font-size:35.59999847px;text-anchor:middle;fill:#000000;font-family:Arial"
     id="text9063"
     font-size="35.6"
     y="878.29999"
     x="120.2">0</text>
  <text
     style="font-size:35.59999847px;text-anchor:middle;fill:#000000;font-family:Arial"
     id="text9065"
     font-size="35.6"
     y="878.29999"
     x="208.2">2</text>
  <text
     style="font-size:35.59999847px;text-anchor:middle;fill:#000000;font-family:Arial"
     id="text9067"
     font-size="35.6"
     y="878.29999"
     x="296.20001">4</text>
  <text
     style="font-size:35.59999847px;text-anchor:middle;fill:#000000;font-family:Arial"
     id="text9069"
     font-size="35.6"
     y="878.29999"
     x="384.10001">6</text>
  <text
     style="font-size:35.59999847px;text-anchor:middle;fill:#000000;font-family:Arial"
     id="text9071"
     font-size="35.6"
     y="878.29999"
     x="472.10001">8</text>
  <text
     style="font-size:35.59999847px;text-anchor:middle;fill:#000000;font-family:Arial"
     id="text9073"
     font-size="35.6"
     y="878.29999"
     x="560.09998">10</text>
  <text
     style="font-size:35.59999847px;text-anchor:middle;fill:#000000;font-family:Arial"
     id="text9075"
     font-size="35.6"
     y="878.29999"
     x="648.09998">12</text>
  <text
     style="font-size:35.59999847px;text-anchor:middle;fill:#000000;font-family:Arial"
     id="text9077"
     font-size="35.6"
     y="878.29999"
     x="736.09998">14</text>
  <text
     style="font-size:35.59999847px;text-anchor:middle;fill:#000000;font-family:Arial"
     id="text9079"
     font-size="35.6"
     y="878.29999"
     x="824.09998">16</text>
  <path
     style="fill:none;stroke:#000000;stroke-width:2"
     inkscape:connector-curvature="0"
     id="path9081"
     d="m 120.2,818.5 703.9,0 m -703.9,17.6 0,-35.2 m 88,35.2 0,-35.2 m 88,35.2 0,-35.2 m 87.9,35.2 0,-35.2 m 88,35.2 0,-35.2 m 88,35.2 0,-35.2 m 88,35.2 0,-35.2 m 88,35.2 0,-35.2 m 88,35.2 0,-35.2" />
  <path
     style="fill:none;stroke:#000000;stroke-width:2"
     inkscape:connector-curvature="0"
     id="path9083"
     d="m 120.2,114.6 703.9,0 m -703.9,17.6 0,-35.2 m 88,35.2 0,-35.2 m 88,35.2 0,-35.2 m 87.9,35.2 0,-35.2 m 88,35.2 0,-35.2 m 88,35.2 0,-35.2 m 88,35.2 0,-35.2 m 88,35.2 0,-35.2 m 88,35.2 0,-35.2" />
  <text
     style="font-size:35.59999847px;text-anchor:end;fill:#000000;font-family:Arial"
     id="text9087"
     font-size="35.6"
     y="832.59998"
     x="95.5">0</text>
  <text
     style="font-size:35.59999847px;text-anchor:end;fill:#000000;font-family:Arial"
     id="text9089"
     font-size="35.6"
     y="715.29999"
     x="95.5">2</text>
  <text
     style="font-size:35.59999847px;text-anchor:end;fill:#000000;font-family:Arial"
     id="text9091"
     font-size="35.6"
     y="598"
     x="95.5">4</text>
  <text
     style="font-size:35.59999847px;text-anchor:end;fill:#000000;font-family:Arial"
     id="text9093"
     font-size="35.6"
     y="480.60001"
     x="95.5">6</text>
  <text
     style="font-size:35.59999847px;text-anchor:end;fill:#000000;font-family:Arial"
     id="text9095"
     font-size="35.6"
     y="363.29999"
     x="95.5">8</text>
  <text
     style="font-size:35.59999847px;text-anchor:end;fill:#000000;font-family:Arial"
     id="text9097"
     font-size="35.6"
     y="246"
     x="95.5">10</text>
  <text
     style="font-size:35.59999847px;text-anchor:end;fill:#000000;font-family:Arial"
     id="text9099"
     font-size="35.6"
     y="128.7"
     x="95.5">12</text>
  <path
     style="fill:none;stroke:#000000;stroke-width:2"
     inkscape:connector-curvature="0"
     id="path9101"
     d="m 120.2,818.5 0,-703.9 m -17.6,703.9 35.2,0 m -35.2,-117.3 35.2,0 m -35.2,-117.3 35.2,0 m -35.2,-117.3 35.2,0 m -35.2,-117.4 35.2,0 m -35.2,-117.3 35.2,0 m -35.2,-117.3 35.2,0" />
  <path
     style="fill:none;stroke:#000000;stroke-width:2"
     inkscape:connector-curvature="0"
     id="path9103"
     d="m 824.1,818.5 0,-703.9 m -17.6,703.9 35.2,0 m -35.2,-117.3 35.2,0 m -35.2,-117.3 35.2,0 m -35.2,-117.3 35.2,0 m -35.2,-117.4 35.2,0 m -35.2,-117.3 35.2,0 m -35.2,-117.3 35.2,0" />
  <path
     style="fill:none;stroke:#000000;stroke-width:4"
     inkscape:connector-curvature="0"
     id="path9121"
     d="m 120.2,580.2 0,0 0,0 0,0 0,165 206.3,0 0,44 42.3,0 m -42.3,0 0,0 0,-44 0,-44 42.3,0 0,29.3 34,0 m -34,0 0,0 0,-29.3 0,-29.3 34,0 m -34,0 0,0 0,29.3 m -42.3,0 0,44 m -206.3,0 0,-165 0,-165 206.3,0 0,154 157.6,0 0,44 51.6,0 m -51.6,0 0,0 0,-44 0,-44 51.6,0 0,29.4 0.1,0 m -0.1,0 0,0 0,-29.4 0,-29.3 0.1,0 m -0.1,0 0,0 0,29.3 m -51.6,0 0,44 m -157.6,0 m 0,-154 0,-153.9 157.6,0 0,87.9 127.7,0 0,58.7 16.3,0 0,29.3 0.4,0 m -0.4,0 0,0 0,-29.3 0,-29.3 0.4,0 m -0.4,0 0,0 0,29.3 m -16.3,0 0,-58.7 0,-58.6 16.3,0 0,29.3 11.1,0 m -11.1,0 0,0 0,-29.3 0,-29.3 11.1,0 m -11.1,0 0,0 0,29.3 m -16.3,0 0,58.6 m -127.7,0 0,-87.9 0,-88 127.7,0 0,29.3 19.9,0 m -19.9,0 0,0 0,-29.3 0,-29.4 19.9,0 m -19.9,0 0,0 0,29.4 m -127.7,0 0,88 m -157.6,0 m 0,153.9 m -206.3,0 0,165 0,0 0,0 0,0" />
  <text
     xml:space="preserve"
     style="font-size:40px;font-style:normal;font-variant:normal;font-weight:normal;font-stretch:normal;text-indent:0;text-align:start;text-decoration:none;line-height:100%;letter-spacing:0px;word-spacing:0px;text-transform:none;direction:ltr;block-progression:tb;writing-mode:lr-tb;text-anchor:start;color:#000000;fill:#0000ff;fill-opacity:1;fill-rule:nonzero;stroke:none;stroke-width:1px;marker:none;visibility:visible;display:inline;overflow:visible;enable-background:accumulate;font-family:Arial;-inkscape-font-specification:Arial"
     x="635.30347"
     y="161.77408"
     id="text9177"
     sodipodi:linespacing="100%"><tspan
       sodipodi:role="line"
       id="tspan9179"
       x="635.30347"
       y="161.77408">3 B?+</tspan></text>
  <text
     xml:space="preserve"
     style="font-size:40px;font-style:normal;font-variant:normal;font-weight:normal;font-stretch:normal;text-indent:0;text-align:start;text-decoration:none;line-height:100%;letter-spacing:0px;word-spacing:0px;text-transform:none;direction:ltr;block-progression:tb;writing-mode:lr-tb;text-anchor:start;color:#000000;fill:#0000ff;fill-opacity:1;fill-rule:nonzero;stroke:none;stroke-width:1px;marker:none;visibility:visible;display:inline;overflow:visible;enable-background:accumulate;font-family:Arial;-inkscape-font-specification:Arial"
     x="635.30347"
     y="216.40706"
     id="text9181"
     sodipodi:linespacing="100%"><tspan
       sodipodi:role="line"
       id="tspan9183"
       x="635.30347"
       y="216.40706">3 B*+</tspan></text>
  <text
     xml:space="preserve"
     style="font-size:16px;font-style:normal;font-variant:normal;font-weight:normal;font-stretch:normal;text-indent:0;text-align:start;text-decoration:none;line-height:100%;letter-spacing:0px;word-spacing:0px;text-transform:none;direction:ltr;block-progression:tb;writing-mode:lr-tb;text-anchor:start;color:#000000;fill:#000000;fill-opacity:1;fill-rule:nonzero;stroke:none;stroke-width:1px;marker:none;visibility:visible;display:inline;overflow:visible;enable-background:accumulate;font-family:Arial;-inkscape-font-specification:Arial"
     x="368.38235"
     y="109.66477"
     id="text9185"
     sodipodi:linespacing="100%"
     transform="scale(2.5,2.5)"><tspan
       sodipodi:role="line"
       id="tspan9187"
       x="368.38235"
       y="109.66477" /></text>
  <text
     xml:space="preserve"
     style="font-size:40px;font-style:normal;font-variant:normal;font-weight:normal;font-stretch:normal;text-indent:0;text-align:start;text-decoration:none;line-height:100%;letter-spacing:0px;word-spacing:0px;text-transform:none;direction:ltr;block-progression:tb;writing-mode:lr-tb;text-anchor:start;color:#000000;fill:#ff0000;fill-opacity:1;fill-rule:nonzero;stroke:none;stroke-width:1px;marker:none;visibility:visible;display:inline;overflow:visible;enable-background:accumulate;font-family:Arial;-inkscape-font-specification:Arial"
     x="639.98633"
     y="272.60098"
     id="text9189"
     sodipodi:linespacing="100%"><tspan
       sodipodi:role="line"
       id="tspan9191"
       x="639.98633"
       y="272.60098">1 AB*+</tspan></text>
  <text
     sodipodi:linespacing="100%"
     id="text9193"
     y="391.23257"
     x="632.18152"
     style="font-size:40px;font-style:normal;font-variant:normal;font-weight:normal;font-stretch:normal;text-indent:0;text-align:start;text-decoration:none;line-height:100%;letter-spacing:0px;word-spacing:0px;text-transform:none;direction:ltr;block-progression:tb;writing-mode:lr-tb;text-anchor:start;color:#000000;fill:#ff0000;fill-opacity:1;fill-rule:nonzero;stroke:none;stroke-width:1px;marker:none;visibility:visible;display:inline;overflow:visible;enable-background:accumulate;font-family:Arial;-inkscape-font-specification:Arial"
     xml:space="preserve"><tspan
       y="391.23257"
       x="632.18152"
       id="tspan9195"
       sodipodi:role="line">1 AB?+</tspan></text>
  <text
     xml:space="preserve"
     style="font-size:40px;font-style:normal;font-variant:normal;font-weight:normal;font-stretch:normal;text-indent:0;text-align:start;text-decoration:none;line-height:100%;letter-spacing:0px;word-spacing:0px;text-transform:none;direction:ltr;block-progression:tb;writing-mode:lr-tb;text-anchor:start;color:#000000;fill:#ff0000;fill-opacity:1;fill-rule:nonzero;stroke:none;stroke-width:1px;marker:none;visibility:visible;display:inline;overflow:visible;enable-background:accumulate;font-family:Arial;-inkscape-font-specification:Arial"
     x="639.98633"
     y="330.35583"
     id="text9197"
     sodipodi:linespacing="100%"><tspan
       sodipodi:role="line"
       id="tspan9199"
       x="639.98633"
       y="330.35583">1 AB*+</tspan></text>
  <text
     sodipodi:linespacing="100%"
     id="text9201"
     y="448.98746"
     x="632.18152"
     style="font-size:40px;font-style:normal;font-variant:normal;font-weight:normal;font-stretch:normal;text-indent:0;text-align:start;text-decoration:none;line-height:100%;letter-spacing:0px;word-spacing:0px;text-transform:none;direction:ltr;block-progression:tb;writing-mode:lr-tb;text-anchor:start;color:#000000;fill:#ff0000;fill-opacity:1;fill-rule:nonzero;stroke:none;stroke-width:1px;marker:none;visibility:visible;display:inline;overflow:visible;enable-background:accumulate;font-family:Arial;-inkscape-font-specification:Arial"
     xml:space="preserve"><tspan
       y="448.98746"
       x="632.18152"
       id="tspan9203"
       sodipodi:role="line">1 AB?+</tspan></text>
  <text
     xml:space="preserve"
     style="font-size:40px;font-style:normal;font-variant:normal;font-weight:normal;font-stretch:normal;text-indent:0;text-align:start;text-decoration:none;line-height:100%;letter-spacing:0px;word-spacing:0px;text-transform:none;direction:ltr;block-progression:tb;writing-mode:lr-tb;text-anchor:start;color:#000000;fill:#008000;fill-opacity:1;fill-rule:nonzero;stroke:none;stroke-width:1px;marker:none;visibility:visible;display:inline;overflow:visible;enable-background:accumulate;font-family:Arial;-inkscape-font-specification:Arial"
     x="543.20789"
     y="509.86417"
     id="text9205"
     sodipodi:linespacing="100%"><tspan
       sodipodi:role="line"
       id="tspan9207"
       x="543.20789"
       y="509.86417">2 A?+</tspan></text>
  <text
     xml:space="preserve"
     style="font-size:40px;font-style:normal;font-variant:normal;font-weight:normal;font-stretch:normal;text-indent:0;text-align:start;text-decoration:none;line-height:100%;letter-spacing:0px;word-spacing:0px;text-transform:none;direction:ltr;block-progression:tb;writing-mode:lr-tb;text-anchor:start;color:#000000;fill:#008000;fill-opacity:1;fill-rule:nonzero;stroke:none;stroke-width:1px;marker:none;visibility:visible;display:inline;overflow:visible;enable-background:accumulate;font-family:Arial;-inkscape-font-specification:Arial"
     x="543.20789"
     y="564.49713"
     id="text9209"
     sodipodi:linespacing="100%"><tspan
       sodipodi:role="line"
       id="tspan9211"
       x="543.20789"
       y="564.49713">2 A?-</tspan></text>
  <text
     xml:space="preserve"
     style="font-size:40px;font-style:normal;font-variant:normal;font-weight:normal;font-stretch:normal;text-indent:0;text-align:start;text-decoration:none;line-height:100%;letter-spacing:0px;word-spacing:0px;text-transform:none;direction:ltr;block-progression:tb;writing-mode:lr-tb;text-anchor:start;color:#000000;fill:#008000;fill-opacity:1;fill-rule:nonzero;stroke:none;stroke-width:1px;marker:none;visibility:visible;display:inline;overflow:visible;enable-background:accumulate;font-family:Arial;-inkscape-font-specification:Arial"
     x="538.52502"
     y="625.3739"
     id="text9213"
     sodipodi:linespacing="100%"><tspan
       sodipodi:role="line"
       id="tspan9215"
       x="538.52502"
       y="625.3739">2 A*+</tspan></text>
  <text
     xml:space="preserve"
     style="font-size:40px;font-style:normal;font-variant:normal;font-weight:normal;font-stretch:normal;text-indent:0;text-align:start;text-decoration:none;line-height:100%;letter-spacing:0px;word-spacing:0px;text-transform:none;direction:ltr;block-progression:tb;writing-mode:lr-tb;text-anchor:start;color:#000000;fill:#0000ff;fill-opacity:1;fill-rule:nonzero;stroke:none;stroke-width:1px;marker:none;visibility:visible;display:inline;overflow:visible;enable-background:accumulate;font-family:Arial;-inkscape-font-specification:Arial"
     x="407.40588"
     y="684.6897"
     id="text9217"
     sodipodi:linespacing="100%"><tspan
       sodipodi:role="line"
       id="tspan9219"
       x="407.40588"
       y="684.6897">3 B*-</tspan></text>
  <text
     xml:space="preserve"
     style="font-size:40px;font-style:normal;font-variant:normal;font-weight:normal;font-stretch:normal;text-indent:0;text-align:start;text-decoration:none;line-height:100%;letter-spacing:0px;word-spacing:0px;text-transform:none;direction:ltr;block-progression:tb;writing-mode:lr-tb;text-anchor:start;color:#000000;fill:#0000ff;fill-opacity:1;fill-rule:nonzero;stroke:none;stroke-width:1px;marker:none;visibility:visible;display:inline;overflow:visible;enable-background:accumulate;font-family:Arial;-inkscape-font-specification:Arial"
     x="374.62616"
     y="798.63843"
     id="text9221"
     sodipodi:linespacing="100%"><tspan
       sodipodi:role="line"
       id="tspan9223"
       x="374.62616"
       y="798.63843">3 B?-</tspan></text>
  <text
     xml:space="preserve"
     style="font-size:40px;font-style:normal;font-variant:normal;font-weight:normal;font-stretch:normal;text-indent:0;text-align:start;text-decoration:none;line-height:100%;letter-spacing:0px;word-spacing:0px;text-transform:none;direction:ltr;block-progression:tb;writing-mode:lr-tb;text-anchor:start;color:#000000;fill:#008000;fill-opacity:1;fill-rule:nonzero;stroke:none;stroke-width:1px;marker:none;visibility:visible;display:inline;overflow:visible;enable-background:accumulate;font-family:Arial;-inkscape-font-specification:Arial"
     x="407.9137"
     y="742.44458"
     id="text9225"
     sodipodi:linespacing="100%"><tspan
       sodipodi:role="line"
       id="tspan9227"
       x="407.9137"
       y="742.44458">2 A*-</tspan></text>
  <g
     id="g9761"
     transform="translate(-12.487537,-9.3656527)">
    <text
       sodipodi:linespacing="100%"
       id="text9245"
       y="740.88361"
       x="600.96271"
       style="font-size:40px;font-style:normal;font-variant:normal;font-weight:normal;font-stretch:normal;text-indent:0;text-align:start;text-decoration:none;line-height:100%;letter-spacing:0px;word-spacing:0px;text-transform:none;direction:ltr;block-progression:tb;writing-mode:lr-tb;text-anchor:start;color:#000000;fill:#000000;fill-opacity:1;fill-rule:nonzero;stroke:none;stroke-width:1px;marker:none;visibility:visible;display:inline;overflow:visible;enable-background:accumulate;font-family:Arial;-inkscape-font-specification:Arial"
       xml:space="preserve"><tspan
         y="740.88361"
         x="600.96271"
         id="tspan9247"
         sodipodi:role="line">*  known</tspan><tspan
         id="tspan9249"
         y="780.88361"
         x="600.96271"
         sodipodi:role="line">? unknown</tspan></text>
    <rect
       y="698.73822"
       x="585.35327"
       height="99.900291"
       width="221.65378"
       id="rect9251"
       style="fill:none;stroke:#000000;stroke-width:2.5;stroke-linejoin:round;stroke-miterlimit:4;stroke-opacity:1;stroke-dasharray:none;stroke-dashoffset:0" />
  </g>
</svg>
