<?xml version="1.0" encoding="UTF-8" standalone="no"?>
<svg
   xmlns:dc="http://purl.org/dc/elements/1.1/"
   xmlns:cc="http://creativecommons.org/ns#"
   xmlns:rdf="http://www.w3.org/1999/02/22-rdf-syntax-ns#"
   xmlns:svg="http://www.w3.org/2000/svg"
   xmlns="http://www.w3.org/2000/svg"
   xmlns:sodipodi="http://sodipodi.sourceforge.net/DTD/sodipodi-0.dtd"
   xmlns:inkscape="http://www.inkscape.org/namespaces/inkscape"
   version="1.1"
   width="400px"
   height="400px"
   viewBox="0 0 1000.0 1000.0"
   id="svg2"
   inkscape:version="0.48.2 r9819"
   sodipodi:docname="fig_blicket_stg04_bblock_soff_fmout2_ti5.svg"
   inkscape:export-filename="/Users/oreilly/svn_sims/leabra/ti/fig_blicket_stg04_bblock_soff_fmout2_ti5.png"
   inkscape:export-xdpi="150"
   inkscape:export-ydpi="150">
  <metadata
     id="metadata74">
    <rdf:RDF>
      <cc:Work
         rdf:about="">
        <dc:format>image/svg+xml</dc:format>
        <dc:type
           rdf:resource="http://purl.org/dc/dcmitype/StillImage" />
        <dc:title></dc:title>
      </cc:Work>
    </rdf:RDF>
  </metadata>
  <defs
     id="defs72">
    <marker
       inkscape:stockid="Arrow1Mend"
       orient="auto"
       refY="0.0"
       refX="0.0"
       id="Arrow1Mend"
       style="overflow:visible;">
      <path
         id="path3861"
         d="M 0.0,0.0 L 5.0,-5.0 L -12.5,0.0 L 5.0,5.0 L 0.0,0.0 z "
         style="fill-rule:evenodd;stroke:#000000;stroke-width:1.0pt;marker-start:none;"
         transform="scale(0.4) rotate(180) translate(10,0)" />
    </marker>
  </defs>
  <sodipodi:namedview
     pagecolor="#ffffff"
     bordercolor="#666666"
     borderopacity="1"
     objecttolerance="10"
     gridtolerance="10"
     guidetolerance="10"
     inkscape:pageopacity="0"
     inkscape:pageshadow="2"
     inkscape:window-width="1617"
     inkscape:window-height="1114"
     id="namedview70"
     showgrid="false"
     inkscape:zoom="0.9983453"
     inkscape:cx="323.12111"
     inkscape:cy="240.71807"
     inkscape:window-x="0"
     inkscape:window-y="0"
     inkscape:window-maximized="0"
     inkscape:current-layer="svg2" />
  <rect
     style="fill:#ffffff;fill-opacity:1;fill-rule:nonzero;stroke:#ffffff;stroke-width:4.34859371;stroke-linejoin:round;stroke-miterlimit:4;stroke-opacity:1;stroke-dasharray:none;stroke-dashoffset:0"
     id="rect5754"
     width="2618.1404"
     height="927.17023"
     x="-374.14108"
     y="39.84383" />
  <path
     style="fill:none;stroke:#000000;stroke-width:2"
     inkscape:connector-curvature="0"
     d="m 582.43703,867.54886 0,-712.9 712.89997,0 0,712.9 -712.89997,0"
     id="path6310" />
  <text
     id="text6316"
     font-size="36.1"
     y="928.14893"
     x="706.43701"
     style="font-size:36.09999847px;text-anchor:middle;fill:#000000;font-family:Arial">1.A+</text>
  <text
     id="text6318"
     font-size="36.1"
     y="928.14893"
     x="861.43701"
     style="font-size:36.09999847px;text-anchor:middle;fill:#000000;font-family:Arial">1.B-</text>
  <text
     id="text6320"
     font-size="36.1"
     y="928.14893"
     x="1016.437"
     style="font-size:36.09999847px;text-anchor:middle;fill:#000000;font-family:Arial">2.A+</text>
  <text
     id="text6322"
     font-size="36.1"
     y="928.14893"
     x="1171.337"
     style="font-size:36.09999847px;text-anchor:middle;fill:#000000;font-family:Arial">2.B-</text>
  <path
     id="path6324"
     d="m 582.43703,867.54886 712.89997,0 m -666.39997,17.8 0,-35.6 m 77.5,35.6 0,-35.6 m 77.5,35.6 0,-35.6 m 77.5,35.6 0,-35.6 m 77.5,35.6 0,-35.6 m 77.49997,35.6 0,-35.6 m 77.4,35.6 0,-35.6 m 77.5,35.6 0,-35.6 m 77.5,35.6 0,-35.6"
     inkscape:connector-curvature="0"
     style="fill:none;stroke:#000000;stroke-width:2" />
  <path
     id="path6326"
     d="m 582.43703,154.64886 712.89997,0 m -666.39997,17.8 0,-35.6 m 77.5,35.6 0,-35.6 m 77.5,35.6 0,-35.6 m 77.5,35.6 0,-35.6 m 77.5,35.6 0,-35.6 m 77.49997,35.6 0,-35.6 m 77.4,35.6 0,-35.6 m 77.5,35.6 0,-35.6 m 77.5,35.6 0,-35.6"
     inkscape:connector-curvature="0"
     style="fill:none;stroke:#000000;stroke-width:2" />
  <path
     id="path6342"
     d="m 582.43703,867.54886 0,-712.9 m -17.8,705.9 35.6,0 m -35.6,-139.8 35.6,0 m -35.6,-139.8 35.6,0 m -35.6,-139.8 35.6,0 m -35.6,-139.7 35.6,0 m -35.6,-139.8 35.6,0"
     inkscape:connector-curvature="0"
     style="fill:none;stroke:#000000;stroke-width:2" />
  <path
     id="path6356"
     d="m 1295.337,867.54886 0,-712.9 m -17.8,705.9 35.6,0 m -35.6,-174.7 35.6,0 m -35.6,-174.8 35.6,0 m -35.6,-174.7 35.6,0 m -35.6,-174.7 35.6,0"
     inkscape:connector-curvature="0"
     style="fill:none;stroke:#ff0000;stroke-width:2" />
  <path
     style="fill:#000000;stroke:none"
     inkscape:connector-curvature="0"
     d="m 643.03703,869.44886 0,-576.5 62.3,0 0,576.5 m -13.2,-575 28.6,0 m -28.6,0 28.6,0 m -14.3,0 0,0 m 0,0 m 92.5,575 0,-710.1 62.3,0 0,710.1 m -14.1,-707.8 28.5,0 m -28.5,0 28.5,0 m -14.2,0 0,0 m 0,0 m 93.4,707.8 0,-616.4 62.29997,0 0,616.4 m -15,-614.6 28.5,0 m -28.5,0 28.5,0 m -14.2,0 0,0 m 0,0 m 94.3,614.6 0,-316.4 62.3,0 0,316.4 m -15.9,-316.4 28.5,0 m -28.5,0 28.5,0 m -14.3,0 0,0 m 0,0"
     id="path6372" />
  <path
     style="fill:#ff0000;stroke:none"
     inkscape:connector-curvature="0"
     d="m 861.23703,869.44886 0,-94.9 62.4,0 0,94.9 m 93.49997,0 0,-710.1 62.4,0 0,710.1"
     id="path6374" />
  <path
     style="fill:none;stroke:#000000;stroke-width:2"
     inkscape:connector-curvature="0"
     d="m -209.63407,869.27936 0,-712.89999 712.9,0 0,712.89999 -712.9,0"
     id="path6089" />
  <text
     id="text6095"
     font-size="36.1"
     y="929.87939"
     x="-85.634102"
     style="font-size:36.09999847px;text-anchor:middle;fill:#000000;font-family:Arial">1.A+</text>
  <text
     id="text6097"
     font-size="36.1"
     y="929.87939"
     x="69.365959"
     style="font-size:36.09999847px;text-anchor:middle;fill:#000000;font-family:Arial">1.B-</text>
  <text
     id="text6099"
     font-size="36.1"
     y="929.87939"
     x="224.36595"
     style="font-size:36.09999847px;text-anchor:middle;fill:#000000;font-family:Arial">2.A+</text>
  <text
     id="text6101"
     font-size="36.1"
     y="929.87939"
     x="379.26599"
     style="font-size:36.09999847px;text-anchor:middle;fill:#000000;font-family:Arial">2.B-</text>
  <path
     id="path6103"
     d="m -209.63407,869.27936 712.9,0 m -666.4,17.8 0,-35.6 m 77.5,35.6 0,-35.6 m 77.5,35.6 0,-35.6 m 77.5,35.6 0,-35.6 m 77.5,35.6 0,-35.6 m 77.5,35.6 0,-35.6 m 77.4,35.6 0,-35.6 m 77.5,35.6 0,-35.6 m 77.5,35.6 0,-35.6"
     inkscape:connector-curvature="0"
     style="fill:none;stroke:#000000;stroke-width:2" />
  <path
     id="path6105"
     d="m -209.63407,156.37937 712.9,0 m -666.4,17.8 0,-35.6 m 77.5,35.6 0,-35.6 m 77.5,35.6 0,-35.6 m 77.5,35.6 0,-35.6 m 77.5,35.6 0,-35.6 m 77.5,35.6 0,-35.6 m 77.4,35.6 0,-35.6 m 77.5,35.6 0,-35.6 m 77.5,35.6 0,-35.6"
     inkscape:connector-curvature="0"
     style="fill:none;stroke:#000000;stroke-width:2" />
  <text
     id="text6109"
     font-size="36.1"
     y="876.57935"
     x="-234.53401"
     style="font-size:36.09999847px;text-anchor:end;fill:#000000;font-family:Arial">0</text>
  <text
     id="text6111"
     font-size="36.1"
     y="736.7793"
     x="-234.53401"
     style="font-size:36.09999847px;text-anchor:end;fill:#000000;font-family:Arial">0.2</text>
  <text
     id="text6113"
     font-size="36.1"
     y="596.97937"
     x="-234.53401"
     style="font-size:36.09999847px;text-anchor:end;fill:#000000;font-family:Arial">0.4</text>
  <text
     id="text6115"
     font-size="36.1"
     y="457.17932"
     x="-234.53401"
     style="font-size:36.09999847px;text-anchor:end;fill:#000000;font-family:Arial">0.6</text>
  <text
     id="text6117"
     font-size="36.1"
     y="317.37939"
     x="-234.53401"
     style="font-size:36.09999847px;text-anchor:end;fill:#000000;font-family:Arial">0.8</text>
  <text
     id="text6119"
     font-size="36.1"
     y="177.57933"
     x="-234.53401"
     style="font-size:36.09999847px;text-anchor:end;fill:#000000;font-family:Arial">1</text>
  <path
     id="path6121"
     d="m -209.63407,869.27936 0,-712.89999 m -17.8,705.89999 35.6,0 m -35.6,-139.8 35.6,0 m -35.6,-139.8 35.6,0 m -35.6,-139.8 35.6,0 m -35.6,-139.7 35.6,0 m -35.6,-139.79999 35.6,0"
     inkscape:connector-curvature="0"
     style="fill:none;stroke:#000000;stroke-width:2" />
  <path
     id="path6135"
     d="m 503.26593,869.27936 0,-712.89999 m -17.8,705.89999 35.6,0 m -35.6,-174.7 35.6,0 m -35.6,-174.8 35.6,0 m -35.6,-174.7 35.6,0 m -35.6,-174.69999 35.6,0"
     inkscape:connector-curvature="0"
     style="fill:none;stroke:#ff0000;stroke-width:2" />
  <path
     style="fill:#000000;stroke:none"
     inkscape:connector-curvature="0"
     d="m -149.03407,871.17936 0,-288.3 62.3,0 0,288.3 m -13.2,-288.5 28.6,0 m -28.6,0 28.6,0 m -14.3,0 0,0 m 0,0 m 92.5,288.5 0,-566.7 62.3,0 0,566.7 m -14.1,-565.2 28.5,0 m -28.5,0 28.5,0 m -14.2,0 0,0 m 0,0 m 93.4,565.2 0,-555.4 62.3,0 0,555.4 m -15,-554.1 28.5,0 m -28.5,0 28.5,0 m -14.2,0 0,0 m 0,0 m 94.3,554.1 0,-63.3 62.3,0 0,63.3 m -15.9,-64.8 28.5,0 m -28.5,0 28.5,0 m -14.3,0 0,0 m 0,0"
     id="path6151" />
  <path
     style="fill:#ff0000;stroke:none"
     inkscape:connector-curvature="0"
     d="m 69.16593,871.17936 0,-94.9 62.4,0 0,94.9 m 93.5,0 0,-710.09999 62.4,0 0,710.09999"
     id="path6153" />
  <text
     xml:space="preserve"
     style="font-size:45px;font-style:normal;font-variant:normal;font-weight:normal;font-stretch:normal;text-indent:0;text-align:start;text-decoration:none;line-height:100%;letter-spacing:0px;word-spacing:0px;text-transform:none;direction:ltr;block-progression:tb;writing-mode:lr-tb;text-anchor:start;color:#000000;fill:#000000;fill-opacity:1;fill-rule:nonzero;stroke:none;stroke-width:1px;marker:none;visibility:visible;display:inline;overflow:visible;enable-background:accumulate;font-family:Arial;-inkscape-font-specification:Arial"
     x="-818.04712"
     y="-309.59866"
     id="text3051"
     sodipodi:linespacing="100%"
     transform="matrix(0,-1,1,0,0,0)"><tspan
       sodipodi:role="line"
       id="tspan3053"
       x="-818.04712"
       y="-309.59866"> Model Proportion Blicket = On</tspan></text>
  <text
     x="550.56152"
     y="929.7168"
     font-size="36.1"
     id="text3077"
     style="font-size:36.09999847px;text-anchor:middle;fill:#000000;font-family:Arial">0.AB+</text>
  <g
     id="g5332"
     transform="translate(370.10588,1005.7225)">
    <path
       inkscape:connector-curvature="0"
       id="path3079"
       d="m 241.138,-86.79237 46.11567,0"
       style="fill:none;stroke:#000000;stroke-width:3.75;stroke-linejoin:round;stroke-miterlimit:4;stroke-opacity:1;stroke-dasharray:none;stroke-dashoffset:0;marker-start:none;marker-end:url(#Arrow1Mend)" />
    <path
       style="fill:none;stroke:#000000;stroke-width:3.75;stroke-linejoin:round;stroke-miterlimit:4;stroke-opacity:1;stroke-dasharray:none;stroke-dashoffset:0;marker-start:none;marker-end:url(#Arrow1Mend)"
       d="m 543.96417,-86.79237 46.11566,0"
       id="path4657"
       inkscape:connector-curvature="0" />
    <path
       inkscape:connector-curvature="0"
       id="path4659"
       d="m 394.85687,-86.79237 46.11567,0"
       style="fill:none;stroke:#000000;stroke-width:3.75;stroke-linejoin:round;stroke-miterlimit:4;stroke-opacity:1;stroke-dasharray:none;stroke-dashoffset:0;marker-start:none;marker-end:url(#Arrow1Mend)" />
    <path
       inkscape:connector-curvature="0"
       id="path4661"
       d="m 696.14585,-86.79237 46.11566,0"
       style="fill:none;stroke:#000000;stroke-width:3.75;stroke-linejoin:round;stroke-miterlimit:4;stroke-opacity:1;stroke-dasharray:none;stroke-dashoffset:0;marker-start:none;marker-end:url(#Arrow1Mend)" />
  </g>
  <text
     xml:space="preserve"
     style="font-size:45px;font-style:normal;font-variant:normal;font-weight:normal;font-stretch:normal;text-indent:0;text-align:start;text-decoration:none;line-height:100%;letter-spacing:0px;word-spacing:0px;text-transform:none;direction:ltr;block-progression:tb;writing-mode:lr-tb;text-anchor:start;color:#000000;fill:#ff0000;fill-opacity:1;fill-rule:nonzero;stroke:none;stroke-width:1px;marker:none;visibility:visible;display:inline;overflow:visible;enable-background:accumulate;font-family:Arial;-inkscape-font-specification:Arial"
     x="218.03542"
     y="-2177.7932"
     id="text5326"
     sodipodi:linespacing="100%"
     transform="matrix(0,1,-1,0,0,0)"><tspan
       sodipodi:role="line"
       id="tspan5328"
       x="218.03542"
       y="-2177.7932">4yr-old's Blicket = On (2 max)</tspan></text>
  <text
     style="font-size:36.09999847px;text-anchor:middle;fill:#000000;font-family:Arial"
     id="text5330"
     font-size="36.1"
     y="929.7168"
     x="-242.13722">0.AB+</text>
  <g
     id="g5338"
     transform="translate(-422.59288,1005.7225)">
    <path
       style="fill:none;stroke:#000000;stroke-width:3.75;stroke-linejoin:round;stroke-miterlimit:4;stroke-opacity:1;stroke-dasharray:none;stroke-dashoffset:0;marker-start:none;marker-end:url(#Arrow1Mend)"
       d="m 241.138,-86.79237 46.11567,0"
       id="path5340"
       inkscape:connector-curvature="0" />
    <path
       inkscape:connector-curvature="0"
       id="path5342"
       d="m 543.96417,-86.79237 46.11566,0"
       style="fill:none;stroke:#000000;stroke-width:3.75;stroke-linejoin:round;stroke-miterlimit:4;stroke-opacity:1;stroke-dasharray:none;stroke-dashoffset:0;marker-start:none;marker-end:url(#Arrow1Mend)" />
    <path
       style="fill:none;stroke:#000000;stroke-width:3.75;stroke-linejoin:round;stroke-miterlimit:4;stroke-opacity:1;stroke-dasharray:none;stroke-dashoffset:0;marker-start:none;marker-end:url(#Arrow1Mend)"
       d="m 394.85687,-86.79237 46.11567,0"
       id="path5344"
       inkscape:connector-curvature="0" />
    <path
       style="fill:none;stroke:#000000;stroke-width:3.75;stroke-linejoin:round;stroke-miterlimit:4;stroke-opacity:1;stroke-dasharray:none;stroke-dashoffset:0;marker-start:none;marker-end:url(#Arrow1Mend)"
       d="m 696.14585,-86.79237 46.11566,0"
       id="path5346"
       inkscape:connector-curvature="0" />
  </g>
  <text
     xml:space="preserve"
     style="font-size:60px;font-style:normal;font-variant:normal;font-weight:normal;font-stretch:normal;text-indent:0;text-align:start;text-decoration:none;line-height:100%;letter-spacing:0px;word-spacing:0px;text-transform:none;direction:ltr;block-progression:tb;writing-mode:lr-tb;text-anchor:start;color:#000000;fill:#000000;fill-opacity:1;fill-rule:nonzero;stroke:none;stroke-width:1px;marker:none;visibility:visible;display:inline;overflow:visible;enable-background:accumulate;font-family:Arial;-inkscape-font-specification:Arial"
     x="-156.01122"
     y="105.5212"
     id="text5348"
     sodipodi:linespacing="100%"><tspan
       sodipodi:role="line"
       id="tspan5350"
       x="-156.01122"
       y="105.5212">BBlock: Top Down = .2</tspan></text>
  <text
     sodipodi:linespacing="100%"
     id="text5352"
     y="105.5212"
     x="680.8548"
     style="font-size:60px;font-style:normal;font-variant:normal;font-weight:normal;font-stretch:normal;text-indent:0;text-align:start;text-decoration:none;line-height:100%;letter-spacing:0px;word-spacing:0px;text-transform:none;direction:ltr;block-progression:tb;writing-mode:lr-tb;text-anchor:start;color:#000000;fill:#000000;fill-opacity:1;fill-rule:nonzero;stroke:none;stroke-width:1px;marker:none;visibility:visible;display:inline;overflow:visible;enable-background:accumulate;font-family:Arial;-inkscape-font-specification:Arial"
     xml:space="preserve"><tspan
       y="105.5212"
       x="680.8548"
       id="tspan5354"
       sodipodi:role="line">BBlock: TI Ctxt = .5</tspan></text>
  <g
     transform="translate(733.18471,253.4115)"
     id="g6579" />
  <path
     style="fill:none;stroke:#000000;stroke-width:2"
     inkscape:connector-curvature="0"
     d="m 1373.9443,867.5489 0,-712.9 712.9,0 0,712.9 -712.9,0"
     id="path6531" />
  <text
     id="text6537"
     font-size="36.1"
     y="928.14886"
     x="1497.9442"
     style="font-size:36.09999847px;text-anchor:middle;fill:#000000;font-family:Arial">1.A-</text>
  <text
     id="text6539"
     font-size="36.1"
     y="928.14886"
     x="1652.9442"
     style="font-size:36.09999847px;text-anchor:middle;fill:#000000;font-family:Arial">1.B+</text>
  <text
     id="text6541"
     font-size="36.1"
     y="928.14886"
     x="1807.9442"
     style="font-size:36.09999847px;text-anchor:middle;fill:#000000;font-family:Arial">2.A-</text>
  <text
     id="text6543"
     font-size="36.1"
     y="928.14886"
     x="1962.8444"
     style="font-size:36.09999847px;text-anchor:middle;fill:#000000;font-family:Arial">2.B+</text>
  <path
     id="path6545"
     d="m 1373.9443,867.5489 712.9,0 m -666.4,17.8 0,-35.6 m 77.5,35.6 0,-35.6 m 77.5,35.6 0,-35.6 m 77.5,35.6 0,-35.6 m 77.5,35.6 0,-35.6 m 77.5,35.6 0,-35.6 m 77.4,35.6 0,-35.6 m 77.5,35.6 0,-35.6 m 77.5,35.6 0,-35.6"
     inkscape:connector-curvature="0"
     style="fill:none;stroke:#000000;stroke-width:2" />
  <path
     id="path6547"
     d="m 1373.9443,154.6489 712.9,0 m -666.4,17.8 0,-35.6 m 77.5,35.6 0,-35.6 m 77.5,35.6 0,-35.6 m 77.5,35.6 0,-35.6 m 77.5,35.6 0,-35.6 m 77.5,35.6 0,-35.6 m 77.4,35.6 0,-35.6 m 77.5,35.6 0,-35.6 m 77.5,35.6 0,-35.6"
     inkscape:connector-curvature="0"
     style="fill:none;stroke:#000000;stroke-width:2" />
  <path
     id="path6563"
     d="m 1373.9443,867.5489 0,-712.9 m -17.8,705.9 35.6,0 m -35.6,-139.8 35.6,0 m -35.6,-139.8 35.6,0 m -35.6,-139.8 35.6,0 m -35.6,-139.7 35.6,0 m -35.6,-139.8 35.6,0"
     inkscape:connector-curvature="0"
     style="fill:none;stroke:#000000;stroke-width:2" />
  <text
     id="text6567"
     font-size="36.1"
     y="874.84894"
     x="2111.8445"
     style="font-size:36.09999847px;text-anchor:start;fill:#ff0000;font-family:Arial">0</text>
  <text
     id="text6569"
     font-size="36.1"
     y="700.04889"
     x="2111.8445"
     style="font-size:36.09999847px;text-anchor:start;fill:#ff0000;font-family:Arial">0.5</text>
  <text
     id="text6571"
     font-size="36.1"
     y="525.34894"
     x="2111.8445"
     style="font-size:36.09999847px;text-anchor:start;fill:#ff0000;font-family:Arial">1</text>
  <text
     id="text6573"
     font-size="36.1"
     y="350.64886"
     x="2111.8445"
     style="font-size:36.09999847px;text-anchor:start;fill:#ff0000;font-family:Arial">1.5</text>
  <text
     id="text6575"
     font-size="36.1"
     y="175.84895"
     x="2111.8445"
     style="font-size:36.09999847px;text-anchor:start;fill:#ff0000;font-family:Arial">2</text>
  <path
     id="path6577"
     d="m 2086.8443,867.5489 0,-712.9 m -17.8,705.9 35.6,0 m -35.6,-174.7 35.6,0 m -35.6,-174.8 35.6,0 m -35.6,-174.7 35.6,0 m -35.6,-174.7 35.6,0"
     inkscape:connector-curvature="0"
     style="fill:none;stroke:#ff0000;stroke-width:2" />
  <path
     style="fill:#000000;stroke:none"
     inkscape:connector-curvature="0"
     d="m 1434.5443,869.4489 0,-568.3 62.3,0 0,568.3 m -13.2,-566.9 28.6,0 m -28.6,0 28.6,0 m -14.3,0 0,0 m 0,0 m 92.5,566.9 0,-21.1 62.3,0 0,21.1 m -14.1,-22.9 28.5,0 m -28.5,0 28.5,0 m -14.2,0 0,0 m 0,0 m 93.4,22.9 0,-653.9 62.3,0 0,653.9 m -15,-651.9 28.5,0 m -28.5,0 28.5,0 m -14.2,0 0,0 m 0,0 m 94.3,651.9 0,-428.9 62.3,0 0,428.9 m -15.9,-428.3 28.5,0 m -28.5,0 28.5,0 m -14.3,0 0,0 m 0,0"
     id="path6593" />
  <path
     style="fill:#ff0000;stroke:none"
     inkscape:connector-curvature="0"
     d="m 1652.7443,869.4489 0,-710.1 62.4,0 0,710.1 m 93.5,0 0,-7 62.4,0 0,7"
     id="path6595" />
  <text
     xml:space="preserve"
     style="font-size:60px;font-style:normal;font-variant:normal;font-weight:normal;font-stretch:normal;text-indent:0;text-align:start;text-decoration:none;line-height:100%;letter-spacing:0px;word-spacing:0px;text-transform:none;direction:ltr;block-progression:tb;writing-mode:lr-tb;text-anchor:start;color:#000000;fill:#000000;fill-opacity:1;fill-rule:nonzero;stroke:none;stroke-width:1px;marker:none;visibility:visible;display:inline;overflow:visible;enable-background:accumulate;font-family:Arial;-inkscape-font-specification:Arial"
     x="1471.5125"
     y="105.5212"
     id="text6987"
     sodipodi:linespacing="100%"><tspan
       sodipodi:role="line"
       x="1471.5125"
       y="105.5212"
       id="tspan6991">Screen: TI Ctxt = .5</tspan></text>
  <text
     style="font-size:36.09999847px;text-anchor:middle;fill:#000000;font-family:Arial"
     id="text6995"
     font-size="36.1"
     y="929.7168"
     x="1341.3639">0.AB+</text>
  <g
     transform="translate(1160.9082,1005.7225)"
     id="g6997">
    <path
       style="fill:none;stroke:#000000;stroke-width:3.75;stroke-linejoin:round;stroke-miterlimit:4;stroke-opacity:1;stroke-dasharray:none;stroke-dashoffset:0;marker-start:none;marker-end:url(#Arrow1Mend)"
       d="m 241.138,-86.79237 46.11567,0"
       id="path6999"
       inkscape:connector-curvature="0" />
    <path
       inkscape:connector-curvature="0"
       id="path7001"
       d="m 543.96417,-86.79237 46.11566,0"
       style="fill:none;stroke:#000000;stroke-width:3.75;stroke-linejoin:round;stroke-miterlimit:4;stroke-opacity:1;stroke-dasharray:none;stroke-dashoffset:0;marker-start:none;marker-end:url(#Arrow1Mend)" />
    <path
       style="fill:none;stroke:#000000;stroke-width:3.75;stroke-linejoin:round;stroke-miterlimit:4;stroke-opacity:1;stroke-dasharray:none;stroke-dashoffset:0;marker-start:none;marker-end:url(#Arrow1Mend)"
       d="m 394.85687,-86.79237 46.11567,0"
       id="path7003"
       inkscape:connector-curvature="0" />
    <path
       style="fill:none;stroke:#000000;stroke-width:3.75;stroke-linejoin:round;stroke-miterlimit:4;stroke-opacity:1;stroke-dasharray:none;stroke-dashoffset:0;marker-start:none;marker-end:url(#Arrow1Mend)"
       d="m 696.14585,-86.79237 46.11566,0"
       id="path7005"
       inkscape:connector-curvature="0" />
  </g>
  <path
     style="fill:#ffffff;fill-opacity:1;fill-rule:nonzero;stroke:#000000;stroke-width:1.5;stroke-linejoin:round;stroke-miterlimit:4;stroke-opacity:1;stroke-dasharray:4.5,1.5;stroke-dashoffset:0;marker-end:url(#Arrow1Mend)"
     d="M -31.051381,231.72155 -1.0016574,133.55912"
     id="path7007"
     inkscape:connector-curvature="0"
     transform="scale(2.5,2.5)" />
  <text
     xml:space="preserve"
     style="font-size:45px;font-style:normal;font-variant:normal;font-weight:normal;font-stretch:normal;text-indent:0;text-align:start;text-decoration:none;line-height:100%;letter-spacing:0px;word-spacing:0px;text-transform:none;direction:ltr;block-progression:tb;writing-mode:lr-tb;text-anchor:start;color:#000000;fill:#000000;fill-opacity:1;fill-rule:nonzero;stroke:none;stroke-width:1px;marker:none;visibility:visible;display:inline;overflow:visible;enable-background:accumulate;font-family:Arial;-inkscape-font-specification:Arial"
     x="-200.33148"
     y="353.93094"
     id="text7191"
     sodipodi:linespacing="100%"><tspan
       sodipodi:role="line"
       id="tspan7193"
       x="-200.33148"
       y="353.93094">should</tspan><tspan
       sodipodi:role="line"
       x="-200.33148"
       y="398.93094"
       id="tspan7195">go down</tspan><tspan
       sodipodi:role="line"
       x="-200.33148"
       y="443.93094"
       id="tspan7199">not up</tspan></text>
  <path
     style="fill:#ffffff;fill-opacity:1;fill-rule:nonzero;stroke:#ff0000;stroke-width:1.50000000000000000;stroke-linejoin:round;stroke-miterlimit:4;stroke-opacity:1;stroke-dasharray:none;stroke-dashoffset:0;marker-end:url(#Arrow1Mend)"
     d="M -28.046408,238.73315 C 35.05801,303.84089 35.05801,303.84089 35.05801,303.84089"
     id="path7203"
     inkscape:connector-curvature="0"
     transform="scale(2.5,2.5)" />
  <text
     xml:space="preserve"
     style="font-size:45px;font-style:normal;font-variant:normal;font-weight:normal;font-stretch:normal;text-indent:0;text-align:start;text-decoration:none;line-height:100%;letter-spacing:0px;word-spacing:0px;text-transform:none;direction:ltr;block-progression:tb;writing-mode:lr-tb;text-anchor:start;color:#000000;fill:#000000;fill-opacity:1;fill-rule:nonzero;stroke:none;stroke-width:1px;marker:none;visibility:visible;display:inline;overflow:visible;enable-background:accumulate;font-family:Arial;-inkscape-font-specification:Arial"
     x="323.03452"
     y="656.93237"
     id="text7387"
     sodipodi:linespacing="100%"><tspan
       sodipodi:role="line"
       id="tspan7389"
       x="323.03452"
       y="656.93237">does</tspan><tspan
       sodipodi:role="line"
       x="323.03452"
       y="701.93237"
       id="tspan7391">after</tspan><tspan
       sodipodi:role="line"
       x="323.03452"
       y="746.93237"
       id="tspan7393">seeing</tspan><tspan
       sodipodi:role="line"
       x="323.03452"
       y="791.93237"
       id="tspan7395">B-</tspan></text>
  <path
     inkscape:connector-curvature="0"
     id="path7397"
     d="m 706.16849,283.81493 80.1326,-95.15746"
     style="fill:#ffffff;fill-opacity:1;fill-rule:nonzero;stroke:#000000;stroke-width:3.75;stroke-linejoin:round;stroke-miterlimit:4;stroke-opacity:1;stroke-dasharray:11.25, 3.75;stroke-dashoffset:0;marker-end:url(#Arrow1Mend)"
     sodipodi:nodetypes="cc" />
  <text
     xml:space="preserve"
     style="font-size:18px;font-style:normal;font-variant:normal;font-weight:normal;font-stretch:normal;text-indent:0;text-align:start;text-decoration:none;line-height:100%;letter-spacing:0px;word-spacing:0px;text-transform:none;direction:ltr;block-progression:tb;writing-mode:lr-tb;text-anchor:start;color:#000000;fill:#000000;fill-opacity:1;fill-rule:nonzero;stroke:none;stroke-width:1px;marker:none;visibility:visible;display:inline;overflow:visible;enable-background:accumulate;font-family:Arial;-inkscape-font-specification:Arial"
     x="256.42432"
     y="87.48288"
     id="text7399"
     sodipodi:linespacing="100%"
     transform="scale(2.5,2.5)"><tspan
       sodipodi:role="line"
       id="tspan7401"
       x="256.42432"
       y="87.48288" /></text>
  <text
     sodipodi:linespacing="100%"
     id="text7403"
     y="193.66574"
     x="593.48206"
     style="font-size:45px;font-style:normal;font-variant:normal;font-weight:normal;font-stretch:normal;text-indent:0;text-align:start;text-decoration:none;line-height:100%;letter-spacing:0px;word-spacing:0px;text-transform:none;direction:ltr;block-progression:tb;writing-mode:lr-tb;text-anchor:start;color:#000000;fill:#000000;fill-opacity:1;fill-rule:nonzero;stroke:none;stroke-width:1px;marker:none;visibility:visible;display:inline;overflow:visible;enable-background:accumulate;font-family:Arial;-inkscape-font-specification:Arial"
     xml:space="preserve"><tspan
       y="193.66574"
       x="593.48206"
       id="tspan7405"
       sodipodi:role="line"
       style="font-size:40px">should</tspan><tspan
       id="tspan7407"
       y="233.66574"
       x="593.48206"
       sodipodi:role="line"
       style="font-size:40px">go down</tspan><tspan
       id="tspan7409"
       y="273.66577"
       x="593.48206"
       sodipodi:role="line"
       style="font-size:40px">not up</tspan></text>
  <path
     inkscape:connector-curvature="0"
     id="path7411"
     d="m 716.18507,296.33564 c 10.01658,22.53731 170.28177,455.75415 170.28177,455.75415"
     style="fill:#ffffff;fill-opacity:1;fill-rule:nonzero;stroke:#ff0000;stroke-width:3.75;stroke-linejoin:round;stroke-miterlimit:4;stroke-opacity:1;stroke-dasharray:none;stroke-dashoffset:0;marker-end:url(#Arrow1Mend)"
     sodipodi:nodetypes="cc" />
  <text
     sodipodi:linespacing="100%"
     id="text7413"
     y="328.88956"
     x="1109.3356"
     style="font-size:45px;font-style:normal;font-variant:normal;font-weight:normal;font-stretch:normal;text-indent:0;text-align:start;text-decoration:none;line-height:100%;letter-spacing:0px;word-spacing:0px;text-transform:none;direction:ltr;block-progression:tb;writing-mode:lr-tb;text-anchor:start;color:#000000;fill:#000000;fill-opacity:1;fill-rule:nonzero;stroke:none;stroke-width:1px;marker:none;visibility:visible;display:inline;overflow:visible;enable-background:accumulate;font-family:Arial;-inkscape-font-specification:Arial"
     xml:space="preserve"><tspan
       id="tspan7417"
       y="328.88956"
       x="1109.3356"
       sodipodi:role="line">not</tspan><tspan
       y="373.88956"
       x="1109.3356"
       sodipodi:role="line"
       id="tspan7425">much</tspan><tspan
       y="418.88956"
       x="1109.3356"
       sodipodi:role="line"
       id="tspan7427">after</tspan><tspan
       id="tspan7419"
       y="463.88956"
       x="1109.3356"
       sodipodi:role="line">seeing</tspan><tspan
       id="tspan7421"
       y="508.88956"
       x="1109.3356"
       sodipodi:role="line">B-</tspan></text>
  <path
     inkscape:connector-curvature="0"
     id="path7431"
     d="m 1512.5028,313.86465 97.6616,520.86187"
     style="fill:#ffffff;fill-opacity:1;fill-rule:nonzero;stroke:#000000;stroke-width:3.75;stroke-linejoin:round;stroke-miterlimit:4;stroke-opacity:1;stroke-dasharray:11.25, 3.75;stroke-dashoffset:0;marker-end:url(#Arrow1Mend)"
     sodipodi:nodetypes="cc" />
  <path
     inkscape:connector-curvature="0"
     id="path7433"
     d="m 1515.0069,296.33564 c 17.529,-12.5207 125.2071,-120.19888 125.2071,-120.19888"
     style="fill:#ffffff;fill-opacity:1;fill-rule:nonzero;stroke:#ff0000;stroke-width:3.75;stroke-linejoin:round;stroke-miterlimit:4;stroke-opacity:1;stroke-dasharray:none;stroke-dashoffset:0;marker-end:url(#Arrow1Mend)"
     sodipodi:nodetypes="cc" />
  <text
     sodipodi:linespacing="100%"
     id="text7435"
     y="326.38538"
     x="1532.5359"
     style="font-size:45px;font-style:normal;font-variant:normal;font-weight:normal;font-stretch:normal;text-indent:0;text-align:start;text-decoration:none;line-height:100%;letter-spacing:0px;word-spacing:0px;text-transform:none;direction:ltr;block-progression:tb;writing-mode:lr-tb;text-anchor:start;color:#000000;fill:#000000;fill-opacity:1;fill-rule:nonzero;stroke:none;stroke-width:1px;marker:none;visibility:visible;display:inline;overflow:visible;enable-background:accumulate;font-family:Arial;-inkscape-font-specification:Arial"
     xml:space="preserve"><tspan
       y="326.38538"
       x="1532.5359"
       id="tspan7437"
       sodipodi:role="line"
       style="font-size:40px">should</tspan><tspan
       id="tspan7439"
       y="371.38538"
       x="1532.5359"
       sodipodi:role="line"
       style="font-size:40px">go up</tspan><tspan
       y="416.38538"
       x="1532.5359"
       sodipodi:role="line"
       id="tspan7443"
       style="font-size:40px">not</tspan><tspan
       id="tspan7441"
       y="461.38538"
       x="1532.5359"
       sodipodi:role="line"
       style="font-size:40px">down</tspan></text>
  <text
     sodipodi:linespacing="100%"
     id="text7449"
     y="278.8067"
     x="1895.6367"
     style="font-size:45px;font-style:normal;font-variant:normal;font-weight:normal;font-stretch:normal;text-indent:0;text-align:start;text-decoration:none;line-height:100%;letter-spacing:0px;word-spacing:0px;text-transform:none;direction:ltr;block-progression:tb;writing-mode:lr-tb;text-anchor:start;color:#000000;fill:#000000;fill-opacity:1;fill-rule:nonzero;stroke:none;stroke-width:1px;marker:none;visibility:visible;display:inline;overflow:visible;enable-background:accumulate;font-family:Arial;-inkscape-font-specification:Arial"
     xml:space="preserve"><tspan
       y="278.8067"
       x="1895.6367"
       id="tspan7451"
       sodipodi:role="line">does</tspan><tspan
       id="tspan7453"
       y="323.8067"
       x="1895.6367"
       sodipodi:role="line">after</tspan><tspan
       id="tspan7455"
       y="368.8067"
       x="1895.6367"
       sodipodi:role="line">seeing</tspan><tspan
       id="tspan7457"
       y="413.8067"
       x="1895.6367"
       sodipodi:role="line">B+</tspan></text>
</svg>
