<?xml version="1.0" encoding="UTF-8" standalone="no"?>
<svg
  xmlns="http://www.w3.org/2000/svg" version="1.1"
  width="400px"
  height="400px"
  viewBox="0 0 1000.0 1000.0">
<path stroke="#000000" stroke-width="2" fill="none"
  d="M 136.8,772.6 L 136.8,170.1 L 739.3,170.1 L 739.3,772.6 L 136.8,772.6 "
 />

<g>

<text x="438.1" y="854.0" font-family="Arial" font-size="30.5" fill="#000000" text-anchor="middle">
x prjn
</text>

<text x="136.8" y="823.8" font-family="Arial" font-size="30.5" fill="#000000" text-anchor="middle">
-3
</text>

<text x="237.2" y="823.8" font-family="Arial" font-size="30.5" fill="#000000" text-anchor="middle">
-2
</text>

<text x="337.6" y="823.8" font-family="Arial" font-size="30.5" fill="#000000" text-anchor="middle">
-1
</text>

<text x="438.1" y="823.8" font-family="Arial" font-size="30.5" fill="#000000" text-anchor="middle">
0
</text>

<text x="538.5" y="823.8" font-family="Arial" font-size="30.5" fill="#000000" text-anchor="middle">
1
</text>

<text x="638.9" y="823.8" font-family="Arial" font-size="30.5" fill="#000000" text-anchor="middle">
2
</text>

<text x="739.3" y="823.8" font-family="Arial" font-size="30.5" fill="#000000" text-anchor="middle">
3
</text>
<path stroke="#000000" stroke-width="2" fill="none"
  d="M 136.8,772.6 L 739.3,772.6 M 136.8,787.7 L 136.8,757.6 M 237.2,787.7 L 237.2,757.6 M 337.6,787.7 L 337.6,757.6 M 438.1,787.7 L 438.1,757.6 M 538.5,787.7 L 538.5,757.6 M 638.9,787.7 L 638.9,757.6 M 739.3,787.7 L 739.3,757.6 "
 />
<path stroke="#000000" stroke-width="2" fill="none"
  d="M 136.8,170.1 L 739.3,170.1 M 136.8,185.2 L 136.8,155.0 M 237.2,185.2 L 237.2,155.0 M 337.6,185.2 L 337.6,155.0 M 438.1,185.2 L 438.1,155.0 M 538.5,185.2 L 538.5,155.0 M 638.9,185.2 L 638.9,155.0 M 739.3,185.2 L 739.3,155.0 "
 />

<text x="61.5" y="471.4" font-family="Arial" font-size="30.5" fill="#000000" writing-mode="tb" text-anchor="middle">
y prjn
</text>

<text x="115.7" y="784.7" font-family="Arial" font-size="30.5" fill="#000000" text-anchor="end">
-2
</text>

<text x="115.7" y="709.4" font-family="Arial" font-size="30.5" fill="#000000" text-anchor="end">
-1.5
</text>

<text x="115.7" y="634.0" font-family="Arial" font-size="30.5" fill="#000000" text-anchor="end">
-1
</text>

<text x="115.7" y="558.7" font-family="Arial" font-size="30.5" fill="#000000" text-anchor="end">
-0.5
</text>

<text x="115.7" y="483.4" font-family="Arial" font-size="30.5" fill="#000000" text-anchor="end">
0
</text>

<text x="115.7" y="408.1" font-family="Arial" font-size="30.5" fill="#000000" text-anchor="end">
0.5
</text>

<text x="115.7" y="332.8" font-family="Arial" font-size="30.5" fill="#000000" text-anchor="end">
1
</text>

<text x="115.7" y="257.5" font-family="Arial" font-size="30.5" fill="#000000" text-anchor="end">
1.5
</text>

<text x="115.7" y="182.1" font-family="Arial" font-size="30.5" fill="#000000" text-anchor="end">
2
</text>
<path stroke="#000000" stroke-width="2" fill="none"
  d="M 136.8,772.6 L 136.8,170.1 M 121.7,772.6 L 151.9,772.6 M 121.7,697.3 L 151.9,697.3 M 121.7,622.0 L 151.9,622.0 M 121.7,546.7 L 151.9,546.7 M 121.7,471.4 L 151.9,471.4 M 121.7,396.0 L 151.9,396.0 M 121.7,320.7 L 151.9,320.7 M 121.7,245.4 L 151.9,245.4 M 121.7,170.1 L 151.9,170.1 "
 />
<path stroke="#000000" stroke-width="2" fill="none"
  d="M 739.3,772.6 L 739.3,170.1 M 724.3,772.6 L 754.4,772.6 M 724.3,697.3 L 754.4,697.3 M 724.3,622.0 L 754.4,622.0 M 724.3,546.7 L 754.4,546.7 M 724.3,471.4 L 754.4,471.4 M 724.3,396.0 L 754.4,396.0 M 724.3,320.7 L 754.4,320.7 M 724.3,245.4 L 754.4,245.4 M 724.3,170.1 L 754.4,170.1 "
 />

</g>

<g transform="translate(0.0,-685.4)">

<g transform="translate(0.0,-0.0)">
<path stroke="#000000" stroke-width="4" fill="none"
  d="M 136.8,772.6 L 172.9,772.6 "
 />

<text x="179.0" y="784.7" font-family="Arial" font-size="30.5" fill="#000000" text-anchor="start">
y prjn
</text>

</g>

<g transform="translate(0.0,33.5)">
<path stroke="#ff0000" stroke-width="4" fill="none"
  d="M 136.8,772.6 L 172.9,772.6 "
 />

<text x="179.0" y="784.7" font-family="Arial" font-size="30.5" fill="#ff0000" text-anchor="start">
trial label
</text>

</g>

</g>

<g>
<path stroke="#000000" stroke-width="4" fill="none"
  d="
"
 />
<path stroke="#000000" stroke-width="4" fill="none"
  d="M 631.7,620.7 L 631.2,618.4 L 629.9,616.5 L 627.9,615.2 L 625.6,614.7 L 623.3,615.2 L 621.4,616.5 L 620.1,618.4 L 619.6,620.7 L 620.1,623.0 L 621.4,625.0 L 623.3,626.3 L 625.6,626.8 L 627.9,626.3 L 629.9,625.0 L 631.2,623.0 L 631.7,620.7 M 173.7,448.4 L 173.2,446.1 L 171.9,444.2 L 169.9,442.9 L 167.6,442.4 L 165.3,442.9 L 163.4,444.2 L 162.1,446.1 L 161.6,448.4 L 162.1,450.7 L 163.4,452.7 L 165.3,454.0 L 167.6,454.5 L 169.9,454.0 L 171.9,452.7 L 173.2,450.7 L 173.7,448.4 M 627.1,237.3 L 626.6,235.0 L 625.3,233.1 L 623.3,231.8 L 621.0,231.3 L 618.7,231.8 L 616.8,233.1 L 615.5,235.0 L 615.0,237.3 L 615.5,239.6 L 616.8,241.6 L 618.7,242.9 L 621.0,243.3 L 623.3,242.9 L 625.3,241.6 L 626.6,239.6 L 627.1,237.3 "
 />

<g>

<text x="625.6" y="632.8" font-family="Arial" font-size="24.4" fill="#ff0000" text-anchor="start">
1.1_AOB*_BSA*+
</text>

<text x="167.6" y="460.5" font-family="Arial" font-size="24.4" fill="#ff0000" text-anchor="start">
1.2_AOB*--
</text>

<text x="621.0" y="249.4" font-family="Arial" font-size="24.4" fill="#ff0000" text-anchor="start">
1.3_BSA*+
</text>

</g>

</g>
</svg>
